<svg xmlns="http://www.w3.org/2000/svg" xmlns:xlink="http://www.w3.org/1999/xlink" width="500" zoomAndPan="magnify" viewBox="0 0 375 374.999991" height="500" preserveAspectRatio="xMidYMid meet" version="1.0"><defs><g/></defs><path fill="#00bf63" d="M 121.550781 101.359375 C 105.421875 102.59375 91.058594 106.429688 79.261719 112.65625 C 65.78125 119.773438 53.265625 130.289062 43.773438 142.476562 C 39.113281 148.464844 35.890625 153.816406 31.949219 162.128906 C 28.644531 169.101562 26.5625 175.285156 24.496094 184.253906 C 22.914062 191.117188 22.421875 195.3125 22.074219 204.761719 C 21.753906 213.5 21.738281 239.800781 22.050781 240.628906 C 22.183594 240.96875 22.496094 241.347656 22.753906 241.472656 C 23.007812 241.597656 27.839844 241.714844 33.488281 241.738281 C 41.671875 241.773438 43.785156 241.714844 43.882812 241.453125 C 43.953125 241.273438 43.253906 239.902344 42.332031 238.410156 C 36.109375 228.339844 33.769531 217.851562 35.828125 209.21875 C 37.203125 203.457031 40.410156 196.566406 42.292969 195.332031 C 42.804688 194.996094 42.996094 194.992188 43.75 195.300781 C 45.523438 196.027344 49.449219 196.3125 53.441406 196.003906 C 55.496094 195.847656 58.148438 195.71875 59.339844 195.71875 C 60.867188 195.71875 62.667969 195.460938 65.417969 194.851562 C 67.566406 194.378906 70.1875 193.914062 71.238281 193.820312 C 74.035156 193.570312 75.058594 193.253906 75.058594 192.640625 C 75.058594 191.929688 71.488281 188.417969 69.324219 186.996094 C 64.871094 184.070312 62.039062 183.160156 57.5625 183.207031 C 55.992188 183.222656 54.652344 183.140625 54.578125 183.023438 C 54.414062 182.757812 56.082031 181.015625 57.097656 180.394531 C 58.597656 179.472656 61.128906 179.925781 64.78125 181.761719 C 69.585938 184.179688 72.398438 185.042969 77.511719 185.675781 C 85.988281 186.71875 95.949219 186.273438 95.949219 184.847656 C 95.949219 183.578125 92.484375 178.90625 90.175781 177.058594 C 87.972656 175.296875 85.296875 173.722656 83.335938 173.03125 C 81.015625 172.214844 77.429688 172.441406 73.53125 173.660156 C 70.71875 174.535156 69.195312 174.789062 69.203125 174.382812 C 69.210938 173.945312 69.65625 173.652344 70.984375 173.210938 C 71.753906 172.953125 73.53125 172.1875 74.929688 171.507812 C 76.332031 170.828125 77.9375 170.152344 78.496094 170.003906 C 79.976562 169.617188 84.125 169.671875 86.4375 170.113281 C 89.191406 170.640625 96.007812 172.859375 99.414062 174.34375 C 103.835938 176.265625 108.078125 177.324219 113.207031 177.789062 C 115.046875 177.957031 115.054688 177.957031 115.054688 177.328125 C 115.054688 176.394531 113.285156 174 110.542969 171.230469 C 109.210938 169.882812 108.21875 168.722656 108.339844 168.65625 C 108.457031 168.589844 109.644531 168.640625 110.976562 168.773438 C 117.769531 169.441406 129.207031 167.695312 136.550781 164.871094 C 138.386719 164.164062 140.664062 163.289062 141.609375 162.929688 C 142.554688 162.566406 143.328125 162.144531 143.328125 161.992188 C 143.328125 161.683594 141.082031 159.824219 139.253906 158.617188 C 135.714844 156.277344 129.433594 153.179688 126.503906 152.328125 C 124.503906 151.746094 120.535156 151.335938 118.808594 151.53125 C 117.871094 151.636719 117.347656 151.601562 117.347656 151.433594 C 117.347656 150.726562 129.859375 146.972656 136.070312 145.820312 C 139.828125 145.121094 145.046875 144.679688 147.398438 144.867188 C 150.65625 145.121094 153.890625 146.132812 161.035156 149.125 C 162.15625 149.59375 163.816406 150.425781 164.726562 150.96875 C 166.492188 152.023438 171.21875 153.679688 174.25 154.308594 C 179.765625 155.445312 188.929688 155.550781 188.929688 154.472656 C 188.929688 153.644531 182.570312 149.359375 178.027344 147.128906 C 175.882812 146.074219 174.183594 145.164062 174.246094 145.101562 C 174.308594 145.039062 175.542969 144.878906 176.992188 144.742188 C 182.570312 144.214844 186.050781 143.019531 188.234375 140.875 C 189.242188 139.890625 189.273438 139.816406 188.738281 139.730469 C 188.421875 139.679688 186.761719 139.832031 185.042969 140.066406 C 180.398438 140.699219 170.203125 140.839844 165.238281 140.335938 C 163.066406 140.117188 159.570312 139.761719 157.46875 139.546875 C 152.496094 139.042969 142.699219 139.027344 136.832031 139.515625 C 134.3125 139.726562 129.726562 140.300781 126.644531 140.789062 C 118.449219 142.09375 115.5625 142.304688 108.398438 142.121094 C 104.984375 142.03125 101.535156 141.894531 100.734375 141.8125 C 99.359375 141.671875 99.273438 141.699219 99.167969 142.261719 C 98.726562 144.59375 97.34375 149.941406 96.925781 150.914062 C 96.21875 152.5625 95.148438 153.496094 92.582031 154.699219 C 90.40625 155.71875 87.550781 156.742188 86.878906 156.742188 C 86.6875 156.742188 87.320312 155.554688 88.335938 154.003906 C 91.085938 149.816406 96.417969 138.667969 96.65625 136.617188 L 96.789062 135.46875 L 95.667969 136.4375 C 94.421875 137.511719 92.273438 138.648438 91.488281 138.652344 C 91.058594 138.652344 91.09375 138.578125 91.710938 138.167969 C 93.121094 137.238281 98.546875 131.636719 99.671875 129.945312 C 101.027344 127.910156 102.542969 124.738281 103.441406 122.058594 C 104.082031 120.152344 104.917969 115.53125 104.691406 115.15625 C 104.492188 114.820312 102.753906 114.957031 100.792969 115.464844 C 96.488281 116.585938 93.210938 118.96875 91.859375 121.96875 C 90.890625 124.109375 90.566406 125.828125 90.464844 129.355469 C 90.339844 133.523438 90.125 135.820312 89.800781 136.425781 C 89.648438 136.703125 89.589844 137.25 89.667969 137.632812 C 89.753906 138.058594 89.628906 138.664062 89.34375 139.191406 C 89.089844 139.667969 88.574219 140.914062 88.195312 141.964844 C 86.8125 145.8125 85.011719 148.847656 81.90625 152.570312 C 79.976562 154.882812 79.035156 155.742188 76.152344 157.816406 C 74.519531 158.992188 66.238281 164.128906 65.976562 164.128906 C 65.933594 164.128906 64.71875 164.859375 63.273438 165.753906 C 60.589844 167.414062 57.996094 168.8125 57.871094 168.667969 C 57.835938 168.625 58.378906 167.265625 59.078125 165.648438 L 60.355469 162.710938 L 63.828125 161 C 65.738281 160.058594 67.433594 159.289062 67.589844 159.289062 C 67.75 159.289062 68.433594 158.851562 69.113281 158.320312 C 69.789062 157.785156 71.246094 156.839844 72.347656 156.21875 C 74.796875 154.832031 79.234375 151.355469 81.316406 149.1875 C 82.953125 147.488281 86.4375 141.945312 87.347656 139.601562 C 88.066406 137.746094 88.863281 134.820312 88.835938 134.117188 C 88.828125 133.796875 89.007812 132.59375 89.238281 131.445312 C 89.613281 129.570312 90.085938 121.507812 89.878906 120.472656 C 89.832031 120.246094 89.675781 120.058594 89.53125 120.058594 C 88.875 120.058594 82.507812 123.488281 79.390625 125.523438 C 72.929688 129.738281 70.617188 131.648438 63.921875 138.3125 C 60.421875 141.792969 57.054688 145.28125 56.4375 146.0625 C 55.597656 147.128906 54.75 148.191406 53.898438 149.25 C 53.117188 150.21875 52.019531 151.699219 51.457031 152.539062 C 50.105469 154.558594 46.949219 160.167969 46.15625 161.960938 C 44.878906 164.855469 43.75 168.929688 43.089844 173.046875 C 42.1875 178.703125 42.277344 178.382812 41.246094 179.359375 C 40.207031 180.339844 36.878906 182.726562 36.550781 182.726562 C 35.609375 182.726562 38.550781 171.894531 41.28125 165.3125 C 42.632812 162.050781 43.507812 160.382812 46.046875 156.207031 C 48.800781 151.6875 50.074219 149.953125 55.277344 143.644531 C 63.613281 133.539062 74.789062 124.699219 86.996094 118.554688 C 93.597656 115.230469 95.441406 114.484375 102.554688 112.265625 C 116.628906 107.867188 132.769531 106.921875 147.53125 109.632812 C 157.019531 111.375 167.914062 115.292969 175.679688 119.753906 C 184.074219 124.578125 189.578125 128.832031 196.832031 136.09375 C 204.828125 144.101562 210.453125 152.527344 215.292969 163.746094 C 216.761719 167.148438 219.1875 172.027344 219.410156 172.027344 C 219.765625 172.027344 219.210938 168.921875 218.335938 166.042969 C 215.902344 158.011719 211.40625 148.632812 206.808594 141.992188 C 196.46875 127.046875 182.582031 115.863281 165.703125 108.882812 C 157.136719 105.34375 147.886719 102.914062 138.871094 101.835938 C 135.734375 101.460938 124.332031 101.148438 121.550781 101.359375 M 112.785156 119.804688 C 111.144531 120.050781 107.746094 121.695312 106.101562 123.039062 C 104.578125 124.285156 103.519531 125.898438 102.003906 129.289062 C 100.640625 132.339844 99.855469 135.261719 99.605469 138.207031 L 99.441406 140.183594 L 100.335938 140.183594 C 101.753906 140.183594 106.328125 138.71875 108.542969 137.554688 C 112.453125 135.5 115.476562 131.929688 118.210938 126.140625 C 120.089844 122.15625 120.320312 121.464844 119.917969 120.980469 C 119.144531 120.046875 115.351562 119.421875 112.785156 119.804688 M 148.804688 123.085938 C 143.257812 124.46875 140.484375 126.25 137.109375 130.613281 C 134.449219 134.046875 132.527344 137.648438 133.070312 138.171875 C 133.308594 138.402344 140.984375 137.546875 143.5625 137.003906 C 147.722656 136.128906 152.910156 133.605469 155.816406 131.050781 C 157.472656 129.59375 161.359375 123.976562 160.976562 123.59375 C 160.851562 123.46875 159.855469 123.195312 158.765625 122.984375 C 156.0625 122.46875 151.09375 122.519531 148.804688 123.085938 M 126.992188 125.425781 C 125.148438 125.695312 122.863281 126.503906 121.636719 127.316406 C 119.828125 128.511719 117.882812 131.425781 116.789062 134.574219 C 116.117188 136.507812 115.480469 139.949219 115.746094 140.214844 C 116.082031 140.550781 120.820312 139.558594 123.097656 138.679688 C 125.882812 137.605469 128.9375 135.667969 130.816406 133.785156 C 133.472656 131.117188 136.699219 126.527344 136.332031 125.933594 C 135.882812 125.203125 130.507812 124.910156 126.992188 125.425781 M 164.359375 132.058594 C 161.289062 132.507812 158.878906 133.675781 156.582031 135.828125 C 155.019531 137.292969 154.695312 138.007812 155.492188 138.242188 C 156.628906 138.570312 164.113281 138.960938 166.511719 138.8125 C 172.777344 138.429688 179.789062 136.648438 179.445312 135.527344 C 179.191406 134.699219 173.925781 132.714844 170.539062 132.164062 C 167.953125 131.742188 166.671875 131.722656 164.359375 132.058594 M 137.246094 146.835938 C 134.21875 147.1875 128.648438 148.414062 128.226562 148.824219 C 127.929688 149.109375 128.488281 149.46875 130.199219 150.101562 C 131.804688 150.691406 134.707031 152.09375 136.195312 152.996094 C 137.160156 153.578125 142.523438 157.511719 143.105469 158.0625 C 144.21875 159.117188 146.128906 160.371094 147.375 160.859375 C 148.617188 161.351562 149.273438 161.421875 152.371094 161.410156 C 155.375 161.398438 156.257812 161.300781 157.953125 160.789062 C 160.457031 160.03125 160.726562 159.675781 159.933594 158.179688 C 158.058594 154.644531 153.949219 150.746094 150.078125 148.835938 C 146.054688 146.847656 142.257812 146.253906 137.246094 146.835938 " fill-opacity="1" fill-rule="evenodd"/><g fill="#00bf63" fill-opacity="1"><g transform="translate(120.669347, 199.809978)"><g><path d="M 11.78125 -20.296875 L 19.984375 0 L 15.015625 0 L 13.515625 -4.0625 L 5.78125 -4.0625 L 4.28125 0 L -0.6875 0 L 7.5 -20.296875 Z M 11.9375 -8.125 L 9.671875 -14.03125 L 9.625 -14.03125 L 7.359375 -8.125 Z M 11.9375 -8.125 "/></g></g></g><g fill="#00bf63" fill-opacity="1"><g transform="translate(139.964673, 199.809978)"><g><path d="M 1.46875 -20.296875 L 8.734375 -20.296875 C 10.691406 -20.296875 12.285156 -19.773438 13.515625 -18.734375 C 14.742188 -17.691406 15.359375 -16.203125 15.359375 -14.265625 C 15.359375 -12.773438 14.984375 -11.523438 14.234375 -10.515625 C 13.484375 -9.503906 12.472656 -8.796875 11.203125 -8.390625 L 18.1875 0 L 12.296875 0 L 6.109375 -8.015625 L 6.109375 0 L 1.46875 0 Z M 6.109375 -11.296875 L 6.640625 -11.296875 C 7.066406 -11.296875 7.425781 -11.300781 7.71875 -11.3125 C 8.019531 -11.332031 8.359375 -11.390625 8.734375 -11.484375 C 9.109375 -11.585938 9.410156 -11.726562 9.640625 -11.90625 C 9.867188 -12.09375 10.066406 -12.359375 10.234375 -12.703125 C 10.398438 -13.046875 10.484375 -13.460938 10.484375 -13.953125 C 10.484375 -14.441406 10.398438 -14.859375 10.234375 -15.203125 C 10.066406 -15.546875 9.867188 -15.804688 9.640625 -15.984375 C 9.410156 -16.171875 9.109375 -16.3125 8.734375 -16.40625 C 8.359375 -16.507812 8.019531 -16.566406 7.71875 -16.578125 C 7.425781 -16.597656 7.066406 -16.609375 6.640625 -16.609375 L 6.109375 -16.609375 Z M 6.109375 -11.296875 "/></g></g></g><g fill="#00bf63" fill-opacity="1"><g transform="translate(157.586427, 199.809978)"><g><path d="M 12.28125 -4.1875 C 12.988281 -4.1875 13.671875 -4.289062 14.328125 -4.5 C 14.992188 -4.71875 15.484375 -4.925781 15.796875 -5.125 L 16.265625 -5.4375 L 18.234375 -1.5 C 18.171875 -1.445312 18.082031 -1.378906 17.96875 -1.296875 C 17.851562 -1.222656 17.582031 -1.070312 17.15625 -0.84375 C 16.738281 -0.625 16.289062 -0.429688 15.8125 -0.265625 C 15.34375 -0.109375 14.722656 0.0351562 13.953125 0.171875 C 13.179688 0.304688 12.382812 0.375 11.5625 0.375 C 9.675781 0.375 7.890625 -0.0859375 6.203125 -1.015625 C 4.515625 -1.941406 3.148438 -3.21875 2.109375 -4.84375 C 1.078125 -6.46875 0.5625 -8.222656 0.5625 -10.109375 C 0.5625 -11.535156 0.863281 -12.90625 1.46875 -14.21875 C 2.082031 -15.53125 2.890625 -16.65625 3.890625 -17.59375 C 4.898438 -18.53125 6.078125 -19.273438 7.421875 -19.828125 C 8.773438 -20.390625 10.15625 -20.671875 11.5625 -20.671875 C 12.875 -20.671875 14.082031 -20.515625 15.1875 -20.203125 C 16.300781 -19.890625 17.085938 -19.578125 17.546875 -19.265625 L 18.234375 -18.796875 L 16.265625 -14.859375 C 16.148438 -14.960938 15.976562 -15.082031 15.75 -15.21875 C 15.519531 -15.363281 15.0625 -15.550781 14.375 -15.78125 C 13.6875 -16.007812 12.988281 -16.125 12.28125 -16.125 C 11.164062 -16.125 10.164062 -15.941406 9.28125 -15.578125 C 8.394531 -15.210938 7.691406 -14.734375 7.171875 -14.140625 C 6.648438 -13.554688 6.253906 -12.921875 5.984375 -12.234375 C 5.722656 -11.554688 5.59375 -10.863281 5.59375 -10.15625 C 5.59375 -8.613281 6.171875 -7.234375 7.328125 -6.015625 C 8.484375 -4.796875 10.132812 -4.1875 12.28125 -4.1875 Z M 12.28125 -4.1875 "/></g></g></g><g fill="#00bf63" fill-opacity="1"><g transform="translate(74.493873, 233.274124)"><g><path d="M 11.78125 -20.296875 L 19.984375 0 L 15.015625 0 L 13.515625 -4.0625 L 5.78125 -4.0625 L 4.28125 0 L -0.6875 0 L 7.5 -20.296875 Z M 11.9375 -8.125 L 9.671875 -14.03125 L 9.625 -14.03125 L 7.359375 -8.125 Z M 11.9375 -8.125 "/></g></g></g><g fill="#00bf63" fill-opacity="1"><g transform="translate(93.7892, 233.274124)"><g><path d="M 1.46875 -20.296875 L 8.734375 -20.296875 C 10.691406 -20.296875 12.285156 -19.773438 13.515625 -18.734375 C 14.742188 -17.691406 15.359375 -16.203125 15.359375 -14.265625 C 15.359375 -12.773438 14.984375 -11.523438 14.234375 -10.515625 C 13.484375 -9.503906 12.472656 -8.796875 11.203125 -8.390625 L 18.1875 0 L 12.296875 0 L 6.109375 -8.015625 L 6.109375 0 L 1.46875 0 Z M 6.109375 -11.296875 L 6.640625 -11.296875 C 7.066406 -11.296875 7.425781 -11.300781 7.71875 -11.3125 C 8.019531 -11.332031 8.359375 -11.390625 8.734375 -11.484375 C 9.109375 -11.585938 9.410156 -11.726562 9.640625 -11.90625 C 9.867188 -12.09375 10.066406 -12.359375 10.234375 -12.703125 C 10.398438 -13.046875 10.484375 -13.460938 10.484375 -13.953125 C 10.484375 -14.441406 10.398438 -14.859375 10.234375 -15.203125 C 10.066406 -15.546875 9.867188 -15.804688 9.640625 -15.984375 C 9.410156 -16.171875 9.109375 -16.3125 8.734375 -16.40625 C 8.359375 -16.507812 8.019531 -16.566406 7.71875 -16.578125 C 7.425781 -16.597656 7.066406 -16.609375 6.640625 -16.609375 L 6.109375 -16.609375 Z M 6.109375 -11.296875 "/></g></g></g><g fill="#00bf63" fill-opacity="1"><g transform="translate(111.410953, 233.274124)"><g><path d="M 1.46875 -20.296875 L 7.78125 -20.296875 C 9.675781 -20.296875 11.191406 -19.890625 12.328125 -19.078125 C 13.460938 -18.265625 14.03125 -16.953125 14.03125 -15.140625 C 14.03125 -13.097656 13.1875 -11.644531 11.5 -10.78125 C 14.382812 -10.269531 15.828125 -8.5625 15.828125 -5.65625 C 15.828125 -3.945312 15.234375 -2.578125 14.046875 -1.546875 C 12.867188 -0.515625 11.242188 0 9.171875 0 L 1.46875 0 Z M 6.109375 -12.359375 L 6.46875 -12.359375 C 7.5 -12.359375 8.269531 -12.535156 8.78125 -12.890625 C 9.289062 -13.253906 9.546875 -13.847656 9.546875 -14.671875 C 9.546875 -16.046875 8.519531 -16.734375 6.46875 -16.734375 L 6.109375 -16.734375 Z M 6.109375 -3.5625 L 7.5625 -3.5625 C 9.820312 -3.5625 10.953125 -4.316406 10.953125 -5.828125 C 10.953125 -6.734375 10.664062 -7.378906 10.09375 -7.765625 C 9.53125 -8.160156 8.6875 -8.359375 7.5625 -8.359375 L 6.109375 -8.359375 Z M 6.109375 -3.5625 "/></g></g></g><g fill="#00bf63" fill-opacity="1"><g transform="translate(127.802142, 233.274124)"><g><path d="M 0.5625 -10.15625 C 0.5625 -13.09375 1.5625 -15.578125 3.5625 -17.609375 C 5.570312 -19.648438 7.984375 -20.671875 10.796875 -20.671875 C 13.640625 -20.671875 16.050781 -19.65625 18.03125 -17.625 C 20.019531 -15.601562 21.015625 -13.113281 21.015625 -10.15625 C 21.015625 -7.1875 20.035156 -4.6875 18.078125 -2.65625 C 16.128906 -0.632812 13.703125 0.375 10.796875 0.375 C 7.828125 0.375 5.378906 -0.628906 3.453125 -2.640625 C 1.523438 -4.648438 0.5625 -7.15625 0.5625 -10.15625 Z M 5.5625 -10.15625 C 5.5625 -9.09375 5.722656 -8.125 6.046875 -7.25 C 6.378906 -6.375 6.953125 -5.628906 7.765625 -5.015625 C 8.585938 -4.410156 9.597656 -4.109375 10.796875 -4.109375 C 12.523438 -4.109375 13.828125 -4.695312 14.703125 -5.875 C 15.578125 -7.0625 16.015625 -8.488281 16.015625 -10.15625 C 16.015625 -11.820312 15.566406 -13.25 14.671875 -14.4375 C 13.785156 -15.625 12.492188 -16.21875 10.796875 -16.21875 C 9.128906 -16.21875 7.835938 -15.625 6.921875 -14.4375 C 6.015625 -13.25 5.5625 -11.820312 5.5625 -10.15625 Z M 5.5625 -10.15625 "/></g></g></g><g fill="#00bf63" fill-opacity="1"><g transform="translate(149.386325, 233.274124)"><g><path d="M 1.46875 -20.296875 L 8.734375 -20.296875 C 10.691406 -20.296875 12.285156 -19.773438 13.515625 -18.734375 C 14.742188 -17.691406 15.359375 -16.203125 15.359375 -14.265625 C 15.359375 -12.773438 14.984375 -11.523438 14.234375 -10.515625 C 13.484375 -9.503906 12.472656 -8.796875 11.203125 -8.390625 L 18.1875 0 L 12.296875 0 L 6.109375 -8.015625 L 6.109375 0 L 1.46875 0 Z M 6.109375 -11.296875 L 6.640625 -11.296875 C 7.066406 -11.296875 7.425781 -11.300781 7.71875 -11.3125 C 8.019531 -11.332031 8.359375 -11.390625 8.734375 -11.484375 C 9.109375 -11.585938 9.410156 -11.726562 9.640625 -11.90625 C 9.867188 -12.09375 10.066406 -12.359375 10.234375 -12.703125 C 10.398438 -13.046875 10.484375 -13.460938 10.484375 -13.953125 C 10.484375 -14.441406 10.398438 -14.859375 10.234375 -15.203125 C 10.066406 -15.546875 9.867188 -15.804688 9.640625 -15.984375 C 9.410156 -16.171875 9.109375 -16.3125 8.734375 -16.40625 C 8.359375 -16.507812 8.019531 -16.566406 7.71875 -16.578125 C 7.425781 -16.597656 7.066406 -16.609375 6.640625 -16.609375 L 6.109375 -16.609375 Z M 6.109375 -11.296875 "/></g></g></g><g fill="#00bf63" fill-opacity="1"><g transform="translate(167.008078, 233.274124)"><g><path d="M 6.109375 -20.296875 L 6.109375 0 L 1.46875 0 L 1.46875 -20.296875 Z M 6.109375 -20.296875 "/></g></g></g><g fill="#00bf63" fill-opacity="1"><g transform="translate(174.58839, 233.274124)"><g><path d="M 8.953125 -20.671875 C 10.054688 -20.671875 11.128906 -20.507812 12.171875 -20.1875 C 13.222656 -19.875 14.003906 -19.5625 14.515625 -19.25 L 15.25 -18.75 L 13.390625 -15.0625 C 13.242188 -15.15625 13.035156 -15.28125 12.765625 -15.4375 C 12.503906 -15.59375 12.015625 -15.800781 11.296875 -16.0625 C 10.578125 -16.332031 9.90625 -16.46875 9.28125 -16.46875 C 8.507812 -16.46875 7.910156 -16.300781 7.484375 -15.96875 C 7.066406 -15.644531 6.859375 -15.203125 6.859375 -14.640625 C 6.859375 -14.359375 6.957031 -14.097656 7.15625 -13.859375 C 7.351562 -13.628906 7.691406 -13.378906 8.171875 -13.109375 C 8.648438 -12.835938 9.066406 -12.617188 9.421875 -12.453125 C 9.785156 -12.285156 10.34375 -12.039062 11.09375 -11.71875 C 12.40625 -11.15625 13.523438 -10.394531 14.453125 -9.4375 C 15.378906 -8.476562 15.84375 -7.390625 15.84375 -6.171875 C 15.84375 -5.003906 15.632812 -3.988281 15.21875 -3.125 C 14.800781 -2.257812 14.226562 -1.578125 13.5 -1.078125 C 12.769531 -0.585938 11.960938 -0.222656 11.078125 0.015625 C 10.191406 0.253906 9.226562 0.375 8.1875 0.375 C 7.300781 0.375 6.429688 0.28125 5.578125 0.09375 C 4.734375 -0.0820312 4.019531 -0.304688 3.4375 -0.578125 C 2.863281 -0.847656 2.347656 -1.113281 1.890625 -1.375 C 1.429688 -1.632812 1.097656 -1.859375 0.890625 -2.046875 L 0.5625 -2.3125 L 2.875 -6.203125 C 3.070312 -6.035156 3.34375 -5.820312 3.6875 -5.5625 C 4.03125 -5.3125 4.640625 -4.972656 5.515625 -4.546875 C 6.398438 -4.117188 7.175781 -3.90625 7.84375 -3.90625 C 9.800781 -3.90625 10.78125 -4.570312 10.78125 -5.90625 C 10.78125 -6.1875 10.707031 -6.441406 10.5625 -6.671875 C 10.425781 -6.910156 10.179688 -7.148438 9.828125 -7.390625 C 9.472656 -7.628906 9.160156 -7.816406 8.890625 -7.953125 C 8.617188 -8.097656 8.175781 -8.3125 7.5625 -8.59375 C 6.945312 -8.882812 6.492188 -9.101562 6.203125 -9.25 C 4.972656 -9.851562 4.019531 -10.609375 3.34375 -11.515625 C 2.675781 -12.429688 2.34375 -13.414062 2.34375 -14.46875 C 2.34375 -16.289062 3.015625 -17.78125 4.359375 -18.9375 C 5.703125 -20.09375 7.234375 -20.671875 8.953125 -20.671875 Z M 8.953125 -20.671875 "/></g></g></g><g fill="#00bf63" fill-opacity="1"><g transform="translate(191.127254, 233.274124)"><g><path d="M 0.203125 -16.234375 L 0.203125 -20.296875 L 14.46875 -20.296875 L 14.46875 -16.234375 L 9.640625 -16.234375 L 9.640625 0 L 5.015625 0 L 5.015625 -16.234375 Z M 0.203125 -16.234375 "/></g></g></g><g fill="#00bf63" fill-opacity="1"><g transform="translate(205.795638, 233.274124)"><g><path d="M 8.953125 -20.671875 C 10.054688 -20.671875 11.128906 -20.507812 12.171875 -20.1875 C 13.222656 -19.875 14.003906 -19.5625 14.515625 -19.25 L 15.25 -18.75 L 13.390625 -15.0625 C 13.242188 -15.15625 13.035156 -15.28125 12.765625 -15.4375 C 12.503906 -15.59375 12.015625 -15.800781 11.296875 -16.0625 C 10.578125 -16.332031 9.90625 -16.46875 9.28125 -16.46875 C 8.507812 -16.46875 7.910156 -16.300781 7.484375 -15.96875 C 7.066406 -15.644531 6.859375 -15.203125 6.859375 -14.640625 C 6.859375 -14.359375 6.957031 -14.097656 7.15625 -13.859375 C 7.351562 -13.628906 7.691406 -13.378906 8.171875 -13.109375 C 8.648438 -12.835938 9.066406 -12.617188 9.421875 -12.453125 C 9.785156 -12.285156 10.34375 -12.039062 11.09375 -11.71875 C 12.40625 -11.15625 13.523438 -10.394531 14.453125 -9.4375 C 15.378906 -8.476562 15.84375 -7.390625 15.84375 -6.171875 C 15.84375 -5.003906 15.632812 -3.988281 15.21875 -3.125 C 14.800781 -2.257812 14.226562 -1.578125 13.5 -1.078125 C 12.769531 -0.585938 11.960938 -0.222656 11.078125 0.015625 C 10.191406 0.253906 9.226562 0.375 8.1875 0.375 C 7.300781 0.375 6.429688 0.28125 5.578125 0.09375 C 4.734375 -0.0820312 4.019531 -0.304688 3.4375 -0.578125 C 2.863281 -0.847656 2.347656 -1.113281 1.890625 -1.375 C 1.429688 -1.632812 1.097656 -1.859375 0.890625 -2.046875 L 0.5625 -2.3125 L 2.875 -6.203125 C 3.070312 -6.035156 3.34375 -5.820312 3.6875 -5.5625 C 4.03125 -5.3125 4.640625 -4.972656 5.515625 -4.546875 C 6.398438 -4.117188 7.175781 -3.90625 7.84375 -3.90625 C 9.800781 -3.90625 10.78125 -4.570312 10.78125 -5.90625 C 10.78125 -6.1875 10.707031 -6.441406 10.5625 -6.671875 C 10.425781 -6.910156 10.179688 -7.148438 9.828125 -7.390625 C 9.472656 -7.628906 9.160156 -7.816406 8.890625 -7.953125 C 8.617188 -8.097656 8.175781 -8.3125 7.5625 -8.59375 C 6.945312 -8.882812 6.492188 -9.101562 6.203125 -9.25 C 4.972656 -9.851562 4.019531 -10.609375 3.34375 -11.515625 C 2.675781 -12.429688 2.34375 -13.414062 2.34375 -14.46875 C 2.34375 -16.289062 3.015625 -17.78125 4.359375 -18.9375 C 5.703125 -20.09375 7.234375 -20.671875 8.953125 -20.671875 Z M 8.953125 -20.671875 "/></g></g></g></svg>