<?xml version="1.0" encoding="UTF-8" standalone="no"?>
<svg
   width="200"
   zoomAndPan="magnify"
   viewBox="0 0 150 150"
   height="200"
   preserveAspectRatio="xMidYMid meet"
   version="1.0"
   id="svg127"
   sodipodi:docname="calender.svg"
   inkscape:version="1.1.2 (0a00cf5339, 2022-02-04)"
   xmlns:inkscape="http://www.inkscape.org/namespaces/inkscape"
   xmlns:sodipodi="http://sodipodi.sourceforge.net/DTD/sodipodi-0.dtd"
   xmlns="http://www.w3.org/2000/svg"
   xmlns:svg="http://www.w3.org/2000/svg">
  <sodipodi:namedview
     id="namedview129"
     pagecolor="#ffffff"
     bordercolor="#000000"
     borderopacity="0.25"
     inkscape:pageshadow="2"
     inkscape:pageopacity="0.0"
     inkscape:pagecheckerboard="0"
     showgrid="false"
     inkscape:zoom="1.564"
     inkscape:cx="41.879795"
     inkscape:cy="147.05882"
     inkscape:window-width="1473"
     inkscape:window-height="991"
     inkscape:window-x="26"
     inkscape:window-y="23"
     inkscape:window-maximized="0"
     inkscape:current-layer="svg127"
     showguides="false" />
  <defs
     id="defs121">
    <clipPath
       id="427ee09f17">
      <path
         d="m 112.5,112.5 h 150 v 150 h -150 z m 0,0"
         clip-rule="nonzero"
         id="path118" />
    </clipPath>
    <clipPath
       id="2b00341dff">
      <path
         d="m 102.36328,115 h 150 v 134 h -150 z m 0,0"
         clip-rule="nonzero"
         id="path152" />
    </clipPath>
    <clipPath
       id="8b313ae450">
      <path
         d="m 112.5,108.67188 h 150 v 149.99999 h -150 z m 0,0"
         clip-rule="nonzero"
         id="path165" />
    </clipPath>
    <clipPath
       id="98a2588194">
      <path
         d="m 103,103.49219 h 149.92969 v 150 H 103 Z m 0,0"
         clip-rule="nonzero"
         id="path25" />
    </clipPath>
    <clipPath
       id="957642901b">
      <path
         d="m 112.5,119.25781 h 150 v 150 h -150 z m 0,0"
         clip-rule="nonzero"
         id="path178" />
    </clipPath>
  </defs>
  <path
     fill="#16a34a"
     d="m 32.445554,2.0327962 c -0.893098,0.3140096 -2.030884,1.137776 -3.237991,2.344883 -2.434603,2.438685 -2.879111,3.73143 -2.879111,8.3274048 v 3.445963 l -7.723856,0.08968 -7.723846,0.09375 -2.0512727,0.970572 C 6.2235982,18.540709 4.2171854,20.547111 2.9815359,23.153 L 2.010954,25.204261 V 129.50075 l 0.9705819,2.04719 c 1.2356495,2.60996 3.2420623,4.61638 5.8479414,5.85203 l 2.0512727,0.97058 36.372251,0.0775 36.37225,0.0815 0.713668,-0.6688 c 0.9665,-0.90942 0.970582,-2.65482 0.01221,-3.56016 l -0.701432,-0.65657 -35.617816,-0.0856 -35.621887,-0.0815 -1.680157,-0.94611 C 8.7397469,131.41337 7.2512443,129.24385 6.9494702,127.01723 6.8393611,126.23424 6.7537231,108.68225 6.7537231,88.014613 V 50.435256 H 143.77668 v 42.713642 l 0.7055,0.664725 c 0.97058,0.913487 2.64259,0.893098 3.52345,-0.04489 l 0.6688,-0.713657 -0.0775,-33.925423 -0.0815,-33.925412 -0.97058,-2.051262 c -1.23566,-2.60589 -3.24206,-4.612292 -5.84795,-5.847952 l -2.05126,-0.970572 -7.72386,-0.09375 -7.71977,-0.08968 v -3.445963 c 0,-4.5959746 -0.44859,-5.8887197 -2.88319,-8.3233227 -2.18176,-2.1817709 -3.85785,-2.8831927 -6.90416,-2.8831927 -3.05039,0 -4.72648,0.7014218 -6.90825,2.8831927 -2.4346,2.434603 -2.87911,3.7232661 -2.87911,8.3355587 v 3.46228 H 85.052608 v -3.46228 c 0,-4.6122926 -0.44859,-5.9009557 -2.883193,-8.3355587 -2.18176,-2.1817709 -3.857846,-2.8831927 -6.904161,-2.8831927 -3.050387,0 -4.726473,0.7014218 -6.908244,2.8831927 -2.434603,2.434603 -2.87911,3.7232661 -2.87911,8.3355587 v 3.46228 H 45.903192 v -3.46228 c 0,-4.6122926 -0.44859,-5.9009557 -2.883193,-8.3355587 C 41.715018,3.0767597 40.711822,2.3712559 39.65152,2.0123863 37.767452,1.3721211 34.292947,1.380285 32.445585,2.032744 m 2.479463,4.669377 c -1.398783,0.3303271 -3.070786,2.0594263 -3.413338,3.539765 -0.362952,1.570049 -0.35887,15.219331 0.0042,16.797543 0.338481,1.468103 1.916693,3.03408 3.498977,3.470434 2.365282,0.65249 5.032339,-0.990971 5.660358,-3.486741 0.444508,-1.765806 0.436354,-15.190788 -0.0084,-16.797554 -0.391494,-1.4110072 -2.353047,-3.5275186 -3.270615,-3.5275186 -0.33847,0 -0.803377,-0.053034 -1.027667,-0.1182625 -0.224289,-0.069321 -0.872708,-0.012215 -1.443632,0.1223341 m 39.149416,0 c -1.398782,0.3303271 -3.070786,2.0594263 -3.413338,3.539765 -0.362952,1.570049 -0.35887,15.219331 0.0042,16.797543 0.33848,1.468103 1.916693,3.03408 3.498976,3.470434 2.365283,0.65249 5.032339,-0.990971 5.660359,-3.486741 0.444507,-1.765806 0.436354,-15.190788 -0.0084,-16.797554 -0.391494,-1.4110072 -2.353047,-3.5275186 -3.270616,-3.5275186 -0.33847,0 -0.803377,-0.053034 -1.027667,-0.1182625 C 75.293619,6.5104663 74.6452,6.5675723 74.074276,6.702121 m 39.149414,0 c -1.39878,0.3303271 -3.07079,2.0594263 -3.41334,3.539765 -0.36295,1.570049 -0.35887,15.219331 0.004,16.797543 0.33848,1.468103 1.91669,3.03408 3.49897,3.470434 2.36528,0.65249 5.03234,-0.990971 5.66036,-3.486741 0.44451,-1.765806 0.43635,-15.190788 -0.008,-16.797554 -0.3915,-1.4110072 -2.35305,-3.5275186 -3.27062,-3.5275186 -0.33847,0 -0.80337,-0.053034 -1.02766,-0.1182625 -0.22429,-0.069321 -0.87271,-0.012215 -1.44364,0.1223341 M 12.801264,21.366845 c -1.953389,0.379259 -3.8986242,1.826973 -4.9466906,3.682489 L 6.9043805,26.733573 6.8065591,36.137597 6.7045619,45.54161 H 143.77645 v -8.213224 c 0,-4.51849 -0.0897,-8.85755 -0.19575,-9.64462 -0.30586,-2.222549 -1.79435,-4.392074 -3.78036,-5.509461 l -1.68424,-0.946111 -13.91436,-0.212065 v 3.490823 c 0,4.644917 -0.44451,5.925426 -2.88319,8.368193 -2.18176,2.181761 -3.85785,2.879111 -6.90417,2.879111 -3.05038,0 -4.72647,-0.69735 -6.90824,-2.879111 -2.4346,-2.438685 -2.87911,-3.727358 -2.87911,-8.33965 v -3.46227 H 85.052326 v 3.46227 c 0,4.612292 -0.44859,5.900965 -2.883193,8.33965 -2.18176,2.181761 -3.857846,2.879111 -6.904161,2.879111 -3.050387,0 -4.726473,-0.69735 -6.908243,-2.879111 -2.434603,-2.438685 -2.879111,-3.727358 -2.879111,-8.33965 v -3.46227 H 45.90291 v 3.46227 c 0,4.612292 -0.44859,5.900965 -2.883193,8.33965 -2.18176,2.181761 -3.857846,2.879111 -6.904161,2.879111 -3.050387,0 -4.726473,-0.69735 -6.908244,-2.879111 -2.434603,-2.438685 -2.87911,-3.727358 -2.87911,-8.33965 v -3.46227 l -6.194576,0.03675 c -3.409267,0.02036 -6.708414,0.13458 -7.332362,0.256925 m 10.859881,41.942889 c -2.018638,1.296827 -2.22662,2.034955 -2.22662,7.923674 0,5.913201 0.216136,6.667637 2.267408,7.939993 0.937947,0.579087 1.496646,0.623947 7.519946,0.623947 6.019228,0 6.577916,-0.04489 7.515873,-0.623947 2.051263,-1.272356 2.271481,-2.026792 2.271481,-7.939993 0,-5.909108 -0.220218,-6.667636 -2.271481,-7.93591 -0.942029,-0.583159 -1.488492,-0.628019 -7.552569,-0.619866 -6.076324,0.0042 -6.610552,0.04896 -7.524038,0.632102 m 29.362062,0 c -2.018638,1.296827 -2.22662,2.034955 -2.22662,7.923674 0,5.913201 0.216136,6.667637 2.267409,7.939993 0.937947,0.579087 1.496645,0.623947 7.519945,0.623947 6.019228,0 6.577916,-0.04489 7.515873,-0.623947 2.051263,-1.272356 2.271481,-2.026792 2.271481,-7.939993 0,-5.909108 -0.220218,-6.667636 -2.271481,-7.93591 -0.942028,-0.583159 -1.488492,-0.628019 -7.552569,-0.619866 -6.076324,0.0042 -6.610551,0.04896 -7.524038,0.632102 m 29.362062,0 c -2.018637,1.296827 -2.22662,2.034955 -2.22662,7.923674 0,5.913201 0.216136,6.667637 2.267409,7.939993 0.937947,0.579087 1.496646,0.623947 7.519945,0.623947 6.019228,0 6.577916,-0.04489 7.515874,-0.623947 2.051262,-1.272356 2.27148,-2.026792 2.27148,-7.939993 0,-5.909108 -0.220218,-6.667636 -2.27148,-7.93591 -0.942029,-0.583159 -1.488492,-0.628019 -7.55257,-0.619866 -6.076323,0.0042 -6.610551,0.04896 -7.524038,0.632102 m 29.362061,0 c -2.01864,1.296827 -2.22662,2.034955 -2.22662,7.923674 0,5.913201 0.21613,6.667637 2.26741,7.939993 0.93794,0.579087 1.49664,0.623947 7.51994,0.623947 6.01923,0 6.57792,-0.04489 7.51587,-0.623947 2.05127,-1.272356 2.27149,-2.026792 2.27149,-7.939993 0,-5.909108 -0.22022,-6.667636 -2.27149,-7.93591 -0.94202,-0.583159 -1.48849,-0.628019 -7.55256,-0.619866 -6.07633,0.0042 -6.61056,0.04896 -7.52404,0.632102 m -85.419128,7.923674 v 3.670263 h 9.787354 v -7.340515 h -9.787354 z m 29.362062,0 v 3.670263 h 9.787354 v -7.340515 h -9.787354 z m 29.362062,0 v 3.670263 h 9.787354 v -7.340515 h -9.787354 z m 29.362054,0 v 3.670263 h 9.78736 v -7.340515 h -9.78736 z m -90.753235,14.09787 c -2.018638,1.296827 -2.22662,2.034956 -2.22662,7.923675 0,5.913201 0.216136,6.667636 2.267408,7.939992 0.937947,0.57909 1.496646,0.62395 7.519946,0.62395 6.019228,0 6.577916,-0.0449 7.515873,-0.62395 2.051263,-1.272356 2.271481,-2.026791 2.271481,-7.939992 0,-5.909108 -0.220218,-6.667636 -2.271481,-7.93591 -0.942029,-0.583159 -1.488492,-0.628019 -7.552569,-0.619866 -6.076324,0.0042 -6.610552,0.04896 -7.524038,0.632101 m 29.362062,0 c -2.018638,1.296827 -2.22662,2.034956 -2.22662,7.923675 0,5.913201 0.216136,6.667636 2.267409,7.939992 0.937947,0.57909 1.496645,0.62395 7.519945,0.62395 6.019228,0 6.577916,-0.0449 7.515873,-0.62395 2.051263,-1.272356 2.271481,-2.026791 2.271481,-7.939992 0,-5.909108 -0.220218,-6.667636 -2.271481,-7.93591 -0.942028,-0.583159 -1.488492,-0.628019 -7.552569,-0.619866 -6.076324,0.0042 -6.610551,0.04896 -7.524038,0.632101 m 29.362062,0 c -2.018637,1.296827 -2.22662,2.034956 -2.22662,7.923675 0,4.791732 0.05711,5.374891 0.623948,6.296531 1.965624,3.176811 6.716568,3.021841 6.716568,-0.220207 0,-1.162258 -0.999125,-2.406061 -1.933,-2.406061 -0.456743,0 -0.513839,-0.432272 -0.513839,-3.670263 v -3.670252 h 5.448294 c 5.30556,0 5.472765,-0.01629 6.117101,-0.705504 0.913487,-0.970582 0.893098,-2.642586 -0.04082,-3.523448 -0.681032,-0.636183 -0.958335,-0.664725 -6.957174,-0.656572 -5.786775,0.0042 -6.325074,0.04896 -7.234489,0.632101 m 28.815602,-0.285467 c -6.53713,1.227496 -12.022131,4.143313 -16.838323,8.959506 -6.321003,6.320998 -9.310222,13.559568 -9.310222,22.535388 0,8.60064 2.911735,15.85959 8.85756,22.0868 6.051842,6.33323 13.975525,9.68132 22.910555,9.68132 8.95136,0 16.23069,-3.00554 22.53539,-9.31022 6.30877,-6.31285 9.31429,-13.56364 9.31429,-22.49868 0,-8.93096 -3.00145,-16.17769 -9.31429,-22.49868 -4.81619,-4.824356 -10.05652,-7.6219 -16.63443,-8.877949 -2.50393,-0.481214 -9.13078,-0.521992 -11.52053,-0.07746 m -84.87267,8.209142 v 3.670263 h 9.787354 v -7.34052 H 26.32817 Z m 29.362062,0 v 3.670263 h 9.787355 v -7.34052 H 55.690232 Z M 114.2023,89.947718 c -11.21468,0.884943 -21.177389,9.836296 -23.534507,21.152922 -0.579088,2.77308 -0.579088,8.03787 -0.0042,10.79871 2.153218,10.28896 10.513247,18.64899 20.789967,20.79405 1.19896,0.24877 3.62949,0.45268 5.40752,0.45268 1.77396,0 4.20449,-0.20391 5.40343,-0.45268 10.27265,-2.14098 18.64492,-10.51324 20.7859,-20.77773 0.54238,-2.60181 0.59539,-7.64229 0.11011,-10.3175 -2.12468,-11.716283 -12.54005,-20.977563 -24.46432,-21.760551 -0.92571,-0.06118 -2.94843,-0.0084 -4.49402,0.110099 m 7.49956,25.239152 -9.72619,9.69355 -4.55926,-4.49403 c -4.19633,-4.14331 -4.64492,-4.4981 -5.67667,-4.4981 -1.47626,0 -2.622196,1.10515 -2.60996,2.51209 0.0084,0.88901 0.672879,1.68424 5.78677,6.89601 5.72968,5.8357 5.79085,5.88464 7.09175,5.88464 h 1.31721 l 10.94183,-10.94147 c 10.51324,-10.51324 10.94553,-10.99037 10.94553,-12.09554 0,-1.56597 -1.08478,-2.65482 -2.64259,-2.65482 -1.08884,0 -1.58636,0.44451 -10.86804,9.69765 m -98.040748,-7.83397 c -2.018638,1.29683 -2.226621,2.03496 -2.226621,7.92368 0,5.9132 0.216136,6.66763 2.267409,7.93999 0.937947,0.57909 1.496646,0.62395 7.519945,0.62395 6.019228,0 6.577916,-0.0449 7.515874,-0.62395 2.051262,-1.27236 2.27148,-2.02679 2.27148,-7.93999 0,-5.90911 -0.220218,-6.66764 -2.27148,-7.93591 -0.942029,-0.58316 -1.488492,-0.62802 -7.55257,-0.61987 -6.076323,0.004 -6.610551,0.049 -7.524037,0.6321 m 29.362062,0 c -2.018638,1.29683 -2.226621,2.03496 -2.226621,7.92368 0,5.9132 0.216136,6.66763 2.267409,7.93999 0.937947,0.57909 1.496646,0.62395 7.519945,0.62395 6.019228,0 6.577917,-0.0449 7.515874,-0.62395 2.051262,-1.27236 2.27148,-2.02679 2.27148,-7.93999 0,-5.90911 -0.220218,-6.66764 -2.27148,-7.93591 -0.942029,-0.58316 -1.488492,-0.62802 -7.55257,-0.61987 -6.076323,0.004 -6.610551,0.049 -7.524037,0.6321 m -26.695006,7.92368 v 3.67026 h 9.787354 v -7.34052 h -9.787354 z m 29.362062,0 v 3.67026 h 9.787354 V 111.6063 H 55.69049 Z m 0,0"
     fill-opacity="1"
     fill-rule="evenodd"
     id="path144"
     style="stroke-width:1.04398" />
</svg>
