<?xml version="1.0" encoding="UTF-8" standalone="no"?>
<svg
   width="200"
   zoomAndPan="magnify"
   viewBox="0 0 150 150"
   height="200"
   preserveAspectRatio="xMidYMid meet"
   version="1.0"
   id="svg127"
   sodipodi:docname="chainsaw.svg"
   inkscape:version="1.1.2 (0a00cf5339, 2022-02-04)"
   xmlns:inkscape="http://www.inkscape.org/namespaces/inkscape"
   xmlns:sodipodi="http://sodipodi.sourceforge.net/DTD/sodipodi-0.dtd"
   xmlns="http://www.w3.org/2000/svg"
   xmlns:svg="http://www.w3.org/2000/svg">
  <sodipodi:namedview
     id="namedview129"
     pagecolor="#ffffff"
     bordercolor="#000000"
     borderopacity="0.25"
     inkscape:pageshadow="2"
     inkscape:pageopacity="0.0"
     inkscape:pagecheckerboard="0"
     showgrid="false"
     inkscape:zoom="1.564"
     inkscape:cx="41.879795"
     inkscape:cy="147.05882"
     inkscape:window-width="1473"
     inkscape:window-height="991"
     inkscape:window-x="26"
     inkscape:window-y="23"
     inkscape:window-maximized="0"
     inkscape:current-layer="svg127" />
  <defs
     id="defs121">
    <clipPath
       id="427ee09f17">
      <path
         d="m 112.5,112.5 h 150 v 150 h -150 z m 0,0"
         clip-rule="nonzero"
         id="path118" />
    </clipPath>
    <clipPath
       id="2b00341dff">
      <path
         d="m 102.36328,115 h 150 v 134 h -150 z m 0,0"
         clip-rule="nonzero"
         id="path152" />
    </clipPath>
    <clipPath
       id="8b313ae450">
      <path
         d="m 112.5,108.67188 h 150 v 149.99999 h -150 z m 0,0"
         clip-rule="nonzero"
         id="path165" />
    </clipPath>
    <clipPath
       id="98a2588194">
      <path
         d="m 103,103.49219 h 149.92969 v 150 H 103 Z m 0,0"
         clip-rule="nonzero"
         id="path25" />
    </clipPath>
  </defs>
  <g
     clip-path="url(#98a2588194)"
     id="g32"
     transform="matrix(0.97139062,0,0,0.97139062,-98.448815,-97.502844)">
    <path
       fill="#16a34a"
       d="m 227.22266,103.91797 c -2.5625,0.80078 -5.26172,3.04687 -6.23829,5.19141 -0.30078,0.66015 -0.57031,0.76953 -2.3164,0.93359 -1.08594,0.0977 -2.75391,0.42578 -3.70703,0.72266 l -1.73047,0.53906 -3.27344,-3.17578 c -2.90625,-2.81641 -3.38672,-3.17188 -4.30859,-3.17188 -0.80469,0 -1.26172,0.23438 -2.07422,1.07031 -2.94531,3.03125 -3.72266,7.94922 -1.91016,12.05079 l 0.60156,1.35546 -1.90625,1.90235 -1.90625,1.90625 -2.60937,-2.55078 c -1.82422,-1.78907 -2.8125,-2.54688 -3.30469,-2.54297 -3.02344,0.0469 -5.88672,6.14453 -4.96094,10.58984 0.1836,0.89844 0.59766,2.14063 0.91407,2.76172 l 0.57422,1.12891 -3.79688,3.79687 -2.44141,-2.38672 c -2.5664,-2.5039 -3.51953,-2.99609 -4.65234,-2.41015 -1.65234,0.85546 -3.60156,4.28906 -3.92969,6.92578 -0.22656,1.82812 0.25391,4.69531 1.05469,6.26172 l 0.53906,1.05859 -1.96484,1.95312 -1.96875,1.95313 -2.33594,-2.37109 c -1.28515,-1.30079 -2.63281,-2.48438 -2.99609,-2.62891 -2.35938,-0.93359 -5.63672,3.93359 -5.63672,8.36719 0,1.60937 0.66797,4.24218 1.33984,5.26562 0.37891,0.57813 0.29688,0.73438 -1.17578,2.1875 l -1.58203,1.5625 -1.07031,-0.66015 c -3.08594,-1.91016 -6.3125,-2.9375 -9.39063,-2.98829 -1.03906,-0.0195 -1.89062,-0.0664 -1.89062,-0.10156 0,-0.0391 -0.66406,-3.35156 -1.47266,-7.35547 -1.62109,-8.01172 -2.52344,-10.48047 -4.94922,-13.49609 -3.64062,-4.53125 -10.09375,-7.38672 -15.84375,-7.01563 -10.17578,0.65625 -17.9414,8.94532 -17.90234,19.10938 0.008,1.84375 0.73438,6.08984 3.12109,18.18359 1.71094,8.67578 3.1836,16.20703 3.26954,16.73438 0.15234,0.88672 -0.0312,1.15625 -2.47266,3.67969 -3.19141,3.29687 -3.96875,4.9414 -3.96875,8.40234 0,3.16016 0.81641,5.08984 3.23437,7.65234 l 1.91797,2.03516 -3.61328,7.82422 c -4.73437,10.26953 -5.2539,11.76562 -5.26172,15.16406 -0.008,4.03125 0.98438,7.29297 3.25,10.68359 0.59375,0.88672 3.10157,3.60157 5.57422,6.03125 3.82031,3.75391 4.83203,4.58204 6.69922,5.48829 2.95703,1.4375 5.17188,1.95703 8.33594,1.95312 4.05859,-0.008 7.59765,-1.07812 10.80078,-3.26172 0.51172,-0.34765 13.75,-13.42969 29.41797,-29.07422 l 28.49218,-28.4414 2.26954,2.25 c 3.29687,3.26172 4.26171,3.45312 6.21484,1.22656 1.70312,-1.94141 2.44531,-4.01172 2.46484,-6.85547 0.0117,-2.03125 -0.12109,-2.82422 -0.73437,-4.30078 l -0.75,-1.80859 3.88281,-3.85157 2.47656,2.48828 c 2.1836,2.19922 2.59766,2.49219 3.51953,2.49219 2.08594,0 4.52735,-3.69531 4.8711,-7.37109 0.1875,-2 -0.41016,-5.04688 -1.21485,-6.19531 -0.41796,-0.59766 -0.33984,-0.72657 1.52344,-2.60938 l 1.96485,-1.97656 2.53906,2.48437 c 2.09375,2.04297 2.70312,2.48438 3.45703,2.48438 1.30078,0 2.98437,-1.62891 4.01953,-3.87891 0.73828,-1.61328 0.83984,-2.16797 0.83594,-4.61719 -0.004,-2.28906 -0.12891,-3.0625 -0.69922,-4.34375 l -0.69141,-1.55859 1.85547,-1.87109 1.85547,-1.875 2.57422,2.48047 c 2.07422,2 2.74219,2.48046 3.46094,2.48046 1.26562,0 2.96875,-1.65234 3.99609,-3.8789 0.74609,-1.61719 0.84766,-2.16797 0.84766,-4.61719 0,-2.44531 -0.10157,-3.00391 -0.83985,-4.60156 -0.46093,-0.9961 -1.0664,-2.01953 -1.34375,-2.27344 -0.48047,-0.43359 -0.47265,-0.58594 0.16797,-2.79297 0.3711,-1.28515 0.76563,-3.51562 0.875,-4.95312 l 0.19531,-2.61719 2.92579,-0.81641 c 1.61328,-0.44922 3.24218,-1.0625 3.625,-1.36328 1.96093,-1.54297 -0.44922,-6.67968 -4.16407,-8.8789 -1.63281,-0.96485 -3.78515,-1.57813 -5.54297,-1.58594 -1.34765,-0.004 -1.51953,-0.0898 -2.17578,-1.05078 -0.93359,-1.3711 -3.82422,-3.87891 -6.39843,-5.55078 -0.043,-0.0273 0.2539,-1.45313 0.66015,-3.16797 0.40625,-1.71485 0.73828,-3.50781 0.73828,-3.98828 0,-1.03907 -0.86328,-1.92969 -2.10937,-2.17578 -1.46875,-0.29688 -4.39844,-0.16797 -5.72656,0.24609 m 0.48828,4.83984 c -0.57422,0.30469 -1.20703,0.7461 -1.40235,0.98047 -0.29687,0.35938 -0.11718,0.48438 1.14453,0.78906 1.70313,0.40625 1.91016,0.28907 2.19532,-1.25 0.17187,-0.94921 0.125,-1.09765 -0.34375,-1.08593 -0.30078,0.008 -1.01563,0.26172 -1.59375,0.5664 m -22.14453,2.81641 c -0.26954,1.01172 -0.26954,3.06641 0,3.76172 0.16406,0.4375 0.35937,0.3789 1.53515,-0.46485 0.73828,-0.53125 1.39063,-1.04687 1.45313,-1.14453 0.0586,-0.0977 -0.53516,-0.8125 -1.32422,-1.58984 l -1.4375,-1.41406 z m 14.84375,2.97266 c -3.17188,0.21875 -6.6836,1.46093 -9.35938,3.30468 -0.89453,0.61719 -12.07812,11.58203 -24.85156,24.36719 l -23.22266,23.24609 1.76563,1.7461 1.76172,1.74218 23.51171,-23.47265 c 18.23438,-18.20703 23.83594,-23.63672 24.97266,-24.20313 5.93359,-2.95703 12.27344,-1.96484 16.73047,2.6211 4.16797,4.28906 4.89062,11.20703 1.74219,16.67968 -1.00391,1.7461 -35.29688,36.2461 -36.54297,36.76172 -1.54688,0.64063 -3.16797,-0.60547 -3.16797,-2.44531 0,-0.44922 5.14844,-5.79687 17.69141,-18.36719 11.93359,-11.95703 17.89843,-18.14062 18.32031,-18.98437 1.86328,-3.73047 1.0664,-8.28125 -1.91016,-10.89453 -1.74609,-1.53125 -3.28515,-2.14844 -5.71484,-2.29297 -4.26953,-0.25781 -2.6211,-1.66016 -28.98828,24.70312 l -23.27344,23.27735 6.43359,6.4414 6.4336,6.4375 3.11718,-3.07031 c 2.64454,-2.60547 3.25391,-3.06641 4.05079,-3.06641 1.08984,0 2.375,1.10938 2.375,2.05469 0,1.04297 -0.54688,1.79297 -3.40625,4.69141 l -2.75,2.78906 1.76562,1.74609 1.76563,1.75 23.40234,-23.4375 c 15.84766,-15.86718 23.75,-23.98828 24.48437,-25.14843 1.42969,-2.26563 2.39063,-5.09766 2.77344,-8.16407 1.08594,-8.74999 -4.15625,-16.99999 -12.62109,-19.87109 -1.85547,-0.6289 -5.32031,-1.07812 -7.28906,-0.9414 m -28.13282,10.64843 c -0.34375,1.27735 -0.22656,3.08203 0.23047,3.53906 0.13281,0.13282 0.79688,-0.32421 1.47266,-1.01171 l 1.23437,-1.25782 -2.59375,-2.54687 z m 51.79688,0.85547 c 0.5,1.5586 0.78515,1.69922 2.18359,1.08594 0.94141,-0.41797 0.8125,-0.71484 -0.76953,-1.78125 -1.72266,-1.16406 -1.96875,-1.04297 -1.41406,0.69531 m -28.35156,4.56641 c -4.5,1.94922 -5.34766,8.09765 -1.54688,11.23047 2.03906,1.68359 4.61719,1.9414 7.08203,0.71484 4.17188,-2.08203 4.98047,-7.49609 1.59375,-10.71094 -1.73437,-1.64453 -4.91015,-2.19531 -7.1289,-1.23437 m 1.17968,4.86328 c -0.78906,0.84765 -0.7539,1.74609 0.10547,2.55078 0.90625,0.85156 2.125,0.72656 2.89063,-0.30078 1.41406,-1.90235 -1.36719,-3.9961 -2.9961,-2.25 m -94.43359,0.11328 c -4.51953,1.09375 -8.61328,4.97656 -10.16797,9.64453 -1.12109,3.38281 -0.96875,4.86328 2.17969,20.80078 1.55859,7.89453 2.90625,14.60156 2.99609,14.90625 0.13282,0.44922 0.64844,0.0625 2.91407,-2.1914 1.51562,-1.50782 2.7539,-2.94141 2.7539,-3.17969 0,-0.24219 -1.07422,-5.84766 -2.3789,-12.45703 -1.3086,-6.60938 -2.38672,-12.76172 -2.39454,-13.67188 -0.0273,-3.13281 2.07032,-6.07812 5.07422,-7.14062 3.50391,-1.23438 7.64453,0.41797 9.27344,3.70312 0.43359,0.8711 1.96094,8.03906 4.77344,22.375 2.79297,14.22266 4.30859,21.33203 4.65625,21.82813 0.71484,1.01953 2.50781,1.86328 3.45312,1.625 0.41797,-0.10547 1.14063,-0.57032 1.60156,-1.03125 0.69532,-0.69532 0.83985,-1.08985 0.83985,-2.25782 -0.004,-0.77734 -1.84375,-10.76171 -4.08985,-22.1875 -3.67187,-18.66015 -4.19531,-20.99609 -5.125,-22.95312 -2.86718,-6.03516 -9.8789,-9.38281 -16.35937,-7.8125 m 56.62891,2.47266 c -0.36329,0.67578 -0.28125,3.61718 0.10937,4.00781 0.11328,0.11328 0.75781,-0.34766 1.4375,-1.02344 l 1.23047,-1.23047 -2.42188,-2.42187 z m -55.08203,9.33203 c -0.46485,0.46484 -0.91797,1.15625 -1.00782,1.53906 -0.14062,0.58984 3.99219,22.375 4.30469,22.6875 0.0586,0.0586 1.23437,-1.03906 2.61328,-2.44531 l 2.50391,-2.55469 -1.83203,-9.21875 c -1.78125,-8.96484 -1.85938,-9.24219 -2.74219,-10.03516 -1.25781,-1.12109 -2.70313,-1.10937 -3.83984,0.0273 m 115.93749,0.82422 -1.10546,1.36718 1.24609,1.27344 c 1.07422,1.09375 1.27734,1.19922 1.45312,0.75391 0.4336,-1.09375 0.20313,-4.76953 -0.29687,-4.76563 -0.10547,0 -0.6875,0.61719 -1.29688,1.3711 m -74.14453,3.09375 c -0.23437,0.875 -0.19922,3.16406 0.0625,3.8164 0.17578,0.44531 0.39063,0.32813 1.50391,-0.80469 l 1.29687,-1.32421 -1.14453,-1.17188 c -0.6289,-0.64453 -1.23437,-1.17187 -1.34375,-1.17187 -0.10937,0 -0.27734,0.29687 -0.375,0.65625 m 61.10938,10.26171 -1.23828,1.26563 1.18359,1.15625 c 1.40625,1.37109 1.75,1.13672 1.72266,-1.18359 -0.0273,-2.53125 -0.24219,-2.69141 -1.66797,-1.23829 m -78.76172,2.09375 c 1.01562,4.16407 4.625,23.60938 4.63281,24.97657 0.0469,5.66797 -5.80859,9.41406 -11.13281,7.125 -1.87891,-0.8086 -3.66406,-2.74219 -4.27734,-4.63282 -0.2461,-0.7539 -1.19532,-5.25781 -2.11329,-10.01171 -0.91406,-4.75391 -1.71484,-8.70313 -1.77734,-8.77735 -0.23047,-0.26953 -20.37109,20.10156 -21.125,21.3711 -0.95703,1.60156 -1.05469,3.97656 -0.23437,5.57031 0.29297,0.5625 8.26172,8.76953 17.71093,18.23828 l 17.17969,17.21484 19.62891,-19.63281 19.6289,-19.62891 -14.79687,-14.80859 c -14.25,-14.26953 -14.87891,-14.85156 -17.13672,-15.97656 -1.64063,-0.8125 -2.94141,-1.23438 -4.33984,-1.39844 -1.92969,-0.23047 -1.99219,-0.21484 -1.84766,0.37109 m 65.51562,11.15625 -1.30468,1.32813 2.44531,2.44531 0.30859,-0.80859 c 0.34375,-0.89844 0.375,-2.98047 0.0586,-3.77735 -0.17578,-0.4414 -0.39063,-0.32812 -1.50782,0.8125 m -13.33203,13.33204 -1.14453,1.17187 1.13281,1.16016 c 0.6211,0.63672 1.23438,1.09375 1.35938,1.01562 0.62109,-0.38281 0.625,-4.51953 0.008,-4.51953 -0.11719,0 -0.72656,0.52734 -1.35547,1.17188 m -53.67968,17.66015 c -5.21094,5.21094 -5.64454,5.72656 -5.64454,6.6836 0,1.33984 0.98047,2.3164 2.32813,2.3164 0.86719,0 1.53906,-0.5625 6.23047,-5.20312 5.21875,-5.16016 6.08984,-6.21485 6.08984,-7.39453 0,-0.95313 -1.28515,-2.05079 -2.39844,-2.05079 -0.85156,0 -1.57421,0.61719 -6.60546,5.64844 m 9.82031,4.23047 c -7.92969,7.91406 -8.4336,8.48047 -8.4336,9.47266 0,1.29687 0.97657,2.32812 2.21485,2.32812 0.74219,0 2.05469,-1.19531 9.24609,-8.42578 4.60938,-4.62891 8.46094,-8.65234 8.5586,-8.9375 0.22265,-0.65234 -0.26172,-1.95703 -0.91797,-2.45312 -0.27344,-0.21094 -0.89063,-0.38672 -1.36719,-0.39063 -0.75,-0.008 -2.01172,1.13281 -9.30078,8.40625 m -44.02734,6.73828 c -4.60547,10.04297 -4.60938,10.04688 -4.58985,12.65235 0.0195,2.63281 0.79688,5.39453 2.11328,7.49609 0.50391,0.80469 2.73047,3.26562 4.94532,5.46875 5.3164,5.27734 7.55078,6.44922 12.29296,6.4375 2.73047,-0.004 5.23047,-0.74219 7.38282,-2.17969 0.87109,-0.58203 3.29296,-2.77734 5.38671,-4.875 l 3.80079,-3.82031 -2.17969,-2.19922 -2.1836,-2.19531 -4.25781,4.20703 c -4.64844,4.59375 -5.28515,4.97656 -8.26562,4.94531 -2.5625,-0.0234 -3.84375,-0.84375 -8.10156,-5.17969 -6.02735,-6.14453 -6.07422,-6.63281 -1.52344,-16.53515 l 3.01562,-6.55469 -2.32031,-2.31641 -2.32031,-2.32031 z m 8.83593,6.74219 c -1.39843,3.04297 -2.53906,5.90625 -2.53906,6.36719 0,0.67187 0.67188,1.51562 3.44141,4.33203 1.89453,1.92187 3.75781,3.62109 4.14453,3.76953 1.29687,0.50781 2.41406,-0.21484 6.18359,-3.99219 L 136.17597,230.3437 123.83203,218 Z m 0,0"
       fill-opacity="1"
       fill-rule="evenodd"
       id="path30" />
  </g>
</svg>
