<?xml version="1.0" encoding="UTF-8" standalone="no"?>
<svg
   width="200"
   zoomAndPan="magnify"
   viewBox="0 0 150 150"
   height="200"
   preserveAspectRatio="xMidYMid meet"
   version="1.0"
   id="svg127"
   sodipodi:docname="firewood.svg"
   inkscape:version="1.1.2 (0a00cf5339, 2022-02-04)"
   xmlns:inkscape="http://www.inkscape.org/namespaces/inkscape"
   xmlns:sodipodi="http://sodipodi.sourceforge.net/DTD/sodipodi-0.dtd"
   xmlns="http://www.w3.org/2000/svg"
   xmlns:svg="http://www.w3.org/2000/svg">
  <sodipodi:namedview
     id="namedview129"
     pagecolor="#ffffff"
     bordercolor="#000000"
     borderopacity="0.25"
     inkscape:pageshadow="2"
     inkscape:pageopacity="0.0"
     inkscape:pagecheckerboard="0"
     showgrid="false"
     inkscape:zoom="1.564"
     inkscape:cx="41.879795"
     inkscape:cy="147.05882"
     inkscape:window-width="1473"
     inkscape:window-height="991"
     inkscape:window-x="26"
     inkscape:window-y="23"
     inkscape:window-maximized="0"
     inkscape:current-layer="svg127" />
  <defs
     id="defs121">
    <clipPath
       id="427ee09f17">
      <path
         d="m 112.5,112.5 h 150 v 150 h -150 z m 0,0"
         clip-rule="nonzero"
         id="path118" />
    </clipPath>
    <clipPath
       id="2b00341dff">
      <path
         d="m 102.36328,115 h 150 v 134 h -150 z m 0,0"
         clip-rule="nonzero"
         id="path152" />
    </clipPath>
    <clipPath
       id="8b313ae450">
      <path
         d="m 112.5,108.67188 h 150 v 149.99999 h -150 z m 0,0"
         clip-rule="nonzero"
         id="path165" />
    </clipPath>
  </defs>
  <g
     clip-path="url(#8b313ae450)"
     id="g172"
     transform="matrix(0.97885027,0,0,0.97885027,-108.39383,-104.92887)">
    <path
       fill="#16a34a"
       d="m 181.42187,109.33203 c -0.33984,0.35938 -1.29296,2.48438 -2.125,4.71875 -4.78125,12.86719 -11.72265,26.23828 -16.54296,31.86328 -1.1875,1.39063 -3.72266,3.88672 -5.62891,5.54688 -9.07031,7.91015 -12.30859,12.53125 -14.05078,20.05078 -0.76172,3.27344 -0.76953,12.62109 -0.0195,16.33984 1.41015,6.97266 4.92578,14.42578 8.96484,19.00781 0.66406,0.75 1.20313,1.44141 1.20313,1.53907 0,0.0977 -6.69141,0.17578 -14.86719,0.17968 h -14.86719 l -1.46484,0.6836 c -2.08594,0.97656 -3.27344,2.07422 -4.85547,4.49609 -1.57031,2.40235 -2.97656,6.03906 -3.83594,9.90235 -0.76562,3.44921 -1.0625,12.36328 -0.54687,16.46484 1.08984,8.72266 4.53906,15.63672 8.86328,17.79297 l 1.51172,0.7539 h 128.67968 l 1.51172,-0.7539 c 4.13672,-2.0625 7.97656,-9.52344 8.74219,-16.98047 0.10937,-1.05078 0.30859,-1.98047 0.44922,-2.06641 0.13672,-0.0859 0.25,-2.59375 0.25,-5.57812 0,-3.53516 -0.10156,-5.35547 -0.29297,-5.23828 -0.17188,0.10937 -0.29297,-0.21485 -0.29688,-0.78907 -0.0156,-3.29687 -2.28515,-10.3125 -4.37109,-13.50781 -1.58203,-2.42187 -2.76953,-3.51953 -4.85547,-4.49609 l -1.46484,-0.6836 H 234.4219 l -17.08984,-0.004 1.64844,-1.81641 c 5.26172,-5.82031 9.3125,-14.37109 10.57031,-22.32422 1.92969,-12.20312 -1.76562,-29.38281 -8.74219,-40.59375 -3.00781,-4.83593 -7.97265,-10.26562 -9.39062,-10.26562 -1.71094,0 -2.41797,0.69531 -3.13672,3.07422 -0.73047,2.41797 -2.78906,5.96875 -3.20313,5.51562 -0.12109,-0.13281 -0.77734,-1.55859 -1.45312,-3.17187 -2.25391,-5.36328 -5.96484,-12.03125 -10.3125,-18.53516 -2.84766,-4.25781 -8.08594,-11.14062 -8.75,-11.49609 -0.96484,-0.51953 -2.48047,-0.33985 -3.14063,0.37109 m 1.09766,11.14063 c -2.94922,7.41015 -5.76172,13.16015 -10.19531,20.86328 -3.31641,5.75781 -5.85156,8.84375 -11.19141,13.625 -7.15234,6.40234 -9.18359,8.69922 -11.11719,12.55468 -1.52343,3.03516 -2.10546,5.78516 -2.27734,10.74219 -0.29687,8.38672 1.63672,15.57813 5.94141,22.10547 1.60547,2.43359 4.6875,6.02734 6.22656,7.25781 1.10937,0.88672 1.34766,0.95313 3.40625,0.95313 1.21875,0 2.21484,-0.0742 2.21484,-0.16797 0,-0.0898 -0.41015,-0.76172 -0.91015,-1.48828 -1.33985,-1.94922 -3.0586,-5.78906 -3.78516,-8.45313 -0.87891,-3.22656 -1.11719,-9.45703 -0.46484,-12.23047 0.96484,-4.10156 2.65625,-6.49218 7.21093,-10.17968 1.57422,-1.27344 3.34766,-2.88282 3.94532,-3.57422 2.4414,-2.84375 7.05859,-11.3125 9.38281,-17.22656 0.60156,-1.53125 1.36719,-3.08204 1.69922,-3.44141 0.59765,-0.65625 1.94922,-0.875 2.97265,-0.48047 1.34375,0.51563 8.39454,10.40234 11.00391,15.4375 0.72656,1.39453 1.40625,2.53906 1.51563,2.54297 0.10546,0 0.41406,-0.65625 0.68359,-1.46094 0.55469,-1.67969 1.32422,-2.34375 2.71094,-2.34375 1.91797,0 5.48828,4.26563 7.54297,9.00781 3.15625,7.28125 4.35937,17.01954 2.8164,22.76172 -0.83203,3.08594 -2.5625,6.5625 -4.5664,9.17188 l -1.63282,2.125 h 1.73828 c 1.57422,0 1.8711,-0.10547 3.15625,-1.125 2.16016,-1.71485 6.23438,-6.13672 7.75391,-8.41406 2.98047,-4.47657 5.08594,-9.69922 5.98047,-14.84766 1.61328,-9.27734 -0.86719,-23.625 -5.78125,-33.44531 -1.55078,-3.10157 -3.96484,-6.94922 -5.42969,-8.65235 l -0.86719,-1.00781 -0.66796,1.34375 c -2.26172,4.52734 -6.3086,7.24219 -9.07813,6.09766 -0.92187,-0.38282 -1.24219,-0.96094 -2.48828,-4.47266 -1.06641,-2.99609 -4.89453,-10.76953 -7.19531,-14.59375 -1.83594,-3.05859 -6.00391,-9.28906 -7.77344,-11.62109 l -0.9375,-1.23438 z m 2.44922,8.93359 c -0.96484,0.15234 -1.33594,0.70703 -4.14063,6.22266 -4.32812,8.5039 -7.73046,13.88671 -11.11718,17.57421 -2.14844,2.33985 -2.51953,3.01172 -2.27735,4.11329 0.36719,1.67187 2.33594,2.50781 3.875,1.65234 1,-0.55469 4.51953,-4.62109 6.46094,-7.46484 4.30078,-6.30469 10.31641,-17.75 10.31641,-19.63282 0,-1.66015 -1.3711,-2.74218 -3.11719,-2.46484 m -2.22656,34.66406 c -4.28516,8.67578 -5.89844,10.78516 -13.34375,17.48047 -3.28125,2.95313 -3.97657,4.40234 -4.1211,8.62891 -0.1289,3.73828 0.26953,6.27734 1.46875,9.38672 0.95313,2.46875 3.14844,5.97656 4.61719,7.3789 l 0.90234,0.85938 v -9.64844 c 0.004,-5.73438 0.125,-10.09375 0.30469,-10.74219 0.16797,-0.59765 0.64453,-1.49219 1.0586,-1.98828 1.38671,-1.64844 1.88281,-1.75391 8.01171,-1.75391 5.98438,0 6.50391,0.10157 7.85938,1.55079 0.375,0.40234 2.69531,5.5625 5.15625,11.46484 l 4.47266,10.73437 1.74609,-1.69531 c 2.11719,-2.05078 3.36328,-3.83594 4.63281,-6.625 1.78906,-3.9375 2.15625,-6.80859 1.50391,-11.80078 -0.59375,-4.53906 -1.59766,-8.05469 -3.28125,-11.49609 l -1.34375,-2.73828 -0.96094,1.05468 c -1.55469,1.69532 -4.28125,2.64844 -5.84766,2.04688 -0.2539,-0.0977 -1.57031,-2.4375 -2.92187,-5.19922 -2.22266,-4.53906 -4.82031,-8.85547 -6.69922,-11.14453 l -0.69922,-0.85156 z m -23.95313,-0.23437 c -1.625,0.82031 -3.4414,5.01562 -3.72265,8.60937 -0.16407,2.07031 -0.15235,2.1211 0.76562,3.03906 0.80859,0.8125 1.07422,0.91016 2,0.76172 1.62109,-0.26172 2.12109,-0.96093 2.46094,-3.4414 0.19922,-1.45703 0.63281,-2.83985 1.30078,-4.14844 1.23437,-2.43359 1.26172,-3.23047 0.14844,-4.34375 -0.92188,-0.92188 -1.79297,-1.0625 -2.95313,-0.47656 m 18.75,36.79297 v 11.69921 l -0.90234,0.76172 -0.89844,0.75782 h -51.51953 l -1.13672,1.02734 c -3.26953,2.95312 -5.30469,10.15234 -5.30469,18.74609 0,8.5 1.94532,15.55469 5.1875,18.79297 l 0.98047,0.98438 H 242 l -0.89063,-1.76563 c -2.29296,-4.53906 -3.51171,-9.82031 -3.72656,-16.14453 -0.2539,-7.36328 0.71485,-12.92187 3.25781,-18.70312 l 1.29297,-2.9375 h -40.08593 l 0.40234,0.95312 c 0.21875,0.52344 0.94531,2.23047 1.61328,3.79297 1.45313,3.39453 1.5,4.09766 0.35938,5.23828 -1.05469,1.05469 -2.32422,1.12891 -3.35547,0.19531 -0.78907,-0.71093 -1.23828,-1.73437 -9.58594,-21.7539 l -5.5,-13.1836 -4.12109,-0.0781 -4.1211,-0.082 z m 71.16406,13.65625 c -1.91015,1.03515 -4.1914,5.78515 -5.21484,10.85546 -1.75391,8.69141 -0.71094,18.47266 2.63672,24.75782 3.04687,5.71484 6.64844,4.27343 9.32812,-3.73438 2.29297,-6.83984 2.41797,-17.32422 0.28907,-24.27734 -1.30078,-4.25 -3.96875,-8.0586 -5.6211,-8.02735 -0.36328,0.004 -1,0.19532 -1.41797,0.42579 m -122.43359,9.60937 c -1.62109,0.82031 -1.82422,3.16406 -0.3789,4.30469 0.59375,0.46875 1.1914,0.58984 2.86718,0.58984 2.42188,0 3.48438,-0.57031 3.8086,-2.03515 0.23828,-1.09766 -0.51172,-2.58594 -1.4961,-2.95704 -1.04687,-0.39843 -3.93359,-0.33984 -4.80078,0.0977 m 11.98828,0.47656 c -0.58203,0.58594 -0.85547,1.14844 -0.85547,1.78125 0,0.62891 0.27344,1.19532 0.85547,1.78125 l 0.85547,0.85547 h 44.33203 l 0.85547,-0.85547 c 1.15234,-1.15234 1.15234,-2.41015 0,-3.5625 l -0.85547,-0.85547 h -44.33203 z m -25.63672,9.25 c 0,3.0625 0.043,4.27344 0.0977,2.69532 0.0508,-1.57813 0.0508,-4.08204 0,-5.56641 -0.0547,-1.48047 -0.0977,-0.1875 -0.0977,2.87109 m 87.94141,-1.58593 c -0.41797,0.49218 -0.75781,1.16015 -0.75781,1.47656 0,1.03906 0.83593,2.23437 1.79297,2.57031 0.62109,0.21484 4.7539,0.32422 12.38671,0.32422 10.8711,-0.004 11.50391,-0.0312 12.39844,-0.57813 1.50391,-0.91796 1.65235,-2.85546 0.31641,-4.10156 -0.6211,-0.57812 -0.98828,-0.59375 -13.00781,-0.59375 h -12.3711 z m -59.71484,4.65625 c -1.4375,1.1289 -1.11329,3.66796 0.55859,4.35937 0.62891,0.26172 3.98047,0.33203 12.80469,0.27344 l 11.95312,-0.0859 0.70703,-0.82031 c 0.95313,-1.10938 0.94922,-2.625 -0.0117,-3.58594 l -0.71875,-0.71875 h -12.28125 c -11.78515,0 -12.30468,0.0234 -13.01171,0.57813 m 38.30078,7.01953 c -1.81641,0.7539 -2.30469,3.11328 -0.88672,4.33203 l 0.77344,0.66797 h 54.42968 l 0.77344,-0.66797 c 1.10547,-0.94922 1.125,-2.57813 0.043,-3.66406 l -0.79688,-0.79688 -26.875,-0.0547 c -14.78125,-0.0312 -27.13671,0.0508 -27.46093,0.1836"
       fill-opacity="1"
       fill-rule="evenodd"
       id="path170" />
  </g>
</svg>
