<?xml version="1.0" encoding="UTF-8" standalone="no"?>
<svg
   width="500"
   zoomAndPan="magnify"
   viewBox="0 0 375 374.999991"
   height="500"
   preserveAspectRatio="xMidYMid meet"
   version="1.0"
   id="svg1175"
   sodipodi:docname="hedgrerow.svg"
   inkscape:version="1.1.2 (0a00cf5339, 2022-02-04)"
   xmlns:inkscape="http://www.inkscape.org/namespaces/inkscape"
   xmlns:sodipodi="http://sodipodi.sourceforge.net/DTD/sodipodi-0.dtd"
   xmlns="http://www.w3.org/2000/svg"
   xmlns:svg="http://www.w3.org/2000/svg">
  <sodipodi:namedview
     id="namedview1177"
     pagecolor="#ffffff"
     bordercolor="#000000"
     borderopacity="0.25"
     inkscape:pageshadow="2"
     inkscape:pageopacity="0.0"
     inkscape:pagecheckerboard="0"
     showgrid="false"
     inkscape:zoom="1.564"
     inkscape:cx="249.68031"
     inkscape:cy="250"
     inkscape:window-width="1920"
     inkscape:window-height="1043"
     inkscape:window-x="0"
     inkscape:window-y="0"
     inkscape:window-maximized="1"
     inkscape:current-layer="svg1175" />
  <defs
     id="defs1169">
    <clipPath
       id="47a2f3b2e1">
      <path
         d="M 83.808594 126.6875 L 233.808594 126.6875 L 233.808594 276.6875 L 83.808594 276.6875 Z M 83.808594 126.6875 "
         clip-rule="nonzero"
         id="path1166" />
    </clipPath>
  </defs>
  <g
     clip-path="url(#47a2f3b2e1)"
     id="g1173"
     transform="matrix(2.3872682,0,0,2.3872682,-192.28514,-291.74568)">
    <path
       fill="#16a34a"
       d="m 94.292969,127.25391 c -4.664063,1.49218 -8.484375,5.3164 -9.90625,9.91796 -0.785157,2.54688 -0.785157,6.37891 0.0039,8.89454 0.503906,1.61718 1.574219,3.71093 2.679687,5.25 0.261719,0.36718 0.117188,0.7539 -0.710937,1.90625 -1.949219,2.71484 -2.378906,4.21093 -2.394531,8.32812 -0.01172,4.17969 0.320312,5.41797 2.253906,8.35156 0.898438,1.36328 1.085938,1.85547 0.839844,2.19532 -0.175782,0.24218 -0.714844,1.10156 -1.203125,1.90625 -2.921875,4.84765 -2.738281,11.51171 0.449219,16.14062 l 1.046874,1.51953 -1.191406,1.84375 c -3.195312,4.94531 -3.199218,11.41406 -0.0039,16.35547 l 1.183594,1.83203 -1.175782,1.76563 c -0.648437,0.96875 -1.445312,2.62109 -1.769531,3.66797 -0.730469,2.375 -0.789062,6.33203 -0.121093,8.60546 1.472656,5.00391 5.382812,9 10.164062,10.37891 l 1.695312,0.48828 -0.08203,9.57031 -0.08594,9.57032 -0.757813,1.60937 c -1.027343,2.17578 -2.753906,3.8125 -5.386719,5.11328 -3.882812,1.92188 -6.011718,5.13282 -6.011718,9.06641 0,2.11719 0.644531,3.36328 2.328125,4.49609 l 0.996093,0.67578 19.38282,-0.082 19.3789,-0.0781 1.05078,-0.80078 c 2.11719,-1.61719 2.52735,-4.92188 1.01953,-8.22266 -1.03906,-2.26953 -2.23046,-3.45703 -4.90625,-4.89844 -3.02734,-1.6289 -4.5,-3.05859 -5.66015,-5.51562 l -0.92578,-1.94922 -0.0937,-9.23047 -0.0937,-9.22656 2.73047,-0.0195 c 3.21875,-0.0234 5.6289,-0.7461 8.17578,-2.44532 l 1.64062,-1.08984 0.99609,0.70703 c 5.21485,3.6875 12.07422,3.88281 17.19532,0.48438 l 1.55078,-1.02344 -0.0859,11.35937 -0.082,11.36329 -0.71484,1.45703 c -0.99219,2.01562 -2.73047,3.65234 -5.14454,4.85156 -2.43359,1.20703 -4.4375,3.09766 -5.41796,5.11719 -0.56641,1.17187 -0.71485,1.9375 -0.72266,3.82812 -0.0117,2.16797 0.0586,2.46094 0.83203,3.47656 1.51953,1.99219 0.76563,1.92188 21.58984,1.92188 20.91016,0 20.01563,0.0859 21.60157,-1.99609 0.70703,-0.92579 0.78906,-1.28516 0.78906,-3.40235 0,-1.91797 -0.13672,-2.64062 -0.71875,-3.82812 -0.99219,-2.01563 -3.00391,-3.92969 -5.36328,-5.09766 -2.46875,-1.22266 -4.6211,-3.48437 -5.46875,-5.75391 -0.57422,-1.53125 -0.60547,-2.21484 -0.60547,-12.45312 V 233.3243 l 1.53516,1.01953 c 5.11328,3.39062 11.97656,3.19531 17.1875,-0.49219 l 1,-0.70703 1.63671,1.08984 c 2.54297,1.69532 4.96094,2.42188 8.15625,2.44532 l 2.71094,0.0195 v 8.22265 c 0,4.6875 -0.14062,8.96485 -0.32031,9.95313 -0.65625,3.54687 -2.28516,5.56641 -6.14453,7.61719 -1.76563,0.93359 -3.00391,1.82422 -3.66406,2.6289 -3.01172,3.67578 -3.23438,8.52735 -0.48829,10.6211 l 1.04688,0.80078 19.38281,0.0781 19.37891,0.082 0.99219,-0.67187 c 0.54687,-0.36719 1.35546,-1.19531 1.80078,-1.83594 0.68359,-0.98828 0.80859,-1.47265 0.8164,-3.16406 0.004,-1.09766 -0.0937,-1.92969 -0.22265,-1.85156 -0.125,0.0781 -0.45703,-0.49219 -0.73438,-1.26953 -0.71484,-2.02344 -2.75781,-4.16016 -5.08984,-5.33204 -2.59766,-1.30078 -4.47266,-3.03906 -5.52735,-5.125 l -0.86718,-1.71093 -0.0859,-9.57422 -0.0898,-9.57813 1.79687,-0.5039 c 2.17188,-0.60938 4.78516,-2.2461 6.59375,-4.13282 1.41797,-1.48046 3.21484,-4.74609 3.52734,-6.41015 0.10547,-0.55469 0.3086,-1.08203 0.44922,-1.16797 0.14453,-0.0898 0.26172,-1.49609 0.26172,-3.125 0,-1.625 -0.0859,-2.875 -0.1914,-2.76953 -0.10157,0.10156 -0.47657,-0.66406 -0.82422,-1.70313 -0.35157,-1.03906 -1.12891,-2.60547 -1.73047,-3.47656 l -1.09375,-1.58594 1.17187,-1.80859 c 0.64063,-0.99609 1.37891,-2.49219 1.64063,-3.32813 0.25781,-0.83593 0.59765,-1.75 0.75,-2.02734 0.3125,-0.57812 0.38672,-6.29297 0.0742,-5.98047 -0.10938,0.10938 -0.4375,-0.5664 -0.72657,-1.50781 -0.28906,-0.9375 -1.0625,-2.54297 -1.72265,-3.5625 l -1.19922,-1.85547 0.92578,-1.28516 c 1.01953,-1.42187 2.33984,-4.44531 2.33984,-5.36328 0,-0.32422 0.12891,-0.59375 0.29297,-0.59375 0.17578,0 0.29297,-1.1875 0.29297,-2.97656 0,-1.63672 -0.0859,-2.89453 -0.1914,-2.78906 -0.10157,0.10547 -0.46485,-0.63281 -0.80469,-1.63672 -0.53906,-1.59766 -1.46485,-3.37109 -2.57031,-4.93359 -0.26954,-0.375 -0.1836,-0.67188 0.42187,-1.46485 0.99609,-1.30469 2.55469,-4.6289 2.55859,-5.4414 0,-0.35547 0.12891,-0.72657 0.29297,-0.82422 0.16016,-0.10157 0.29297,-1.42578 0.29297,-2.96485 0,-1.78125 -0.10547,-2.71875 -0.29297,-2.60156 -0.16406,0.0977 -0.29297,-0.0859 -0.29297,-0.41016 0,-0.97656 -1.15234,-3.58984 -2.26171,-5.13671 -0.82813,-1.15235 -0.97266,-1.53907 -0.71094,-1.90625 1.01172,-1.40625 2.14453,-3.56641 2.54297,-4.85157 0.2539,-0.80468 0.58593,-1.69531 0.73828,-1.97265 0.33984,-0.625 0.37109,-6.17969 0.0352,-5.96875 -0.13281,0.082 -0.40625,-0.4961 -0.60937,-1.28125 -0.19922,-0.78907 -0.82422,-2.19922 -1.38672,-3.13672 -2.875,-4.79297 -7.46875,-7.41797 -12.99609,-7.41797 -3.57422,0 -6.52735,0.99609 -9.6875,3.26562 -0.36719,0.26172 -0.75391,0.11719 -1.90625,-0.71093 -2.75391,-1.98047 -4.19532,-2.38672 -8.47657,-2.39844 -3.71093,-0.008 -3.85937,0.0156 -5.85156,0.96094 -1.125,0.53125 -2.49219,1.30859 -3.04297,1.73047 -0.80468,0.60937 -1.09375,0.69531 -1.47265,0.42578 -0.26172,-0.1875 -1.13282,-0.73828 -1.9375,-1.22266 -4.84794,-2.92578 -11.512,-2.73828 -16.14091,0.44922 l -1.51953,1.04687 -1.84375,-1.1914 c -4.94922,-3.19922 -11.41406,-3.19922 -16.36328,0 l -1.84375,1.1914 -1.51953,-1.04687 c -4.625,-3.1875 -11.29297,-3.375 -16.14063,-0.44922 -0.80468,0.48438 -1.66406,1.02734 -1.90625,1.20313 -0.33984,0.24609 -0.82812,0.0586 -2.19531,-0.84375 -2.92969,-1.92969 -4.16797,-2.26563 -8.34765,-2.25 -4.1211,0.0156 -5.61719,0.44531 -8.32813,2.39453 -1.15625,0.82812 -1.54297,0.97265 -1.90625,0.71093 -1.54297,-1.10937 -3.63672,-2.17578 -5.25391,-2.67968 -2.43359,-0.76563 -6.535152,-0.77344 -8.890621,-0.0195 m 1.152343,5.15625 c -2.566406,0.9414 -5.019531,3.43359 -5.933593,6.01953 -0.238281,0.67187 -0.429688,2.125 -0.429688,3.22656 0,2.84375 0.835938,4.89844 2.78125,6.84766 2.78125,2.78125 2.820313,3.3125 0.414063,5.89843 -0.980469,1.05469 -2.117188,2.64453 -2.523438,3.53516 -0.65625,1.43359 -0.726562,1.91406 -0.621094,4.15625 0.148438,3.03516 0.972657,4.82031 3.210938,6.94141 2.246094,2.125 2.214844,3.35546 -0.140625,5.42968 -2.027344,1.78125 -2.925781,3.76172 -3.070313,6.76172 -0.109374,2.26953 -0.03906,2.71485 0.65625,4.23438 0.453126,0.98437 1.527344,2.48047 2.5625,3.55859 1.660157,1.73047 1.769532,1.92578 1.609376,2.91406 -0.125,0.77735 -0.585938,1.45313 -1.734376,2.55078 -2.355468,2.25 -3,3.79688 -3,7.20313 0,3.41016 0.644532,4.95703 3,7.20703 1.148438,1.09766 1.609376,1.77344 1.734376,2.55078 0.160156,0.98828 0.05078,1.1836 -1.605469,2.91016 -2.386719,2.48437 -3.269531,4.41797 -3.273438,7.17187 -0.0039,4.08203 1.890625,7.15625 5.5,8.9336 1.734375,0.85547 2.226563,0.96093 4.308594,0.94922 2.988285,-0.0156 4.441405,-0.64454 7.007815,-3.03516 2.60156,-2.42188 3.35547,-2.44141 5.63672,-0.14063 2.30468,2.32422 4.28515,3.19141 7.28125,3.19141 2.96875,0 4.86718,-0.83594 7.23047,-3.17969 2.33203,-2.3125 3.08203,-2.29687 5.68749,0.12891 2.56641,2.38672 4.01954,3.01953 7.00391,3.03516 3.01953,0.0195 5.12891,-0.90235 7.37109,-3.21485 1.3125,-1.35937 1.71485,-1.60547 2.60547,-1.60547 0.875,0 1.33594,0.26953 2.71485,1.58203 2.88281,2.74219 5.9375,3.82422 8.98047,3.1836 2.3125,-0.48438 3.45703,-1.10547 5.59765,-3.04688 2.55469,-2.3164 3.25781,-2.32812 5.48438,-0.10156 2.32031,2.32422 4.39453,3.22266 7.38281,3.20313 2.98437,-0.0156 4.4375,-0.64844 7.00391,-3.03516 2.60156,-2.42188 3.35546,-2.44141 5.63671,-0.14063 2.30469,2.32422 4.28516,3.19141 7.28125,3.19141 2.9961,0 4.9336,-0.85156 7.2461,-3.18359 1.41015,-1.42188 1.79297,-1.65235 2.73828,-1.65235 0.94531,0 1.35547,0.25 2.94141,1.76953 2.46093,2.36719 3.99609,3.03516 7,3.05079 2.08203,0.0117 2.57421,-0.0937 4.30859,-0.94922 3.60937,-1.77735 5.50391,-4.85157 5.5,-8.9336 -0.004,-2.7539 -0.88672,-4.6875 -3.27344,-7.17187 -1.65625,-1.72656 -1.76562,-1.92188 -1.60547,-2.91016 0.125,-0.77734 0.58594,-1.45312 1.73438,-2.55078 2.35547,-2.25 3,-3.79687 3,-7.20703 0,-3.40625 -0.64453,-4.95313 -3,-7.20313 -1.14844,-1.09765 -1.60938,-1.77343 -1.73438,-2.55078 -0.16015,-0.98828 -0.0508,-1.18359 1.60547,-2.91015 2.38672,-2.48438 3.26953,-4.41797 3.27344,-7.17188 0.004,-2.95703 -0.79297,-4.94922 -2.81641,-7.01562 -2.74609,-2.81641 -2.78125,-3.25782 -0.42578,-5.78907 2.69531,-2.89843 3.09766,-3.85156 3.09766,-7.34765 0,-3.4961 -0.40235,-4.44922 -3.09766,-7.34766 -2.35156,-2.52734 -2.30859,-3.07812 0.46094,-5.84765 2.12109,-2.125 2.87109,-4.125 2.73437,-7.3125 -0.125,-2.8125 -0.85937,-4.52344 -2.75781,-6.42188 -1.89844,-1.89844 -3.60937,-2.63281 -6.42187,-2.75781 -3.20703,-0.13672 -5.1875,0.60937 -7.34766,2.77344 -1.72266,1.72265 -2.78125,2.28125 -3.75,1.98437 -0.33984,-0.10547 -1.375,-0.90625 -2.29687,-1.78125 -0.92188,-0.87109 -2.41797,-1.92578 -3.32422,-2.33984 -1.46875,-0.67188 -1.92188,-0.74219 -4.1836,-0.625 -3.03515,0.15234 -4.3789,0.75 -6.76953,3.01562 -0.89453,0.84766 -1.90234,1.625 -2.24609,1.73047 -0.94922,0.28906 -2.14063,-0.30469 -3.34766,-1.67578 -1.78906,-2.03516 -3.76953,-2.93359 -6.76953,-3.07813 -2.26953,-0.10937 -2.71484,-0.0391 -4.24609,0.66016 -0.95313,0.43359 -2.42969,1.47656 -3.32422,2.34766 -0.88672,0.85937 -1.89063,1.64843 -2.23438,1.75 -0.96484,0.28515 -2.15625,-0.32032 -3.60937,-1.83594 -2.10156,-2.18359 -3.70313,-2.82813 -7.04688,-2.82813 -3.34765,0 -4.94922,0.64454 -7.04687,2.82813 -2.34766,2.44922 -3.38281,2.46094 -5.84375,0.0781 -2.23828,-2.16015 -4.25391,-3.04687 -6.94922,-3.05078 -2.98047,-0.004 -4.97656,0.80078 -6.99219,2.82032 -1.72265,1.72265 -2.78125,2.28125 -3.75,1.98437 -0.33984,-0.10547 -1.35156,-0.88281 -2.24609,-1.73047 -2.62891,-2.48828 -3.70703,-2.92969 -7.16406,-2.92969 -3.45703,0 -4.53516,0.44141 -7.16407,2.92969 -2.57031,2.4336 -3.24218,2.40625 -5.94921,-0.23828 -2.10938,-2.05859 -4.07813,-2.84766 -7.039068,-2.81641 -1.160156,0.0117 -2.609374,0.20313 -3.21875,0.42579 m -11.53125,9.21875 c 0,1.69531 0.05078,2.38671 0.109376,1.53906 0.05859,-0.84375 0.05859,-2.23047 0,-3.07422 -0.05859,-0.84766 -0.109376,-0.15625 -0.109376,1.53516 m 26.238278,5.66796 c -2.99609,1.23438 -4.69921,2.98438 -5.85156,6.01954 -1.28515,3.38281 -0.43359,5.89062 2,5.89062 1.53516,0 2.41797,-0.96094 2.73828,-2.98437 0.39844,-2.52344 1.77735,-3.90235 4.30078,-4.30469 2.02735,-0.32031 2.98829,-1.19922 2.98829,-2.73438 0,-2.51172 -2.67188,-3.32812 -6.17579,-1.88672 m 91.89063,-0.004 c -0.55078,0.55078 -0.75391,1.0625 -0.75391,1.89062 0,1.53516 0.96094,2.41407 2.98438,2.73438 2.52734,0.40234 3.90234,1.78125 4.30468,4.30469 0.32032,2.02343 1.19922,2.98437 2.73438,2.98437 0.82812,0 1.33984,-0.20312 1.89062,-0.75391 0.69532,-0.69531 0.7461,-0.91015 0.60938,-2.60546 -0.39844,-4.94922 -4.21484,-8.76563 -9.16406,-9.16407 -1.69532,-0.13672 -1.91016,-0.0859 -2.60547,0.60938 m -58.06641,2.0625 c -4.34375,1.09375 -7.34765,4.61719 -7.66015,8.98828 -0.13672,1.875 -0.11329,1.94531 0.79687,2.71484 1.00391,0.84375 1.59375,0.94922 2.76563,0.50782 0.84375,-0.32422 1.64453,-1.67969 1.64453,-2.79297 0,-1.17969 1.05078,-2.95703 2.14843,-3.63672 0.54688,-0.33985 1.63282,-0.70313 2.41407,-0.8125 1.79687,-0.2461 2.76172,-1.13672 2.76172,-2.55469 0,-2.20312 -1.91797,-3.15625 -4.8711,-2.41406 m 26.35938,-0.10938 c -1.58594,0.64063 -2.08985,3.01953 -0.89844,4.21485 0.42578,0.42187 1.19531,0.74218 2.08984,0.86328 0.78125,0.10937 1.86719,0.47265 2.41407,0.8125 1.09765,0.67969 2.15234,2.45703 2.15234,3.63672 0,1.11328 0.79687,2.46875 1.64453,2.79297 1.16797,0.4414 1.75781,0.33593 2.76172,-0.50782 0.91406,-0.76953 0.93359,-0.83984 0.79687,-2.71484 -0.3164,-4.44531 -3.35156,-7.94531 -7.79687,-8.99219 -1.89453,-0.44531 -2.29297,-0.45703 -3.16406,-0.10547 m -86.421878,12.45313 c 0,1.60937 0.05078,2.23437 0.109376,1.38281 0.05859,-0.85156 0.05859,-2.17187 0,-2.92969 -0.0625,-0.76172 -0.109376,-0.0664 -0.109376,1.54688 M 122.625,161.871 c -0.32031,0.1875 -0.75,0.54688 -0.95312,0.80078 -0.38672,0.48438 -0.48829,2.02735 -0.1836,2.82422 0.24219,0.62891 1.63672,1.32813 2.66016,1.33594 1.99609,0.0117 4.46484,2.48047 4.47656,4.47656 0.0156,2.15235 1.81641,3.48828 3.66797,2.71485 1.34375,-0.5625 1.71484,-1.38672 1.53125,-3.39844 -0.41406,-4.59766 -4.33203,-8.52344 -8.91797,-8.94141 -1.03125,-0.0937 -1.92187,-0.0195 -2.28125,0.1875 m 68.8125,-0.0391 c -2.76953,0.66016 -5.73438,3.14063 -6.90234,5.77734 -0.74219,1.6836 -1.02735,4.44532 -0.54688,5.34375 0.19531,0.36329 0.80469,0.84766 1.35547,1.07813 0.85937,0.35937 1.14062,0.36328 1.97656,0.0117 1.03516,-0.42969 1.5,-1.27344 1.76563,-3.19141 0.0859,-0.60547 0.4375,-1.5 0.78125,-1.98437 0.72656,-1.01953 2.55859,-2.04297 3.66015,-2.04297 0.96485,0 2.36328,-0.71485 2.59766,-1.32813 0.23437,-0.61328 0.23437,-2.0039 0,-2.61328 -0.42578,-1.10547 -2.50391,-1.57422 -4.6875,-1.05078 M 83.914062,181.76562 c 0,1.69532 0.05078,2.38672 0.109376,1.53907 0.05859,-0.84375 0.05859,-2.23047 0,-3.07422 -0.05859,-0.84766 -0.109376,-0.15625 -0.109376,1.53515 m 65.773438,-2.08203 c -0.94141,0.73828 -1.20703,1.92969 -0.70313,3.13282 0.40235,0.96093 1.28907,1.42968 3.22266,1.70312 0.64063,0.0898 1.5,0.41016 1.90625,0.71094 0.97656,0.72265 2.04688,2.6289 2.05078,3.66015 0.0117,1.70704 1.05469,2.82032 2.64453,2.82032 1.9336,0 2.80078,-1.29688 2.51563,-3.76563 -0.52735,-4.61719 -4.52344,-8.45703 -9.10938,-8.75781 -1.44531,-0.0937 -1.89453,-0.008 -2.52734,0.49609 m -23.33203,7.21094 c -0.84766,0.23828 -1.90234,0.61719 -2.34375,0.84766 -2.77734,1.45703 -4.96484,4.80078 -5.25781,8.03906 -0.15235,1.68359 -0.11719,1.82031 0.73437,2.66797 1.19141,1.1914 2.4336,1.20703 3.59766,0.0391 0.58203,-0.57812 0.85937,-1.14844 0.85937,-1.76562 0,-2.57032 2.5,-4.9961 5.15235,-4.9961 1.1289,0 2.21875,-1.17578 2.25781,-2.43359 0.0625,-2.21485 -2.03516,-3.22266 -5,-2.39844 m 61.60156,-0.17578 c -1.82422,0.78516 -2.30469,3.125 -0.89062,4.34375 0.42968,0.36719 1.07812,0.66406 1.44921,0.66406 2.65235,0 5.15625,2.42578 5.15625,4.9961 0,0.61718 0.27735,1.1875 0.85547,1.76562 1.16407,1.16797 2.40625,1.15234 3.59766,-0.0391 0.84766,-0.84375 0.88672,-0.99219 0.74219,-2.61719 -0.4336,-4.78516 -4.15235,-8.57812 -9.01563,-9.19531 -0.71875,-0.0937 -1.57031,-0.0547 -1.89453,0.082 M 83.914062,201.6875 c 0,1.69531 0.05078,2.38672 0.109376,1.53906 0.05859,-0.84375 0.05859,-2.23047 0,-3.07422 -0.05859,-0.84765 -0.109376,-0.15625 -0.109376,1.53516 m 23.683598,2.63672 c -0.3711,0.15625 -0.8711,0.76562 -1.11719,1.35156 -0.76563,1.83203 0.42187,3.62891 2.39453,3.62891 0.50391,0 1.48828,0.30468 2.19141,0.67578 1.4375,0.76172 2.625,2.63281 2.625,4.14062 0,1.96875 1.79687,3.16016 3.625,2.39844 1.33593,-0.55859 1.75781,-1.57031 1.5039,-3.61719 -0.41015,-3.30859 -2.73828,-6.45312 -5.83203,-7.86718 -1.70703,-0.78125 -4.39453,-1.13672 -5.39062,-0.71094 m 29.59375,0.43359 c -0.75,0.62891 -0.94141,1.01563 -0.94141,1.88281 0,1.27344 0.79297,2.28516 1.98437,2.52735 3.22657,0.66406 4.56641,1.5625 5.03907,3.38281 0.16406,0.63281 0.4414,1.6875 0.60937,2.34375 0.54297,2.07813 3.07422,2.59375 4.41016,0.89844 0.5039,-0.63672 0.58984,-1.08203 0.49609,-2.53125 -0.30469,-4.65625 -4.19922,-8.625 -8.94922,-9.1211 -1.55859,-0.16406 -1.78515,-0.10937 -2.64843,0.61719 m 39.30468,-0.44531 c -4.125,0.98437 -7.39843,4.80469 -7.66797,8.94922 -0.0977,1.44922 -0.008,1.89453 0.49219,2.53125 0.79297,1.0039 1.83203,1.24609 3.08985,0.71875 0.80468,-0.33594 1.07031,-0.66016 1.32031,-1.61719 0.17187,-0.65625 0.44531,-1.71094 0.60937,-2.34375 0.47266,-1.82031 1.8125,-2.71875 5.03907,-3.38281 2.07421,-0.42188 2.71484,-3.00781 1.08593,-4.375 -0.9375,-0.79297 -2.08984,-0.92969 -3.96875,-0.48047 m 29.75,0.12109 c -3.95703,1.06641 -7.02734,4.58985 -7.48828,8.58594 -0.21875,1.92188 0.23438,2.95313 1.53906,3.5 1.82813,0.76172 3.62891,-0.42969 3.62891,-2.39844 0,-0.5039 0.30078,-1.48828 0.67188,-2.1914 0.76171,-1.4375 2.63281,-2.625 4.14062,-2.625 1.96875,0 3.16016,-1.79688 2.39844,-3.625 -0.67578,-1.61719 -2.13281,-1.98828 -4.89063,-1.2461 M 83.914062,221.60937 c 0,1.69532 0.05078,2.38672 0.109376,1.53907 0.05859,-0.84375 0.05859,-2.23047 0,-3.07422 -0.05859,-0.84766 -0.109376,-0.15625 -0.109376,1.53515 m 23.902348,12.22657 c -1.57032,1.09765 -3.59375,2.07031 -5.07813,2.44531 l -1.35156,0.33984 v 9.28125 c 0,7.26953 -0.0977,9.64063 -0.4375,10.95313 -1.140626,4.37109 -4.04297,7.93359 -8.242189,10.10156 -2.445312,1.25781 -3.21875,2.04688 -3.523437,3.58203 l -0.175782,0.875 h 17.320318 c 10.55078,0 17.32421,-0.10547 17.32421,-0.27344 0,-0.59765 -0.66015,-1.96093 -1.26562,-2.60156 -0.34766,-0.375 -1.54297,-1.16015 -2.65234,-1.74219 -3.80079,-1.99609 -6.27344,-4.84765 -7.75,-8.92578 -0.76563,-2.125 -0.76954,-2.15625 -0.87891,-12.67578 l -0.10938,-10.54687 -1.08593,-0.76172 -1.08203,-0.76172 z m 99.86328,0.0391 -1.06641,0.77344 -0.12109,10.54687 c -0.13282,11.54688 -0.1836,11.92969 -2.04297,15.4375 -1.17578,2.21875 -4.01172,4.89844 -6.54297,6.17578 -1.12109,0.57032 -2.32813,1.34375 -2.67969,1.72266 -0.60547,0.64844 -1.26172,2.01172 -1.26172,2.60937 0,0.16797 6.77344,0.27344 17.32032,0.27344 h 17.32031 l -0.17578,-0.875 c -0.30469,-1.52734 -1.07422,-2.32031 -3.48047,-3.57422 -2.82031,-1.46484 -5.54688,-4.0664 -6.86719,-6.55468 -1.70703,-3.21094 -1.85156,-4.35547 -1.85156,-14.5625 v -9.22657 l -1.35938,-0.33984 c -1.54297,-0.39063 -3.23437,-1.19922 -4.94531,-2.375 l -1.17969,-0.80469 z m -53.85157,11.8125 c 0,10.64844 -0.13281,11.79297 -1.6914,14.71875 -1.16406,2.1875 -4.26172,5.1875 -6.51563,6.3125 -2.13672,1.07031 -3.08593,1.83984 -3.6875,2.99609 -0.94531,1.81641 -2.08984,1.69922 16.875,1.69922 18.96094,0 17.81641,0.11719 16.8711,-1.69922 -0.57813,-1.11328 -1.50782,-1.88281 -3.60938,-2.98437 -3.64062,-1.91016 -6.47265,-5.33985 -7.70703,-9.33594 -0.52344,-1.69141 -0.57422,-2.75 -0.57422,-11.67578 0,-9.23047 -0.0312,-9.80078 -0.51562,-9.60938 -0.28125,0.11719 -1.40235,0.35157 -2.48828,0.52344 -1.90625,0.30469 -5.02735,0.0508 -6.44532,-0.52344 -0.48437,-0.1914 -0.51172,0.375 -0.51172,9.57813 M 83.90625,271.4141 c 0,1.21094 0.05078,1.70313 0.113281,1.10156 0.0625,-0.60546 0.0625,-1.59375 0,-2.19921 -0.0625,-0.60157 -0.113281,-0.10938 -0.113281,1.09765"
       fill-opacity="1"
       fill-rule="evenodd"
       id="path1171" />
  </g>
</svg>
