<?xml version="1.0" encoding="UTF-8" standalone="no"?>
<svg
   width="200"
   zoomAndPan="magnify"
   viewBox="0 0 150 149.999998"
   height="200"
   preserveAspectRatio="xMidYMid meet"
   version="1.0"
   id="svg157"
   sodipodi:docname="phone-call.svg"
   inkscape:version="1.2.2 (b0a8486541, 2022-12-01)"
   xmlns:inkscape="http://www.inkscape.org/namespaces/inkscape"
   xmlns:sodipodi="http://sodipodi.sourceforge.net/DTD/sodipodi-0.dtd"
   xmlns="http://www.w3.org/2000/svg"
   xmlns:svg="http://www.w3.org/2000/svg">
  <sodipodi:namedview
     id="namedview159"
     pagecolor="#ffffff"
     bordercolor="#000000"
     borderopacity="0.25"
     inkscape:showpageshadow="2"
     inkscape:pageopacity="0.0"
     inkscape:pagecheckerboard="0"
     inkscape:deskcolor="#d1d1d1"
     showgrid="false"
     inkscape:zoom="4.04"
     inkscape:cx="99.876238"
     inkscape:cy="100"
     inkscape:window-width="1857"
     inkscape:window-height="1011"
     inkscape:window-x="0"
     inkscape:window-y="0"
     inkscape:window-maximized="1"
     inkscape:current-layer="svg157" />
  <defs
     id="defs151">
    <clipPath
       id="e4bbe93c46">
      <path
         d="M 1.304688 1.304688 L 148.304688 1.304688 L 148.304688 148.304688 L 1.304688 148.304688 Z M 1.304688 1.304688 "
         clip-rule="nonzero"
         id="path148" />
    </clipPath>
  </defs>
  <g
     clip-path="url(#e4bbe93c46)"
     id="g155"
     style="fill:#bc1a25;fill-opacity:1">
    <path
       fill="#16a34a"
       d="M 80.253906 1.867188 C 77.707031 3.421875 77.757812 7.597656 80.339844 9.105469 C 80.816406 9.386719 82.492188 9.875 84.058594 10.195312 C 111.273438 15.757812 132.988281 37.179688 138.917969 64.320312 C 139.839844 68.554688 140.375 69.6875 141.816406 70.457031 C 144.355469 71.8125 147.503906 70.375 148.019531 67.625 C 148.238281 66.449219 147.414062 62.214844 145.992188 57.226562 C 143.332031 47.890625 138.261719 38.105469 131.953125 30.128906 C 127.410156 24.386719 119.972656 17.539062 113.753906 13.382812 C 105.625 7.949219 95.800781 3.828125 86.324219 1.878906 C 82.828125 1.160156 81.417969 1.15625 80.253906 1.867188 M 26.253906 10.074219 C 22.496094 11.0625 21.410156 11.875 13.96875 19.21875 C 6.585938 26.507812 5.035156 28.359375 3.484375 31.75 C 2.074219 34.832031 1.574219 37.128906 1.394531 41.308594 C 0.878906 53.375 6.980469 70.257812 17.859375 86.875 C 33.855469 111.3125 55.816406 130.324219 81.15625 141.675781 C 90.105469 145.683594 97.898438 147.742188 105.265625 148.039062 C 110.027344 148.230469 112.277344 147.964844 115.558594 146.816406 C 119.578125 145.414062 121.109375 144.234375 128.535156 136.804688 C 137.90625 127.429688 139.066406 125.582031 139.070312 120.027344 C 139.070312 116.550781 138.566406 114.816406 136.761719 112.101562 C 136.15625 111.1875 131.078125 105.84375 125.480469 100.230469 C 117.097656 91.820312 114.988281 89.855469 113.550781 89.113281 C 110.179688 87.371094 106.824219 86.921875 103.550781 87.773438 C 100.164062 88.65625 98.753906 89.6875 92.402344 95.929688 L 86.429688 101.800781 L 84.230469 100.671875 C 71.804688 94.296875 54.882812 77.433594 48.59375 65.15625 L 47.371094 62.765625 L 52.585938 57.527344 C 55.453125 54.644531 58.371094 51.527344 59.070312 50.597656 C 62.300781 46.300781 62.769531 40.929688 60.351562 36.003906 C 59.183594 33.632812 58.867188 33.28125 48.511719 22.945312 C 38.554688 13.007812 37.730469 12.257812 35.71875 11.28125 C 32.367188 9.65625 29.320312 9.269531 26.253906 10.074219 M 27.890625 18.640625 C 25.992188 19.316406 24.683594 20.445312 18.585938 26.664062 C 12.007812 33.371094 11.160156 34.589844 10.308594 38.585938 C 7.980469 49.511719 16.441406 71.128906 30.226562 89.488281 C 43.964844 107.773438 60.304688 121.683594 79.164062 131.152344 C 88.105469 135.640625 94.433594 137.917969 101.210938 139.089844 C 104.410156 139.640625 109.355469 139.652344 111.386719 139.109375 C 114.804688 138.203125 115.789062 137.453125 122.601562 130.5625 C 130.8125 122.261719 131.527344 121.027344 130.042969 117.734375 C 129.25 115.976562 110.722656 97.359375 108.925781 96.515625 C 105.824219 95.054688 104.738281 95.683594 96.828125 103.527344 C 92.707031 107.617188 89.949219 110.125 89.277344 110.40625 C 88.691406 110.652344 87.503906 110.851562 86.636719 110.851562 C 85.253906 110.851562 84.613281 110.617188 81.394531 108.949219 C 70.878906 103.496094 60.96875 95.273438 51.03125 83.75 C 45.570312 77.421875 39.773438 68.179688 38.617188 63.964844 C 37.652344 60.445312 38.164062 59.59375 45.851562 51.972656 C 50.039062 47.824219 52.449219 45.214844 52.785156 44.472656 C 53.503906 42.875 53.417969 41.132812 52.542969 39.660156 C 52.144531 38.988281 47.390625 34.039062 41.976562 28.660156 C 32.882812 19.621094 32.03125 18.855469 30.789062 18.550781 C 29.164062 18.160156 29.246094 18.15625 27.890625 18.640625 M 80.023438 28.128906 C 77.269531 29.070312 76.253906 32.238281 77.9375 34.648438 C 78.667969 35.695312 79.558594 36.113281 82.316406 36.71875 C 89.46875 38.285156 96.167969 41.914062 101.5 47.109375 C 107.019531 52.488281 110.398438 58.382812 112.402344 66.144531 C 112.925781 68.171875 113.566406 70.152344 113.828125 70.546875 C 115.332031 72.84375 119.445312 72.714844 120.898438 70.332031 C 121.859375 68.757812 121.566406 66.050781 119.839844 60.578125 C 114.953125 45.082031 101.523438 32.488281 85.902344 28.742188 C 81.652344 27.726562 81.308594 27.691406 80.023438 28.128906 "
       fill-opacity="1"
       fill-rule="evenodd"
       id="path153"
       style="fill:#bc1a25;fill-opacity:1" />
  </g>
</svg>
