<svg xmlns="http://www.w3.org/2000/svg" xmlns:xlink="http://www.w3.org/1999/xlink" width="200" zoomAndPan="magnify" viewBox="0 0 150 149.999998" height="200" preserveAspectRatio="xMidYMid meet" version="1.0"><defs><clipPath id="cef329ac81"><path d="M 23 2.960938 L 127 2.960938 L 127 146.960938 L 23 146.960938 Z M 23 2.960938 " clip-rule="nonzero"/></clipPath></defs><g clip-path="url(#cef329ac81)"><path fill="#16a34a" d="M 54.828125 3.632812 C 53.730469 4.558594 51.792969 8.304688 51.105469 10.839844 C 48.265625 21.285156 51.390625 35.898438 60.144531 53.121094 L 62.402344 57.554688 L 61.59375 59.132812 C 60.433594 61.394531 59.601562 62.171875 57.542969 62.917969 C 54.125 64.15625 52.304688 66.664062 49.222656 74.375 C 48.566406 76.019531 48.265625 76.453125 47.703125 76.578125 C 45.039062 77.160156 44.3125 78.046875 41.953125 83.609375 C 39.683594 88.953125 39.421875 90.484375 40.4375 92.457031 L 41.09375 93.734375 L 32.128906 115.097656 C 22.1875 138.785156 22.4375 138.007812 23.75 140.972656 C 24.808594 143.363281 25.679688 144.027344 30.167969 145.859375 C 33.652344 147.285156 35.5 147.40625 37.714844 146.363281 C 39.785156 145.382812 40.542969 144.390625 42.214844 140.480469 C 44.421875 135.328125 44.550781 134.804688 43.851562 133.867188 C 43.113281 132.871094 41.3125 132.65625 40.570312 133.476562 C 40.300781 133.773438 39.390625 135.640625 38.542969 137.625 C 37.699219 139.609375 36.730469 141.523438 36.394531 141.878906 C 35.519531 142.8125 34.164062 142.714844 31.359375 141.515625 C 28.480469 140.285156 27.667969 139.570312 27.667969 138.273438 C 27.667969 137.664062 30.75 129.988281 36.292969 116.78125 C 41.035156 105.484375 45.003906 96.164062 45.113281 96.066406 C 45.449219 95.765625 54.324219 99.695312 54.226562 100.097656 C 54.175781 100.296875 51.675781 106.332031 48.667969 113.507812 C 45.375 121.363281 43.199219 126.914062 43.199219 127.460938 C 43.199219 128.023438 43.421875 128.574219 43.777344 128.894531 C 44.546875 129.589844 46.15625 129.578125 46.828125 128.867188 C 47.113281 128.566406 49.929688 122.148438 53.082031 114.605469 C 58.542969 101.554688 58.851562 100.894531 59.542969 100.890625 C 60.636719 100.882812 62.707031 99.375 63.296875 98.152344 C 65.023438 94.59375 67.179688 89.019531 67.304688 87.800781 C 67.421875 86.65625 67.316406 86.148438 66.742188 85.078125 L 66.035156 83.765625 L 67.667969 79.859375 C 69.671875 75.066406 70.269531 73.882812 71.015625 73.203125 C 71.601562 72.675781 71.660156 72.675781 74.242188 73.210938 C 74.675781 73.304688 75.785156 73.21875 76.707031 73.023438 C 79.179688 72.496094 79.316406 72.664062 82.3125 79.824219 L 83.933594 83.703125 L 83.265625 85.023438 C 82.273438 86.980469 82.394531 88.085938 84.023438 91.980469 C 86.804688 98.636719 87.070312 99.125 88.453125 100.042969 C 89.152344 100.503906 90.050781 100.886719 90.449219 100.890625 C 91.136719 100.894531 91.390625 101.40625 95.09375 110.246094 C 107.582031 140.054688 109.296875 144.019531 110.070312 144.84375 C 111.300781 146.152344 113.402344 147.027344 115.324219 147.027344 C 116.601562 147.03125 117.589844 146.773438 119.824219 145.859375 C 124.3125 144.027344 125.183594 143.363281 126.242188 140.972656 C 127.554688 138.007812 127.808594 138.785156 117.863281 115.097656 L 108.898438 93.734375 L 109.558594 92.457031 C 110.574219 90.484375 110.308594 88.953125 108.042969 83.609375 C 105.679688 78.046875 104.953125 77.160156 102.292969 76.578125 C 101.726562 76.453125 101.425781 76.019531 100.769531 74.375 C 97.6875 66.664062 95.867188 64.15625 92.449219 62.917969 C 90.390625 62.171875 89.558594 61.394531 88.398438 59.132812 L 87.59375 57.554688 L 89.84375 53.121094 C 93.804688 45.320312 96.328125 39.027344 97.945312 32.929688 C 98.476562 30.917969 98.914062 29.042969 98.914062 28.765625 C 98.914062 27.898438 97.640625 26.878906 96.554688 26.878906 C 95.171875 26.878906 94.652344 27.6875 93.71875 31.289062 C 92.300781 36.773438 89.832031 43.105469 86.632812 49.476562 L 84.964844 52.796875 L 81.339844 46.121094 C 79.347656 42.445312 77.71875 39.304688 77.71875 39.136719 C 77.71875 38.972656 81.316406 32.210938 85.714844 24.117188 L 93.710938 9.398438 L 94.320312 11.335938 C 95.054688 13.667969 95.539062 16.933594 95.539062 19.582031 C 95.539062 21.15625 95.644531 21.640625 96.101562 22.097656 C 97.34375 23.339844 99.519531 22.707031 99.894531 20.992188 C 100.160156 19.792969 99.535156 13.457031 98.925781 11.121094 C 98.210938 8.394531 96.335938 4.613281 95.234375 3.6875 C 94.03125 2.679688 92.703125 2.707031 91.835938 3.761719 C 91.472656 4.203125 87.566406 11.230469 83.15625 19.378906 C 78.746094 27.527344 75.074219 34.195312 74.996094 34.195312 C 74.917969 34.195312 71.246094 27.527344 66.835938 19.378906 C 62.425781 11.230469 58.519531 4.203125 58.160156 3.761719 C 57.3125 2.730469 55.960938 2.679688 54.828125 3.632812 M 55.613281 11.511719 C 53.851562 17.210938 54.296875 24.785156 56.90625 33.492188 C 59.722656 42.890625 64.296875 52.398438 71.839844 64.539062 C 74.375 68.621094 74.558594 68.84375 75.25 68.671875 C 75.652344 68.570312 76.742188 68.421875 77.671875 68.34375 C 81.15625 68.046875 82.972656 69.898438 85.851562 76.683594 C 86.871094 79.085938 87.8125 81.160156 87.949219 81.300781 C 88.15625 81.511719 95.636719 78.625 96.882812 77.851562 C 97.152344 77.683594 96.867188 76.730469 95.695312 73.910156 C 94.09375 70.054688 92.988281 68.1875 92.019531 67.714844 C 91.710938 67.5625 90.636719 67.058594 89.628906 66.59375 C 88.621094 66.125 87.332031 65.261719 86.761719 64.671875 C 86.070312 63.957031 80.871094 54.671875 71.203125 36.871094 C 63.214844 22.167969 56.570312 10.027344 56.433594 9.894531 C 56.292969 9.75 55.941406 10.441406 55.613281 11.511719 M 74.226562 54.378906 C 73.878906 54.441406 73.230469 54.859375 72.785156 55.304688 C 71.417969 56.671875 71.410156 58.425781 72.765625 59.78125 C 74.132812 61.144531 75.875 61.128906 77.261719 59.746094 C 79.503906 57.503906 77.410156 53.800781 74.226562 54.378906 M 64.488281 63.09375 C 63.839844 64.347656 61.890625 65.972656 60.117188 66.738281 C 59.246094 67.113281 58.28125 67.546875 57.972656 67.703125 C 57 68.199219 55.894531 70.066406 54.300781 73.910156 C 53.128906 76.730469 52.839844 77.683594 53.113281 77.851562 C 54.367188 78.632812 61.839844 81.515625 62.050781 81.300781 C 62.191406 81.160156 63.078125 79.214844 64.019531 76.972656 C 65.886719 72.539062 66.996094 70.601562 68.304688 69.5 L 69.152344 68.789062 L 67.402344 65.914062 C 65.097656 62.117188 65.027344 62.050781 64.488281 63.09375 M 47.9375 81.398438 C 47.429688 81.996094 44.324219 89.394531 44.324219 90.003906 C 44.324219 90.609375 44.234375 90.5625 51.777344 93.75 C 56.238281 95.636719 58.679688 96.53125 58.957031 96.378906 C 59.605469 96.035156 63.003906 87.609375 62.691406 87.117188 C 62.484375 86.785156 49.078125 80.914062 48.519531 80.90625 C 48.425781 80.90625 48.164062 81.128906 47.9375 81.398438 M 94.292969 83.835938 C 90.589844 85.417969 87.441406 86.890625 87.300781 87.113281 C 86.992188 87.609375 90.386719 96.03125 91.035156 96.378906 C 91.316406 96.53125 93.753906 95.636719 98.214844 93.75 C 101.933594 92.179688 105.128906 90.792969 105.320312 90.667969 C 105.882812 90.296875 105.75 89.765625 104.070312 85.730469 C 102.464844 81.867188 101.902344 80.882812 101.332031 80.9375 C 101.164062 80.953125 97.996094 82.257812 94.292969 83.835938 M 100.179688 97.8125 C 97.292969 99.042969 95.710938 99.863281 95.769531 100.097656 C 96.132812 101.546875 112.984375 141.132812 113.5 141.746094 C 114.414062 142.832031 115.6875 142.773438 118.632812 141.515625 C 121.503906 140.289062 122.386719 139.515625 122.367188 138.246094 C 122.355469 137.421875 105.402344 96.53125 104.878906 96.066406 C 104.773438 95.96875 102.65625 96.753906 100.179688 97.8125 " fill-opacity="1" fill-rule="evenodd"/></g></svg>