<?xml version="1.0" encoding="UTF-8" standalone="no"?>
<svg
   width="200"
   zoomAndPan="magnify"
   viewBox="0 0 150 150"
   height="200"
   preserveAspectRatio="xMidYMid meet"
   version="1.0"
   id="svg127"
   sodipodi:docname="sapling.svg"
   inkscape:version="1.1.2 (0a00cf5339, 2022-02-04)"
   xmlns:inkscape="http://www.inkscape.org/namespaces/inkscape"
   xmlns:sodipodi="http://sodipodi.sourceforge.net/DTD/sodipodi-0.dtd"
   xmlns="http://www.w3.org/2000/svg"
   xmlns:svg="http://www.w3.org/2000/svg">
  <sodipodi:namedview
     id="namedview129"
     pagecolor="#ffffff"
     bordercolor="#000000"
     borderopacity="0.25"
     inkscape:pageshadow="2"
     inkscape:pageopacity="0.0"
     inkscape:pagecheckerboard="0"
     showgrid="false"
     inkscape:zoom="1.564"
     inkscape:cx="41.879795"
     inkscape:cy="147.05882"
     inkscape:window-width="1473"
     inkscape:window-height="991"
     inkscape:window-x="26"
     inkscape:window-y="23"
     inkscape:window-maximized="0"
     inkscape:current-layer="svg127"
     showguides="false" />
  <defs
     id="defs121">
    <clipPath
       id="427ee09f17">
      <path
         d="m 112.5,112.5 h 150 v 150 h -150 z m 0,0"
         clip-rule="nonzero"
         id="path118" />
    </clipPath>
    <clipPath
       id="2b00341dff">
      <path
         d="m 102.36328,115 h 150 v 134 h -150 z m 0,0"
         clip-rule="nonzero"
         id="path152" />
    </clipPath>
    <clipPath
       id="8b313ae450">
      <path
         d="m 112.5,108.67188 h 150 v 149.99999 h -150 z m 0,0"
         clip-rule="nonzero"
         id="path165" />
    </clipPath>
    <clipPath
       id="98a2588194">
      <path
         d="m 103,103.49219 h 149.92969 v 150 H 103 Z m 0,0"
         clip-rule="nonzero"
         id="path25" />
    </clipPath>
    <clipPath
       id="957642901b">
      <path
         d="m 112.5,119.25781 h 150 v 150 h -150 z m 0,0"
         clip-rule="nonzero"
         id="path178" />
    </clipPath>
    <clipPath
       id="7e5170fef1">
      <path
         d="M 75,97.296875 H 212 V 247.29687 H 75 Z m 0,0"
         clip-rule="nonzero"
         id="path131" />
    </clipPath>
  </defs>
  <g
     clip-path="url(#7e5170fef1)"
     id="g138"
     transform="matrix(0.98628682,0,0,0.98628682,-64.009073,-94.888399)">
    <path
       fill="#16a34a"
       d="m 112.82031,97.714844 c -2.45312,0.546875 -3.6914,1.015625 -4.22265,1.605468 -1.58594,1.749998 -2.40625,9.445318 -1.51172,14.195318 2.84375,15.08984 16.33984,27.79296 31.30468,29.46093 1.53516,0.17188 3.56641,0.23438 4.51172,0.13281 l 1.71875,-0.17968 1.95313,4.0625 c 3.82031,7.94531 5.16406,12.23047 5.40625,17.25 0.24609,5.02343 -0.53906,7.46875 -4.61719,14.37109 l -1.50781,2.55469 -1.06641,-2.01953 c -1.59375,-3.01563 -2.80859,-4.64453 -5.375,-7.20703 -3.76953,-3.77344 -8.52344,-6.4961 -13.75,-7.88282 -6.11718,-1.62109 -15.32031,-0.0937 -16.48437,2.73438 -1.03906,2.51953 -0.79297,7.375 0.57422,11.39453 3.52734,10.37109 14.67578,18.69922 25.54687,19.07422 2.26172,0.0781 2.40234,0.12109 2.22656,0.67187 -1.40625,4.40625 -2.15625,9.26953 -2.35156,15.29297 L 135,218.5625 l -1.9375,0.62109 c -2.50781,0.80469 -6.08984,2.59766 -7.80078,3.90235 l -1.35156,1.03515 -4.15235,-0.004 c -6.22265,0 -10.33593,0.87109 -14.99609,3.1875 -2.60156,1.29297 -5.16797,3.1289 -6.996095,5.0039 -1.25,1.27735 -1.628906,1.49219 -2.929687,1.65235 -8.390626,1.03515 -14.925782,4.37109 -18.882813,9.64062 -0.796875,1.0625 -0.804687,1.9375 -0.02734,2.92188 l 0.609375,0.77343 h 134.09375 l 0.60546,-0.77343 c 0.77735,-0.98438 0.76954,-1.85938 -0.0273,-2.92188 -3.95312,-5.26953 -10.49219,-8.60547 -18.87891,-9.64062 -1.30468,-0.16016 -1.68359,-0.375 -2.92968,-1.65235 -3.89063,-3.99218 -9.88672,-6.92578 -16.08203,-7.86718 -1.28907,-0.19532 -4.07813,-0.34766 -6.19922,-0.33594 l -3.85547,0.0234 -1.26953,-0.95704 c -2.53516,-1.91015 -5.83203,-3.46484 -9.375,-4.42187 l -1.94922,-0.52734 -0.19531,-1.3086 c -0.21094,-1.41406 -0.0117,-5.6875 0.46484,-9.89844 0.52734,-4.64843 2.31641,-10.4414 4.34375,-14.0625 0.45312,-0.80859 2.08203,-3.70703 3.62109,-6.44531 3.9961,-7.09765 5.64844,-11.30859 6.23047,-15.85547 l 0.19531,-1.5039 3.69922,-0.15625 c 4.32422,-0.1836 6.78125,-0.79688 10.80469,-2.69922 8.04297,-3.80078 14.50781,-10.75 17.57031,-18.88672 1.72657,-4.58203 2.23438,-9.625 1.41016,-13.9375 -0.70313,-3.66797 -1.11328,-4.26172 -3.52344,-5.08594 -1.46875,-0.5 -2.94531,-0.73828 -5.21094,-0.84375 -4.83593,-0.21875 -8.57421,0.54297 -13.2539,2.69531 -6.21485,2.86329 -12.57813,8.91407 -15.67578,14.90235 -0.5586,1.08203 -1.08203,1.96094 -1.16016,1.95703 -0.082,-0.004 -0.97656,-1.48438 -1.98828,-3.29297 -1.00781,-1.80859 -2.64063,-4.53906 -3.625,-6.0625 l -1.78906,-2.76953 -0.0781,-3.52734 c -0.14062,-6.67969 -2.17969,-12.57813 -6.4414,-18.625 -2.01563,-2.85938 -6.30079,-7.22657 -7.64454,-7.78907 -1.70312,-0.71093 -3.04296,0.25782 -3.04296,2.19532 0,0.71875 0.43359,1.30078 2.37109,3.16797 6.09375,5.875 9.63281,12.91796 10.12891,20.16015 0.0977,1.44922 0.10937,2.57031 0.0234,2.48828 -0.0859,-0.082 -0.98437,-1.26562 -1.99609,-2.63672 -5.23828,-7.10546 -11.46094,-13.2539 -18.29297,-18.0664 -3.10937,-2.19141 -7.29687,-4.49219 -8.17578,-4.49219 -1.64062,0 -2.83984,2.3125 -1.85547,3.58594 0.19922,0.25781 1.52344,1.13281 2.9375,1.9414 5.28906,3.01563 12.32031,8.77344 16.50781,13.51563 3.42578,3.88281 8.3125,10.39844 8.3125,11.08984 0,0.15625 -1.09375,0.375 -2.42968,0.48438 -7.36719,0.61718 -15.83985,-2.94532 -22.2461,-9.35547 -4.00781,-4.00781 -6.99609,-8.94531 -8.4414,-13.95703 -0.80078,-2.76953 -1.08594,-8.79688 -0.51953,-10.96485 0.375,-1.42968 0.42187,-1.47656 1.84765,-1.83984 2.03516,-0.51562 6.89844,-0.48047 9.48047,0.0664 1.18359,0.2539 3.13672,0.85156 4.34375,1.33593 2.65625,1.0625 3.41797,1.08985 4.35547,0.15625 0.875,-0.875 0.9375,-2.16015 0.14453,-3.00781 -0.78125,-0.83594 -4.86328,-2.378905 -8.07031,-3.042968 -3.04688,-0.632812 -8.45313,-0.699218 -10.98438,-0.136718 m 70.60547,35.050776 c -4.60156,1.19922 -9.14844,3.89454 -13.03906,7.73829 -3.11719,3.07421 -6.19922,8.10156 -7.3086,11.92578 -0.48437,1.66015 -1.07031,6.85547 -0.73046,6.46093 0.10156,-0.11718 0.98046,-1.26953 1.94921,-2.55859 5.59375,-7.42969 12.28907,-13.48047 19.71485,-17.82422 3.29687,-1.92969 4.85156,-1.92969 5.58594,0 0.52734,1.38672 -0.16016,2.23828 -3.32813,4.125 -4.13281,2.46094 -7.24609,4.84375 -10.92578,8.35547 -4.13281,3.94922 -10.66797,11.97656 -10.66797,13.10938 0,0.28125 0.88281,0.33203 3.88281,0.21484 3.15235,-0.125 4.32032,-0.29688 6.22266,-0.93359 5.64844,-1.88672 10.91016,-5.84375 14.77734,-11.11329 1.51172,-2.05859 3.60157,-6.39453 4.25391,-8.82421 0.68359,-2.55079 0.90625,-6.80469 0.46094,-8.89844 -0.36719,-1.72266 -0.38672,-1.75 -1.63672,-2.0625 -2.02344,-0.51172 -6.71485,-0.36719 -9.21094,0.28515 m -33.35547,8.73438 -0.6875,0.51953 1.17969,2.35156 c 4.37891,8.70313 6.44531,16.26953 6.11328,22.35547 -0.27344,5.00391 -1.60156,8.25781 -6.95312,17.01953 l -2.25,3.6836 -0.14454,3 c -0.18359,3.84375 -0.48437,4.3125 -3.58984,5.66015 -0.73437,0.32032 -0.96875,0.71485 -1.53906,2.57422 -1.63281,5.3086 -2.41016,10.32813 -2.42188,15.55078 l -0.004,3.39453 h 6.12109 l -0.16016,-1.78125 c -0.36718,-4.05859 0.87891,-13.26953 2.42188,-17.96484 1.02344,-3.10156 3.35937,-7.9375 6.22656,-12.88672 4.01563,-6.92187 5.72266,-11.16797 6.09375,-15.1289 0.16016,-1.71875 0.125,-1.89844 -0.42187,-2.07032 -0.8125,-0.25781 -1.34766,-1.17578 -1.79688,-3.09765 -0.61719,-2.62891 -0.83984,-5.65235 -0.60156,-8.25 l 0.22266,-2.44141 -1.67579,-3.51562 c -1.41796,-2.97266 -4.59765,-8.59766 -5.25,-9.28907 -0.10546,-0.10937 -0.5039,0.0312 -0.88281,0.31641 m -33.92968,26.82031 c -3.13672,0.71875 -3.13672,0.72266 -2.9375,3.54297 0.39062,5.57422 3.33203,10.89063 8.34375,15.09766 4.84375,4.0664 11.61718,6.30859 16.76171,5.55078 1.04688,-0.15625 2.06641,-0.28516 2.26953,-0.28516 0.70704,-0.0117 0.33985,-0.49219 -2.63671,-3.45312 -5.75391,-5.72266 -11.97266,-9.96875 -17.75391,-12.1211 -2.33984,-0.87109 -3.26562,-1.6914 -3.26562,-2.89062 0,-1.09766 1.13281,-2.34375 2.13281,-2.34375 1.41406,0 8.08203,3.11328 11.77343,5.49219 3.19922,2.0625 6.35938,4.5625 9.22266,7.28515 l 2.63672,2.50781 -0.44531,-1.49609 c -1.88282,-6.33203 -7.14063,-12.25391 -13.45313,-15.14453 -4.01562,-1.83594 -9.14062,-2.54297 -12.64843,-1.74219 m 23.60937,54.0625 c -4.39063,0.5586 -9.57031,2.65235 -12.42969,5.01953 -1.99609,1.65625 -2.36718,1.75391 -5.33203,1.40625 -4.01562,-0.47265 -9.28515,0.19532 -12.98437,1.64453 -3.47266,1.36329 -5.625,2.78125 -8.11328,5.35157 l -2.406255,2.48437 -2.625,0.26172 c -4.511719,0.45313 -9.714844,2.14453 -11.898437,3.87109 -0.535157,0.42188 4.6875,0.46094 59.621092,0.46094 54.93359,0 60.15234,-0.0391 59.61719,-0.46094 -2.1836,-1.72656 -7.38281,-3.41796 -11.90235,-3.87109 l -2.63281,-0.26562 -2.39844,-2.47266 c -5.33203,-5.49219 -12.32031,-7.67188 -22.34765,-6.97266 -2.04688,0.14453 -2.09766,0.13282 -3.39063,-0.92968 -4.15234,-3.39844 -9.76562,-5.39454 -15.8789,-5.64844 -1.63282,-0.0664 -3.83985,-0.0117 -4.89844,0.12109"
       fill-opacity="1"
       fill-rule="evenodd"
       id="path136" />
  </g>
</svg>
