<svg xmlns="http://www.w3.org/2000/svg" xmlns:xlink="http://www.w3.org/1999/xlink" width="200" zoomAndPan="magnify" viewBox="0 0 150 149.999998" height="200" preserveAspectRatio="xMidYMid meet" version="1.0"><path fill="#16a34a" d="M 74.414062 4.027344 C 74.171875 4.121094 72.328125 5.863281 70.3125 7.902344 C 64.679688 13.601562 59.976562 17.003906 53.464844 20.089844 C 44.992188 24.105469 36.140625 25.746094 24.855469 25.386719 C 19.484375 25.21875 19.050781 25.242188 18.410156 25.761719 L 17.726562 26.316406 L 17.726562 50.4375 C 17.726562 75.675781 17.78125 77.105469 19.070312 83.550781 C 24.011719 108.296875 43.054688 130.59375 70.949219 144.296875 L 74.902344 146.242188 L 76.78125 145.457031 C 81.238281 143.605469 89.113281 139.070312 94.386719 135.320312 C 101.644531 130.160156 110.34375 122.054688 115.417969 115.722656 C 122.621094 106.734375 127.980469 95.933594 130.464844 85.398438 C 132.226562 77.921875 132.257812 77.382812 132.265625 50.769531 C 132.273438 27.746094 132.246094 26.359375 131.753906 25.867188 C 131.277344 25.390625 130.519531 25.339844 123.695312 25.316406 C 118.277344 25.300781 115.273438 25.15625 112.996094 24.808594 C 103.820312 23.410156 96.457031 20.691406 89.648438 16.195312 C 85.503906 13.457031 83.382812 11.683594 79.394531 7.613281 C 76.105469 4.257812 75.3125 3.6875 74.414062 4.027344 M 72.445312 12.011719 C 61.960938 22.117188 51.242188 27.320312 36.765625 29.34375 C 35.316406 29.542969 31.394531 29.714844 28.050781 29.722656 L 21.972656 29.738281 L 21.976562 50.828125 C 21.976562 62.867188 22.109375 73.433594 22.28125 75.4375 C 24.496094 101.132812 42.3125 124.609375 70.789062 139.367188 L 74.929688 141.511719 L 76.804688 140.667969 C 81.453125 138.585938 89.570312 133.621094 94.628906 129.773438 C 103.203125 123.25 111.519531 114.523438 116.671875 106.640625 C 119.046875 103.003906 122.589844 95.945312 124.074219 91.886719 C 125.335938 88.4375 126.636719 83.332031 127.335938 79.101562 C 127.777344 76.417969 127.855469 73.074219 127.949219 52.871094 L 128.0625 29.71875 L 122.40625 29.6875 C 104.085938 29.582031 89.75 23.941406 77.605469 12.046875 L 75.027344 9.523438 Z M 71.890625 22.894531 C 60.84375 31.503906 48.277344 36.355469 34.152344 37.460938 C 31.351562 37.683594 30.882812 37.796875 30.414062 38.371094 C 29.914062 38.992188 29.882812 40.03125 29.882812 56 C 29.882812 65.917969 30.011719 74.15625 30.191406 75.816406 C 31.417969 87.101562 36.480469 98.75 44.484375 108.691406 C 48.722656 113.960938 55.484375 120.257812 61.667969 124.695312 C 66.605469 128.238281 73.824219 132.421875 75 132.421875 C 76.734375 132.421875 86.78125 126.167969 92.722656 121.390625 C 94.492188 119.964844 97.625 117.148438 99.679688 115.132812 C 103.117188 111.757812 103.417969 111.378906 103.417969 110.390625 C 103.417969 109.21875 102.386719 108.105469 101.300781 108.105469 C 100.964844 108.105469 99.25 109.535156 97.164062 111.554688 C 91.015625 117.507812 85.988281 121.421875 79.375 125.394531 C 77.226562 126.679688 75.289062 127.734375 75.0625 127.734375 C 73.996094 127.734375 64.261719 121.457031 59.765625 117.871094 C 56.191406 115.023438 50.417969 109.3125 47.667969 105.910156 C 40.339844 96.835938 35.789062 86.503906 34.574219 76.171875 C 34.359375 74.351562 34.277344 67.925781 34.335938 57.570312 L 34.421875 41.75 L 36.914062 41.527344 C 49.152344 40.4375 62.65625 35.253906 72.582031 27.839844 L 74.996094 26.035156 L 77.414062 27.789062 C 84.335938 32.796875 91.96875 36.53125 100.023438 38.851562 C 103.894531 39.96875 109.96875 41.148438 113.4375 41.464844 L 115.695312 41.667969 L 115.78125 49.277344 C 115.867188 56.875 115.871094 56.890625 116.5625 57.449219 C 117.558594 58.253906 118.777344 58.167969 119.511719 57.234375 C 120.09375 56.492188 120.117188 56.125 120.117188 47.617188 C 120.117188 37.046875 120.359375 37.691406 116.308594 37.378906 C 101.792969 36.253906 88.890625 31.320312 77.828125 22.664062 C 76.503906 21.628906 75.542969 21.09375 75.007812 21.09375 C 74.460938 21.09375 73.445312 21.679688 71.890625 22.894531 M 116.375 68.683594 C 115.914062 69.269531 115.78125 70.058594 115.644531 73 C 115.554688 74.976562 115.59375 76.8125 115.734375 77.074219 C 115.878906 77.339844 116.378906 77.714844 116.851562 77.914062 C 117.5625 78.207031 117.867188 78.1875 118.585938 77.816406 C 119.066406 77.570312 119.542969 77.148438 119.648438 76.878906 C 119.75 76.613281 119.917969 74.824219 120.019531 72.90625 C 120.203125 69.535156 120.1875 69.398438 119.523438 68.695312 C 118.605469 67.714844 117.140625 67.710938 116.375 68.683594 M 113.128906 88.253906 C 112.332031 88.679688 109.574219 94.425781 109.359375 96.097656 C 109.199219 97.355469 110.011719 98.242188 111.316406 98.242188 C 112.457031 98.242188 112.972656 97.769531 113.960938 95.8125 C 116.175781 91.421875 116.648438 89.363281 115.628906 88.519531 C 115.003906 88 113.832031 87.878906 113.128906 88.253906 " fill-opacity="1" fill-rule="evenodd"/></svg>