<svg xmlns="http://www.w3.org/2000/svg" xmlns:xlink="http://www.w3.org/1999/xlink" width="200" zoomAndPan="magnify" viewBox="0 0 150 149.999998" height="200" preserveAspectRatio="xMidYMid meet" version="1.0"><defs><clipPath id="07c2d40283"><path d="M 1.125 6 L 148.875 6 L 148.875 146 L 1.125 146 Z M 1.125 6 " clip-rule="nonzero"/></clipPath></defs><g clip-path="url(#07c2d40283)"><path fill="#16a34a" d="M 72.953125 7.710938 L 72.109375 8.554688 L 72.109375 34.039062 L 72.953125 34.878906 C 74.140625 36.070312 75.851562 36.070312 77.039062 34.878906 L 77.878906 34.039062 L 77.878906 8.554688 L 77.039062 7.710938 C 75.851562 6.523438 74.140625 6.523438 72.953125 7.710938 M 24.53125 27.46875 C 23.621094 27.972656 23.078125 29 23.066406 30.238281 C 23.054688 31.175781 23.65625 31.84375 32.078125 40.265625 C 41.019531 49.207031 41.109375 49.285156 42.300781 49.285156 C 43.996094 49.285156 45.273438 48.007812 45.273438 46.3125 C 45.273438 45.121094 45.195312 45.03125 36.253906 36.089844 C 27.832031 27.667969 27.164062 27.066406 26.226562 27.078125 C 25.671875 27.082031 24.910156 27.261719 24.53125 27.46875 M 113.738281 36.089844 C 104.796875 45.03125 104.714844 45.121094 104.714844 46.3125 C 104.714844 48.007812 105.992188 49.285156 107.691406 49.285156 C 108.878906 49.285156 108.96875 49.207031 117.910156 40.265625 C 125.972656 32.203125 126.933594 31.144531 126.933594 30.320312 C 126.933594 28.335938 125.675781 27.066406 123.707031 27.066406 C 122.851562 27.066406 121.910156 27.917969 113.738281 36.089844 M 56.34375 53.609375 C 49.734375 55.339844 44.40625 60.355469 42.328125 66.796875 C 41.910156 68.09375 39.585938 80.382812 36.871094 95.671875 L 32.144531 122.289062 L 29.632812 122.289062 C 26.371094 122.289062 24.511719 122.960938 22.675781 124.796875 C 20.363281 127.109375 20.171875 128.003906 20.171875 136.460938 L 20.171875 143.6875 L 21.015625 144.53125 L 21.855469 145.375 L 128.132812 145.375 L 129.820312 143.6875 L 129.820312 136.460938 C 129.820312 128.003906 129.628906 127.109375 127.3125 124.796875 C 125.480469 122.960938 123.617188 122.289062 120.359375 122.289062 L 117.84375 122.289062 L 113.117188 95.671875 C 110.390625 80.304688 108.085938 68.097656 107.664062 66.796875 C 105.570312 60.3125 100.207031 55.300781 93.53125 53.59375 C 91.496094 53.074219 90.242188 53.039062 74.878906 53.054688 C 59.738281 53.066406 58.238281 53.113281 56.34375 53.609375 M 59.992188 59.085938 C 57.503906 59.433594 56.21875 59.867188 54.359375 60.984375 C 51.375 62.773438 49.246094 65.3125 48.179688 68.347656 C 47.734375 69.617188 44.457031 87.472656 38.453125 121.351562 L 38.285156 122.289062 L 111.707031 122.289062 L 111.539062 121.351562 C 104.25 80.410156 102.285156 69.699219 101.816406 68.367188 C 100.714844 65.226562 98.246094 62.375 95.195312 60.710938 C 92.070312 59.011719 92.015625 59.007812 76.148438 58.933594 C 68.136719 58.894531 60.863281 58.964844 59.992188 59.085938 M 1.96875 76.964844 C 0.78125 78.152344 0.78125 79.859375 1.96875 81.050781 L 2.8125 81.890625 L 30.027344 81.890625 L 30.867188 81.050781 C 32.058594 79.859375 32.058594 78.152344 30.867188 76.964844 L 30.027344 76.121094 L 2.8125 76.121094 Z M 93.152344 76.964844 C 92.492188 77.625 92.308594 78.066406 92.308594 79.007812 C 92.308594 79.945312 92.492188 80.386719 93.152344 81.050781 C 95.011719 82.90625 98.078125 81.636719 98.078125 79.007812 C 98.078125 78.066406 97.898438 77.625 97.234375 76.964844 C 96.574219 76.304688 96.132812 76.121094 95.195312 76.121094 C 94.253906 76.121094 93.8125 76.304688 93.152344 76.964844 M 119.121094 76.964844 C 118.460938 77.625 118.277344 78.066406 118.277344 79.007812 C 118.277344 79.945312 118.460938 80.386719 119.121094 81.050781 L 119.964844 81.890625 L 147.175781 81.890625 L 148.019531 81.050781 C 148.683594 80.386719 148.863281 79.945312 148.863281 79.007812 C 148.863281 78.066406 148.683594 77.625 148.019531 76.964844 L 147.175781 76.121094 L 119.964844 76.121094 Z M 95.804688 87.84375 C 95.433594 88.105469 94.953125 88.742188 94.738281 89.261719 C 94.375 90.128906 94.523438 91.199219 96.503906 102.136719 C 97.695312 108.699219 98.8125 114.429688 98.992188 114.871094 C 99.636719 116.484375 101.613281 117.019531 103.289062 116.03125 C 104.976562 115.03125 104.980469 115.074219 102.5625 101.789062 C 101.347656 95.101562 100.203125 89.308594 100.023438 88.914062 C 99.382812 87.503906 97.113281 86.929688 95.804688 87.84375 M 28.035156 128.382812 C 26.335938 128.875 26.097656 129.628906 25.988281 134.898438 L 25.890625 139.601562 L 124.097656 139.601562 L 124 134.898438 C 123.890625 129.535156 123.671875 128.882812 121.816406 128.363281 C 120.40625 127.972656 29.390625 127.992188 28.035156 128.382812 " fill-opacity="1" fill-rule="evenodd"/></g></svg>