<?xml version="1.0" encoding="UTF-8" standalone="no"?>
<svg
   width="200"
   zoomAndPan="magnify"
   viewBox="0 0 150 150"
   height="200"
   preserveAspectRatio="xMidYMid meet"
   version="1.0"
   id="svg127"
   sodipodi:docname="storm.svg"
   inkscape:version="1.1.2 (0a00cf5339, 2022-02-04)"
   xmlns:inkscape="http://www.inkscape.org/namespaces/inkscape"
   xmlns:sodipodi="http://sodipodi.sourceforge.net/DTD/sodipodi-0.dtd"
   xmlns="http://www.w3.org/2000/svg"
   xmlns:svg="http://www.w3.org/2000/svg">
  <sodipodi:namedview
     id="namedview129"
     pagecolor="#ffffff"
     bordercolor="#000000"
     borderopacity="0.25"
     inkscape:pageshadow="2"
     inkscape:pageopacity="0.0"
     inkscape:pagecheckerboard="0"
     showgrid="false"
     inkscape:zoom="1.564"
     inkscape:cx="41.879795"
     inkscape:cy="147.05882"
     inkscape:window-width="1473"
     inkscape:window-height="991"
     inkscape:window-x="26"
     inkscape:window-y="23"
     inkscape:window-maximized="0"
     inkscape:current-layer="svg127"
     showguides="false" />
  <defs
     id="defs121">
    <clipPath
       id="427ee09f17">
      <path
         d="m 112.5,112.5 h 150 v 150 h -150 z m 0,0"
         clip-rule="nonzero"
         id="path118" />
    </clipPath>
    <clipPath
       id="2b00341dff">
      <path
         d="m 102.36328,115 h 150 v 134 h -150 z m 0,0"
         clip-rule="nonzero"
         id="path152" />
    </clipPath>
    <clipPath
       id="8b313ae450">
      <path
         d="m 112.5,108.67188 h 150 v 149.99999 h -150 z m 0,0"
         clip-rule="nonzero"
         id="path165" />
    </clipPath>
    <clipPath
       id="98a2588194">
      <path
         d="m 103,103.49219 h 149.92969 v 150 H 103 Z m 0,0"
         clip-rule="nonzero"
         id="path25" />
    </clipPath>
    <clipPath
       id="957642901b">
      <path
         d="m 112.5,119.25781 h 150 v 150 h -150 z m 0,0"
         clip-rule="nonzero"
         id="path178" />
    </clipPath>
  </defs>
  <g
     clip-path="url(#957642901b)"
     id="g185"
     transform="matrix(0.98457683,0,0,0.98457683,-110.0632,-116.99166)">
    <path
       fill="#16a34a"
       d="m 213.01953,119.71094 c -4.32422,0.9375 -8.36328,2.82812 -11.67578,5.46484 -1.66406,1.32031 -5.32813,5.45703 -5.35547,6.03906 -0.008,0.10938 -0.17969,0.41797 -0.38281,0.6875 -0.33594,0.44141 -0.53516,0.44922 -2.11328,0.0781 -0.96094,-0.22656 -3.07422,-0.41016 -4.69922,-0.41406 -4.7461,-0.008 -8.51563,1.19921 -12.08594,3.86328 l -1.5625,1.17187 -1.95312,-0.51562 c -2.90625,-0.76563 -9.01563,-0.91016 -12.10157,-0.28907 -10.48437,2.11719 -18.45312,9.95704 -20.46093,20.12891 l -0.32813,1.66406 -2.25391,0.19922 c -4.04296,0.35938 -8.49609,1.50781 -10.21874,2.63672 -1.54297,1.01172 -1.41797,2.99219 0.24999,3.92578 0.72266,0.40625 0.98047,0.3711 3.51563,-0.48437 5.54687,-1.87891 10.96875,-1.89844 16.42969,-0.0703 1.42968,0.48047 2.89453,0.8711 3.25781,0.8711 1.71484,0 2.66016,-2.50391 1.45312,-3.85547 -0.53125,-0.59766 -3.74218,-1.8125 -6.05859,-2.28906 l -1.71094,-0.35547 0.1875,-1.07031 c 1.39063,-7.92188 7.6836,-14.42188 15.95703,-16.48829 2.0625,-0.51562 3.06641,-0.59765 6.15235,-0.48046 4.25781,0.15625 7.10547,0.92968 10.25781,2.77734 3.83984,2.25 7.78125,6.80078 8.95313,10.33594 0.51953,1.55078 1.58984,2.63672 2.60546,2.63281 0.33985,-0.004 1.26563,-0.19922 2.0586,-0.44141 0.80859,-0.24609 2.57422,-0.43359 4.03906,-0.43359 2.375,0 2.66797,-0.0664 3.32422,-0.71875 0.875,-0.875 0.9375,-2.16797 0.15625,-3.13281 -0.53516,-0.66016 -0.72266,-0.69141 -4.38281,-0.69922 l -3.82032,-0.004 -0.7539,-1.42187 c -1.83203,-3.44532 -5.30078,-7.33203 -8.13281,-9.11719 -0.76172,-0.48047 -1.39063,-0.97266 -1.39063,-1.08984 0,-0.11719 0.63281,-0.53516 1.40234,-0.92579 3.73829,-1.89453 8.28516,-2.23828 12.1875,-0.92968 3.64454,1.22265 3.90235,1.13281 5.48047,-1.89844 2.76563,-5.31641 8.00782,-9.25781 14.2461,-10.70312 2.83203,-0.65625 7.85547,-0.58204 10.77734,0.16015 6.15234,1.5586 11.33594,5.58984 13.74609,10.68359 1.69922,3.58985 2.02735,6.73829 1.03907,9.94141 -0.35157,1.13281 -0.51563,2.23047 -0.40625,2.67188 0.40234,1.60546 2.71875,2.18359 3.85156,0.95703 0.81641,-0.88282 1.52344,-3.38282 1.74219,-6.16016 0.17187,-2.14062 0.21875,-2.26172 0.79687,-2.08594 5.38672,1.66016 9.16406,4.67969 11.33203,9.05078 4.0625,8.19532 -0.34375,17.67969 -9.80468,21.11329 l -1.86329,0.67968 0.56641,-1.8164 c 0.3125,-0.9961 0.64453,-2.88672 0.73828,-4.19922 0.16016,-2.28906 0.13672,-2.42188 -0.58984,-3.15235 -0.90235,-0.89843 -2.1875,-0.99609 -3.13281,-0.23437 -0.51954,0.42187 -0.69532,0.98828 -0.89844,2.85937 -0.46485,4.36329 -1.65625,7.01563 -4.4961,10.01563 -2.08593,2.20703 -4.23437,3.625 -7.01953,4.63672 l -1.85937,0.67578 -0.36328,-1.22656 c -0.53516,-1.82032 -2.19532,-4.85157 -3.5586,-6.50782 -2.49218,-3.02343 -5.48437,-5.10156 -9.47265,-6.57421 -2.02344,-0.7461 -2.03516,-0.75391 -2.40235,-2.19532 -0.5625,-2.21875 -2.28906,-5.47265 -3.70703,-6.99218 -1.51562,-1.62891 -2.70312,-1.82813 -3.88281,-0.64844 -1.09766,1.09375 -0.92188,2.18359 0.66016,4.08203 0.72265,0.86719 2.13671,3.47266 2.13671,3.92969 0,0.14062 -1.26562,0.41015 -2.80859,0.60156 -3.32812,0.41016 -7.14844,1.60547 -8.17578,2.55469 -0.98438,0.91406 -0.97656,2.25 0.0156,3.24218 0.86719,0.86719 1.6211,0.84375 4.27735,-0.14453 4.74219,-1.76172 10.03515,-1.39062 14.65625,1.03516 10.47265,5.48828 11.37109,19.60156 1.66406,26.19531 -4.45703,3.02344 -10.08203,3.8086 -15.37109,2.14844 -0.8711,-0.27344 -1.58203,-0.60938 -1.58203,-0.74609 0,-0.13672 0.48828,-1.00782 1.08203,-1.9375 1.125,-1.75391 2.71484,-5.875 2.72265,-7.05079 0.008,-1.01953 -1.25,-2.10937 -2.42578,-2.10937 -1.28515,0 -1.8125,0.60547 -2.57422,2.94922 -2.875,8.85937 -12.05078,14.6289 -23.27343,14.6289 -2.85938,0 -6.45313,-0.5 -8.53516,-1.1875 l -0.94531,-0.3125 1.22265,-3.49218 c 1.14844,-3.26953 1.28125,-3.5 2.10938,-3.67578 1.55078,-0.32422 5.64844,-2.38282 5.98047,-3 0.75,-1.40235 0.0664,-3.08985 -1.375,-3.40625 -0.57422,-0.125 -1.40235,0.0859 -2.77344,0.70703 -3.74219,1.69531 -6.09766,2.18359 -10.47266,2.16797 -3.05859,-0.0117 -4.46093,-0.15625 -6.1914,-0.62891 -2.81641,-0.76563 -5.91016,-2.3125 -7.95313,-3.98047 -1.96094,-1.59375 -2.57812,-1.80469 -3.67578,-1.23437 -0.94922,0.48828 -1.22266,0.98437 -1.22266,2.20703 0,0.92187 1.82813,2.80078 4.13672,4.24609 l 1.35157,0.85156 -1.16797,3.53516 c -0.64453,1.94922 -1.35547,3.73828 -1.58203,3.98047 -0.69141,0.73047 -8.08594,0.5625 -11.08985,-0.25391 -7.85547,-2.13672 -13.96093,-7.86719 -15.82031,-14.84375 -0.61328,-2.30469 -0.61719,-6.8125 -0.0117,-9.04687 0.60156,-2.21094 2.17188,-5.20313 3.71094,-7.06641 0.66406,-0.80078 1.32031,-1.75391 1.45703,-2.11719 0.49219,-1.28906 -0.80078,-3 -2.26562,-3 -1.3711,0 -4.2461,3.41016 -5.95313,7.0625 -2.77344,5.92188 -2.78125,13.33203 -0.0195,19.23047 3.29297,7.03516 9.75781,12.16797 18.02344,14.3086 2.32031,0.59765 3.71093,0.76562 6.66796,0.80468 2.05079,0.0273 3.73438,0.0586 3.73438,0.0742 0,0.0156 -0.26563,0.79297 -0.58594,1.73047 -0.74219,2.15625 -0.74219,3.21484 0,3.95703 0.85547,0.85547 2.44922,0.87891 3.26172,0.0508 0.26172,-0.26953 1.69531,-4.05078 3.1875,-8.40234 1.48828,-4.35156 2.73828,-7.94531 2.77344,-7.98828 0.0352,-0.043 1.23828,0.20312 2.67187,0.54297 1.69532,0.40234 3.70703,0.63672 5.75391,0.66406 1.73047,0.0234 3.14844,0.11719 3.14844,0.20703 0.004,0.0898 -1.37891,4.04688 -3.07422,8.78516 -1.69141,4.74218 -3.07422,8.97265 -3.07422,9.39843 0,0.42969 0.25,1.08985 0.55859,1.46875 0.5586,0.6875 0.59766,0.69141 8.39453,0.83985 l 7.83204,0.14453 0.59765,0.80469 c 0.54297,0.73047 0.5586,0.875 0.17578,1.65234 -0.46093,0.9375 -22.89062,30.54297 -23.03125,30.40234 -0.0469,-0.0469 1.11328,-4.99609 2.57813,-10.99218 2.3164,-9.5 2.61719,-11.01563 2.3164,-11.73438 -0.5664,-1.37109 -1.24609,-1.48828 -8.51953,-1.48828 -3.69531,0 -6.72265,-0.10937 -6.72265,-0.23828 0,-0.13281 0.39453,-1.41016 0.8789,-2.83984 0.48438,-1.42969 0.87891,-2.91016 0.87891,-3.28907 0,-0.97265 -1.25,-2.1289 -2.29688,-2.1289 -1.37109,0 -1.99218,0.8164 -3.1289,4.10156 -1.23828,3.57031 -1.28125,5.42578 -0.17188,6.98828 1.25391,1.76172 1.92578,1.92969 8.26563,2.09375 l 5.74219,0.14453 -2.60157,10.54688 c -1.42968,5.80078 -2.62109,11.16015 -2.64843,11.90625 -0.0312,0.86718 0.13671,1.64062 0.46093,2.13672 1.13282,1.73046 3.63672,2.42968 5.41407,1.50781 0.80859,-0.41797 25.82031,-33.04297 26.86328,-35.03906 0.74218,-1.42969 0.6914,-4.19141 -0.10938,-5.76172 -0.75,-1.47266 -2.33594,-2.82422 -3.83203,-3.27344 -0.66797,-0.19922 -3.37891,-0.33203 -6.75391,-0.33203 -5.2539,0 -5.62109,-0.0352 -5.42968,-0.51563 0.11718,-0.28125 0.52734,-1.42968 0.91406,-2.55078 0.39062,-1.12109 0.8125,-2.14453 0.9375,-2.27344 0.12891,-0.125 0.82031,-0.0352 1.53516,0.20313 2.23437,0.74609 6.38281,1.32812 9.47265,1.32422 7.14453,0 13.51953,-1.94531 18.78516,-5.72266 l 2.27344,-1.6289 1.89843,0.75781 c 2.96485,1.1875 5.41797,1.64453 8.82032,1.63672 8.16796,-0.0117 15.26953,-4.21485 18.94921,-11.21094 1.1875,-2.26172 2.1875,-5.85547 2.1875,-7.86719 0,-1.36719 0.0117,-1.38672 1.09766,-1.58984 3.27734,-0.60547 8.11719,-3.45703 10.77734,-6.34766 1.38672,-1.50781 1.55469,-1.59765 3.58594,-1.9414 5.08985,-0.86329 9.21094,-2.99219 12.84375,-6.64844 2.63672,-2.65625 4.39844,-5.73828 5.27344,-9.23047 0.70703,-2.82813 0.44531,-7.98828 -0.53906,-10.625 -2.53516,-6.79688 -8.60938,-12.07031 -15.75391,-13.67969 -0.88672,-0.20312 -1.83203,-0.42578 -2.10156,-0.5 -0.26953,-0.0703 -0.88672,-0.97265 -1.36719,-2.0039 -3.23828,-6.92188 -9.63281,-11.88672 -17.57422,-13.64063 -3.05469,-0.67578 -8.90234,-0.73828 -11.73828,-0.12109 m 27.82031,63.63281 c -0.55078,0.28125 -1.24218,0.84375 -1.53125,1.24609 -0.73828,1.01953 -6.98437,19.24219 -6.98437,20.375 0,1.21485 1.07812,2.78907 2.34765,3.42578 0.78516,0.39454 1.75782,0.51563 4.17188,0.51563 1.73047,0 3.14844,0.10937 3.14844,0.24219 0,0.13281 -0.53516,2.40625 -1.19141,5.05078 -1.23437,4.98437 -1.30078,6.14844 -0.41797,7.49609 1.17188,1.78906 4.05469,2.42188 5.90235,1.29297 0.76562,-0.46875 12.80078,-15.87109 15.45703,-19.78906 1.51953,-2.23438 0.8125,-5.60156 -1.50782,-7.19141 -0.96093,-0.65625 -1.39843,-0.73437 -4.67187,-0.82812 -1.98438,-0.0586 -3.60938,-0.15235 -3.60938,-0.20703 0,-0.0586 0.53516,-1.59375 1.19141,-3.41407 1.32031,-3.67187 1.48828,-5.17578 0.73828,-6.625 -0.88281,-1.71093 -2.23828,-2.08984 -7.49609,-2.09375 -3.75391,-0.008 -4.71485,0.082 -5.54688,0.50391 M 240.22656,195.5 c -0.94922,2.78516 -1.90234,5.57031 -2.85547,8.35156 -0.0977,0.28125 0.84375,0.36719 4.10938,0.36719 6.51562,0 6.57422,0.10547 4.60156,7.95703 -0.65234,2.59375 -1.14062,4.84375 -1.08594,5.00391 0.13282,0.40234 12.81641,-16.32032 12.81641,-16.89844 0,-0.39844 -0.64844,-0.45703 -4.94141,-0.45703 -7.41406,0 -7.51562,-0.16406 -4.8789,-7.71094 l 1.60547,-4.59375 h -6.64844 z m -18.92578,11.19531 c -0.42187,0.29297 -1.35547,2.54688 -3.03906,7.33203 -2.63672,7.50391 -2.66797,7.7461 -1.03906,8.8125 0.77734,0.50782 1.69531,0.42969 2.57031,-0.22656 0.5625,-0.41797 5.20703,-13.08984 5.20703,-14.20312 0,-1.63282 -2.29688,-2.69922 -3.69922,-1.71485 m -98.65625,1.70703 c -0.63281,0.46094 -8.37109,21.9375 -8.3789,23.26172 -0.0117,1.65625 2.24218,2.75391 3.57812,1.73828 0.65234,-0.49609 0.67578,-0.55468 4.875,-12.35547 1.95313,-5.48828 3.55078,-10.39843 3.55078,-10.91406 0,-0.54297 -0.24609,-1.17969 -0.58594,-1.51953 -0.67187,-0.67187 -2.25781,-0.78125 -3.03906,-0.21094 m 77.64063,0.9336 c -0.58594,0.44531 -5.75391,14.40625 -5.8086,15.69531 -0.0742,1.78125 1.52735,2.87891 3.1875,2.17969 1.00391,-0.42188 0.74219,0.17187 4.04297,-9.07422 1.21094,-3.38281 2.19922,-6.55469 2.19922,-7.05469 0,-1.74219 -2.21484,-2.80859 -3.62109,-1.74609 m 27.44531,15.38672 c -3.58594,0.7539 -6.60938,4.02734 -7.03125,7.61718 -0.24219,2.01563 0.0547,2.89844 1.11328,3.34375 1.8125,0.76172 3.13281,-0.10156 3.39062,-2.21875 0.42579,-3.47265 4.23047,-5.4375 6.82032,-3.51953 2.95703,2.1875 2.70703,6.57422 -0.51563,9.03516 -1.76562,1.34765 -3.33203,1.5664 -11.35547,1.5664 -6.77343,0 -7.19531,0.0312 -7.75,0.58594 -0.76953,0.76953 -0.77734,2.44531 -0.0156,3.20703 0.875,0.8711 2.10547,0.97657 9.91797,0.82813 7.96875,-0.15235 8.89453,-0.33203 11.87109,-2.30469 4.12891,-2.73437 5.84375,-9.21484 3.55859,-13.41797 -1.95312,-3.58984 -6.08984,-5.54297 -10.0039,-4.72265 m -41.67578,7.80468 c -0.79688,1.01563 -0.76563,1.94141 0.10156,2.94922 l 0.70703,0.82031 9.76563,0.0937 c 10.93359,0.10547 11.76953,0.004 12.39062,-1.48046 0.45313,-1.07813 0.11328,-2.41407 -0.73047,-2.86719 -0.32031,-0.17188 -4.76172,-0.28516 -11.08203,-0.28516 h -10.54297 z m 65.19531,0.26172 c -2.89063,1.09766 -5.08984,4.09766 -5.21875,7.12891 -0.0586,1.39844 0.0234,1.64844 0.74609,2.26953 1.62891,1.40234 3.4961,0.51172 3.84766,-1.83984 0.15234,-1.00391 0.47266,-1.64063 1.17969,-2.34766 0.84375,-0.84375 1.16406,-0.96875 2.45703,-0.96875 2.5625,0 4.03125,1.97266 3.53515,4.74609 -0.25,1.39063 -0.87109,2.32813 -2.22656,3.36328 l -1.07812,0.82422 -8.32813,0.14844 -8.32422,0.14453 -0.70703,0.82422 c -0.87109,1.01172 -0.89844,1.92969 -0.0859,2.96094 l 0.61719,0.78906 8.69141,-0.0898 8.6875,-0.0898 L 257,249.6875 c 2.13281,-1.04688 3.62109,-2.54688 4.69141,-4.72656 0.91015,-1.83985 0.95703,-6.3125 0.0859,-8.06641 -0.73828,-1.49219 -2.35156,-3.09766 -3.82812,-3.82031 -1.51172,-0.73438 -5.10938,-0.89063 -6.69922,-0.28516 m -117.76172,2.14453 c -0.53516,0.59375 -10.14844,27.25391 -10.14844,28.14844 0,0.95313 0.33204,1.49219 1.19141,1.9375 2.41016,1.24609 2.50781,1.06641 8.03906,-14.44141 2.65625,-7.45703 4.83203,-13.79687 4.83203,-14.09765 0,-0.29688 -0.27343,-0.89063 -0.60547,-1.31641 -0.7539,-0.95312 -2.53906,-1.07812 -3.30859,-0.23047 m 43.46484,6.19922 c -0.89062,0.89063 -0.875,2.4375 0.0312,3.36719 0.55079,0.56641 1.01563,0.58984 13.23438,0.67578 6.96484,0.0469 13.09766,0.008 13.62891,-0.0898 0.53515,-0.0977 1.22656,-0.4336 1.53906,-0.7461 0.76172,-0.76172 0.7539,-2.4375 -0.0156,-3.20703 -0.57031,-0.57031 -0.97656,-0.58594 -14.21093,-0.58594 -13.23047,0 -13.63672,0.0156 -14.20704,0.58594 m -9.3125,6.96485 c -0.64062,0.64062 -5.43359,13.95703 -5.43359,15.09765 0,1.71485 2.58984,2.81641 3.78906,1.61328 0.625,-0.62109 5.375,-13.91797 5.38282,-15.05468 0.0156,-1.80469 -2.48438,-2.91016 -3.73829,-1.65625 m 20.83204,1.82031 c -1.30079,0.53515 -1.66407,2.375 -0.70704,3.55859 l 0.5625,0.69141 20.48438,0.14844 20.48047,0.14453 1.4414,0.89062 c 2.5586,1.58203 3.64454,4.58985 2.50782,6.94141 -0.72266,1.48828 -1.95313,2.30859 -3.50782,2.32812 -2.25,0.0312 -3.72656,-1.30078 -4.1875,-3.77343 -0.14062,-0.75 -0.47265,-1.60157 -0.73828,-1.89454 -0.6914,-0.76562 -2.55859,-0.71484 -3.36328,0.0859 -0.53906,0.53906 -0.60156,0.86719 -0.47656,2.42969 0.24609,3.07812 1.89062,5.5 4.67578,6.89062 3.19531,1.59766 7.10156,1.1211 9.72266,-1.1875 1.48828,-1.30859 2.6914,-3.55859 2.97265,-5.57031 0.23438,-1.66406 -0.28515,-4.33984 -1.19922,-6.14062 -0.91796,-1.82422 -3.55859,-4.17188 -5.62109,-5.00782 l -1.6875,-0.67968 -20.35937,-0.0586 c -11.5625,-0.0352 -20.63672,0.0508 -21,0.20313"
       fill-opacity="1"
       fill-rule="evenodd"
       id="path183" />
  </g>
</svg>
