<svg xmlns="http://www.w3.org/2000/svg" xmlns:xlink="http://www.w3.org/1999/xlink" width="200" zoomAndPan="magnify" viewBox="0 0 150 149.999998" height="200" preserveAspectRatio="xMidYMid meet" version="1.0"><defs><clipPath id="d24c061532"><path d="M 15 1.476562 L 143 1.476562 L 143 148.476562 L 15 148.476562 Z M 15 1.476562 " clip-rule="nonzero"/></clipPath></defs><g clip-path="url(#d24c061532)"><path fill="#16a34a" d="M 57.992188 1.949219 C 56.683594 2.589844 55.140625 4.390625 54.78125 5.691406 C 54.613281 6.292969 54.472656 7.402344 54.472656 8.152344 L 54.472656 9.515625 L 51.097656 9.523438 C 48.445312 9.527344 47.472656 9.644531 46.5625 10.058594 C 45.476562 10.550781 43.84375 12.125 43.84375 12.679688 C 43.84375 12.816406 38.644531 12.972656 32.285156 13.023438 C 22.085938 13.109375 20.601562 13.179688 19.660156 13.617188 C 18.011719 14.378906 16.535156 15.832031 15.800781 17.414062 L 15.132812 18.851562 L 15.132812 142.921875 L 15.808594 144.359375 C 16.625 146.082031 17.699219 147.140625 19.433594 147.925781 C 20.714844 148.503906 21.0625 148.507812 67.792969 148.515625 C 104.199219 148.519531 115.128906 148.441406 116.042969 148.167969 C 116.765625 147.953125 117.800781 147.253906 118.707031 146.375 C 121.230469 143.917969 121.101562 145.460938 121.101562 117.152344 C 121.101562 96.066406 121.042969 92.371094 120.683594 91.675781 C 119.96875 90.296875 118.34375 90.082031 117.210938 91.210938 L 116.507812 91.917969 L 116.507812 116.84375 C 116.503906 141.027344 116.488281 141.800781 115.945312 142.6875 C 115.570312 143.304688 115.03125 143.703125 114.296875 143.90625 C 113.550781 144.113281 98.808594 144.210938 67.890625 144.210938 C 18.5 144.214844 21.21875 144.304688 20.101562 142.597656 C 19.597656 141.828125 19.578125 139.394531 19.578125 80.6875 L 19.578125 19.578125 L 21.453125 17.703125 L 42.984375 17.539062 L 42.984375 21.539062 L 34.871094 21.632812 C 25.863281 21.734375 25.4375 21.816406 24.304688 23.675781 C 23.753906 24.578125 23.742188 25.5625 23.742188 80.886719 C 23.742188 136.210938 23.753906 137.195312 24.304688 138.097656 C 25.488281 140.039062 22.253906 139.90625 68.058594 139.90625 L 109.527344 139.90625 L 110.503906 139.253906 C 112.578125 137.867188 112.484375 138.984375 112.484375 115.882812 L 112.484375 95.164062 L 126.746094 72.660156 C 134.589844 60.28125 141.375 49.464844 141.824219 48.617188 C 142.496094 47.355469 142.640625 46.730469 142.640625 45.089844 C 142.640625 41.644531 141.511719 39.847656 137.828125 37.445312 C 133.796875 34.816406 131.90625 34.34375 128.949219 35.21875 C 126.386719 35.980469 125.457031 37.121094 118.804688 47.65625 L 112.628906 57.433594 L 112.484375 40.964844 C 112.347656 24.890625 112.328125 24.472656 111.75 23.699219 C 111.425781 23.265625 110.800781 22.640625 110.367188 22.316406 C 109.617188 21.753906 109.132812 21.71875 101.265625 21.632812 L 92.957031 21.539062 L 92.957031 17.558594 L 103.304688 17.558594 C 114.695312 17.558594 115.222656 17.628906 116.058594 19.246094 C 116.441406 19.984375 116.507812 21.589844 116.507812 30.015625 C 116.507812 35.457031 116.585938 40.121094 116.683594 40.378906 C 116.953125 41.078125 118.402344 41.722656 119.238281 41.511719 C 119.636719 41.414062 120.21875 41.003906 120.53125 40.605469 C 121.074219 39.917969 121.101562 39.421875 121.101562 29.921875 C 121.101562 18.472656 121.003906 17.804688 119 15.621094 C 116.691406 13.101562 116.800781 13.121094 103.882812 13.015625 L 92.550781 12.925781 L 91.546875 11.757812 C 89.984375 9.929688 88.796875 9.53125 84.882812 9.523438 L 81.542969 9.515625 L 81.40625 7.34375 C 81.289062 5.542969 81.125 4.972656 80.433594 3.992188 C 79.976562 3.34375 79.03125 2.511719 78.335938 2.144531 C 77.085938 1.484375 76.945312 1.476562 67.996094 1.480469 C 60.269531 1.488281 58.785156 1.554688 57.992188 1.949219 M 60.214844 5.984375 C 59.355469 6.289062 59.066406 7.050781 59.066406 9.027344 C 59.066406 13.164062 57.773438 14.113281 52.128906 14.113281 C 47.484375 14.113281 47.578125 14.023438 47.578125 18.371094 L 47.578125 21.578125 L 88.363281 21.578125 L 88.363281 18.332031 C 88.363281 16.171875 88.242188 14.925781 88.003906 14.617188 C 87.707031 14.238281 86.914062 14.136719 83.609375 14.0625 C 80.347656 13.984375 79.425781 13.871094 78.800781 13.460938 C 77.449219 12.574219 77.039062 11.613281 76.878906 8.96875 C 76.742188 6.710938 76.671875 6.488281 76.011719 6.152344 C 75.488281 5.890625 73.320312 5.796875 67.96875 5.808594 C 63.941406 5.820312 60.453125 5.898438 60.214844 5.984375 M 28.050781 80.886719 L 28.050781 135.597656 L 70.4375 135.597656 L 72.394531 127.484375 C 73.46875 123.023438 74.648438 118.570312 75.015625 117.59375 C 75.800781 115.511719 79.789062 109.09375 80.6875 108.460938 C 81.542969 107.863281 82.402344 107.917969 83.296875 108.621094 C 84.605469 109.652344 84.355469 110.664062 81.746094 114.828125 L 79.4375 118.507812 L 80.269531 118.851562 C 80.726562 119.042969 81.410156 119.273438 81.789062 119.367188 C 82.429688 119.53125 83.75 117.527344 102.453125 88.007812 L 122.4375 56.472656 L 121.15625 55.660156 C 120.101562 54.988281 119.816406 54.914062 119.527344 55.230469 C 119.332031 55.441406 112.484375 66.210938 104.304688 79.164062 C 96.128906 92.117188 89.171875 103.003906 88.847656 103.359375 C 87.667969 104.660156 85.378906 103.925781 85.039062 102.140625 C 84.894531 101.378906 86.230469 99.140625 96.382812 83.097656 L 107.890625 64.914062 L 107.890625 26.175781 L 28.050781 26.175781 Z M 37.210938 33.3125 C 36.316406 33.878906 35.683594 34.570312 35.257812 35.445312 C 34.648438 36.710938 34.636719 36.964844 34.714844 46.628906 L 34.796875 56.515625 L 35.589844 57.710938 C 36.023438 58.371094 36.898438 59.167969 37.535156 59.496094 C 38.648438 60.0625 39.082031 60.082031 48.855469 60.003906 L 59.015625 59.921875 L 60.117188 59.027344 C 62.410156 57.171875 62.371094 57.410156 62.371094 46.421875 C 62.371094 35.40625 62.351562 35.296875 60.117188 33.515625 L 59.015625 32.636719 L 38.53125 32.472656 Z M 39.441406 37.28125 C 39.335938 37.386719 39.25 41.453125 39.25 46.316406 C 39.25 54.765625 39.273438 55.175781 39.804688 55.457031 C 40.152344 55.644531 43.496094 55.757812 48.6875 55.757812 C 55.875 55.757812 57.078125 55.695312 57.46875 55.304688 C 57.855469 54.914062 57.917969 53.695312 57.917969 46.316406 C 57.917969 40.058594 57.828125 37.683594 57.574219 37.433594 C 57.320312 37.179688 54.890625 37.089844 48.429688 37.089844 C 43.59375 37.089844 39.546875 37.175781 39.441406 37.28125 M 70.082031 39.667969 C 69.296875 39.988281 68.542969 41.058594 68.542969 41.851562 C 68.542969 42.191406 68.8125 42.808594 69.140625 43.222656 L 69.734375 43.980469 L 84.042969 43.980469 C 97.59375 43.980469 98.386719 43.953125 99.011719 43.445312 C 99.910156 42.71875 99.921875 41.054688 99.039062 40.167969 L 98.398438 39.53125 L 84.546875 39.472656 C 76.929688 39.441406 70.421875 39.527344 70.082031 39.667969 M 129.6875 39.816406 C 129.273438 40.042969 128.402344 41.070312 127.753906 42.105469 L 126.574219 43.988281 L 128.9375 45.503906 C 133.234375 48.265625 135.769531 49.800781 135.859375 49.691406 C 135.90625 49.628906 136.417969 48.804688 136.996094 47.851562 C 138.957031 44.628906 138.394531 43.085938 134.386719 40.703125 C 132.046875 39.308594 130.988281 39.109375 129.6875 39.816406 M 51.675781 40.75 C 51.367188 41.027344 50.242188 42.449219 49.175781 43.910156 C 48.109375 45.371094 47.148438 46.5625 47.046875 46.554688 C 46.945312 46.546875 46.507812 46.035156 46.078125 45.414062 C 45.648438 44.792969 44.96875 44.199219 44.566406 44.097656 C 42.769531 43.648438 41.089844 45.472656 41.820312 47.082031 C 42.464844 48.492188 44.960938 51.628906 45.714844 51.972656 C 47.859375 52.949219 48.816406 52.253906 52.738281 46.894531 C 55.601562 42.976562 55.855469 42.179688 54.628906 40.953125 C 53.792969 40.117188 52.484375 40.027344 51.675781 40.75 M 123.15625 49.363281 C 122.464844 50.425781 122.347656 50.800781 122.617188 51.058594 C 123.402344 51.792969 131.277344 56.574219 131.492188 56.445312 C 131.808594 56.246094 133.261719 53.742188 133.128906 53.621094 C 132.894531 53.402344 124.28125 48 124.167969 48 C 124.097656 48 123.644531 48.617188 123.15625 49.363281 M 69.25 49.28125 C 68.355469 50.175781 68.351562 51.191406 69.238281 52.222656 L 69.929688 53.027344 L 85.253906 53.027344 L 85.800781 52.351562 C 86.5625 51.410156 86.511719 49.976562 85.6875 49.199219 C 85.039062 48.59375 84.828125 48.578125 77.488281 48.578125 L 69.953125 48.578125 Z M 125.871094 59.628906 C 125.371094 60.390625 86.882812 121.164062 86.554688 121.707031 C 86.445312 121.886719 86.816406 122.535156 87.378906 123.144531 L 88.402344 124.253906 L 88.925781 123.613281 C 89.214844 123.257812 98.335938 108.9375 109.191406 91.789062 C 127.707031 62.539062 128.894531 60.585938 128.390625 60.214844 C 128.09375 59.996094 127.511719 59.617188 127.09375 59.371094 C 126.371094 58.941406 126.3125 58.953125 125.871094 59.628906 M 37.832031 67.59375 C 37.128906 67.953125 36.160156 68.746094 35.675781 69.351562 L 34.796875 70.457031 L 34.714844 80.472656 C 34.636719 89.910156 34.664062 90.550781 35.191406 91.574219 C 35.890625 92.941406 36.808594 93.804688 38.167969 94.371094 C 39.054688 94.742188 40.785156 94.816406 48.519531 94.816406 L 57.804688 94.816406 L 59.300781 94.070312 C 60.414062 93.515625 61 92.980469 61.585938 91.988281 L 62.371094 90.652344 L 62.371094 80.886719 C 62.371094 71.285156 62.359375 71.101562 61.71875 69.902344 C 61.359375 69.230469 60.527344 68.324219 59.871094 67.890625 L 58.679688 67.101562 L 48.894531 67.019531 C 39.183594 66.9375 39.097656 66.941406 37.832031 67.59375 M 39.441406 71.742188 C 39.335938 71.847656 39.25 75.972656 39.25 80.902344 C 39.25 88.816406 39.304688 89.890625 39.703125 90.046875 C 39.953125 90.140625 44.019531 90.21875 48.742188 90.21875 C 56.933594 90.21875 57.335938 90.195312 57.621094 89.664062 C 58.066406 88.832031 58.023438 72.347656 57.574219 71.898438 C 57.320312 71.644531 54.890625 71.550781 48.429688 71.550781 C 43.59375 71.550781 39.546875 71.636719 39.441406 71.742188 M 69.25 74.84375 C 68.476562 75.613281 68.371094 76.316406 68.867188 77.40625 C 69.453125 78.6875 70.105469 78.761719 80.289062 78.671875 L 89.847656 78.589844 L 90.398438 77.910156 C 91.160156 76.96875 91.105469 75.535156 90.28125 74.761719 C 89.625 74.144531 89.484375 74.136719 79.785156 74.136719 L 69.953125 74.136719 Z M 51.8125 75.933594 C 51.554688 76.128906 50.386719 77.605469 49.214844 79.214844 L 47.085938 82.140625 L 46.195312 80.875 C 45.195312 79.457031 44.242188 79.070312 43.003906 79.585938 C 42.0625 79.976562 41.402344 81.265625 41.683594 82.160156 C 41.789062 82.488281 42.636719 83.785156 43.566406 85.039062 C 44.980469 86.945312 45.421875 87.347656 46.273438 87.507812 C 48.445312 87.914062 48.679688 87.726562 52.726562 82.21875 C 55.605469 78.300781 55.859375 77.507812 54.628906 76.277344 C 53.855469 75.507812 52.578125 75.347656 51.8125 75.933594 M 69.707031 83.449219 C 68.40625 84.171875 68.183594 85.863281 69.25 86.929688 L 69.953125 87.636719 L 77.394531 87.636719 C 84.488281 87.636719 84.875 87.609375 85.59375 87.039062 C 86.609375 86.242188 86.632812 84.734375 85.644531 83.746094 L 84.941406 83.039062 L 77.675781 83.050781 C 72.113281 83.058594 70.246094 83.152344 69.707031 83.449219 M 38.675781 101.75 C 37.160156 102.195312 35.800781 103.367188 35.183594 104.757812 C 34.671875 105.921875 34.640625 106.664062 34.714844 115.867188 L 34.796875 125.734375 L 35.570312 126.898438 C 36.035156 127.597656 36.839844 128.304688 37.597656 128.671875 C 38.804688 129.253906 39.257812 129.28125 48.542969 129.28125 C 57.644531 129.28125 58.296875 129.246094 59.347656 128.707031 C 60.765625 127.984375 61.804688 126.632812 62.222656 124.960938 C 62.445312 124.078125 62.523438 120.726562 62.460938 114.621094 C 62.363281 104.960938 62.371094 105 60.828125 103.335938 C 59.191406 101.566406 59.21875 101.570312 49.015625 101.511719 C 43.308594 101.476562 39.289062 101.570312 38.675781 101.75 M 100.320312 114.398438 C 96.238281 120.855469 92.25 126.847656 91.464844 127.707031 C 90.675781 128.570312 88.289062 130.664062 86.15625 132.363281 L 82.277344 135.453125 L 94.984375 135.53125 C 101.972656 135.570312 107.738281 135.558594 107.792969 135.503906 C 107.851562 135.449219 107.863281 128.03125 107.820312 119.027344 L 107.746094 102.652344 Z M 39.566406 106.410156 C 39.335938 106.691406 39.261719 109.367188 39.316406 115.671875 L 39.394531 124.539062 L 48.261719 124.617188 C 54.566406 124.671875 57.246094 124.597656 57.523438 124.367188 C 57.839844 124.101562 57.917969 122.378906 57.917969 115.480469 C 57.917969 108.082031 57.855469 106.859375 57.46875 106.46875 C 57.078125 106.078125 55.855469 106.015625 48.457031 106.015625 C 41.558594 106.015625 39.832031 106.09375 39.566406 106.410156 M 51.960938 109.652344 C 51.765625 109.730469 50.613281 111.148438 49.398438 112.800781 L 47.195312 115.804688 L 45.996094 114.5 C 45.097656 113.519531 44.589844 113.195312 43.953125 113.195312 C 42.820312 113.195312 41.921875 113.875 41.695312 114.902344 C 41.480469 115.886719 41.679688 116.308594 43.597656 118.941406 C 45.15625 121.078125 46.171875 121.691406 47.667969 121.410156 C 48.84375 121.191406 49.390625 120.613281 52.710938 116.078125 C 55.597656 112.140625 55.890625 111.238281 54.667969 110.085938 C 54.042969 109.5 52.824219 109.304688 51.960938 109.652344 M 77.640625 125.1875 C 77.394531 126.253906 76.753906 128.957031 76.214844 131.195312 L 75.234375 135.265625 L 80.066406 131.375 C 85.464844 127.023438 85.339844 127.265625 83.105469 125.433594 C 81.71875 124.296875 79.628906 123.265625 78.699219 123.253906 C 78.175781 123.25 78.019531 123.53125 77.640625 125.1875 " fill-opacity="1" fill-rule="evenodd"/></g></svg>