<svg xmlns="http://www.w3.org/2000/svg" xmlns:xlink="http://www.w3.org/1999/xlink" width="200" zoomAndPan="magnify" viewBox="0 0 150 149.999998" height="200" preserveAspectRatio="xMidYMid meet" version="1.0"><path fill="#16a34a" d="M 64.144531 19.195312 C 40.816406 21.234375 23.917969 29.054688 21.605469 38.875 C 21.277344 40.277344 21.1875 45.574219 21.183594 64.382812 C 21.179688 84.820312 21.113281 88.449219 20.691406 90.5 C 19.054688 98.457031 13.1875 106.578125 4.328125 113.152344 C 1.613281 115.164062 1.398438 115.402344 1.398438 116.390625 C 1.398438 118.109375 2.152344 118.59375 5.308594 118.890625 C 12.886719 119.59375 23.101562 118.921875 31.308594 117.179688 C 35.191406 116.355469 35.46875 116.332031 36.40625 116.804688 C 37.671875 117.4375 38.109375 118.609375 37.570312 119.910156 C 37.351562 120.441406 35.625 122.445312 33.734375 124.367188 C 30.726562 127.425781 28.878906 129.027344 24.148438 132.695312 C 23.25 133.390625 23.035156 133.765625 23.035156 134.625 C 23.035156 136.414062 23.851562 136.929688 26.667969 136.929688 C 29.882812 136.929688 36.191406 136.171875 40.941406 135.210938 C 52.132812 132.953125 60.753906 129.273438 68.183594 123.585938 C 70.90625 121.503906 72.519531 120.851562 74.925781 120.871094 C 77.339844 120.890625 78.542969 121.394531 81.675781 123.71875 C 86.738281 127.472656 90.832031 129.671875 97 131.960938 C 104.429688 134.71875 115.992188 136.929688 122.949219 136.929688 C 125.769531 136.929688 126.585938 136.414062 126.585938 134.625 C 126.585938 133.644531 126.339844 133.363281 123.570312 131.167969 C 119.730469 128.121094 112.859375 121.410156 112.234375 120.089844 C 111.585938 118.726562 112.082031 117.238281 113.359375 116.703125 C 114.132812 116.375 114.871094 116.449219 118.363281 117.1875 C 126.9375 119 135.492188 119.644531 142.808594 119.03125 C 147.617188 118.625 148.53125 118.214844 148.53125 116.460938 C 148.53125 115.433594 147.914062 114.777344 145.113281 112.828125 C 144.015625 112.066406 141.445312 109.769531 139.398438 107.726562 C 133.9375 102.277344 130.988281 97.460938 129.488281 91.546875 L 128.75 88.632812 L 128.742188 64.792969 C 128.738281 46.582031 128.640625 40.507812 128.339844 39.058594 C 126.246094 29.070312 109.277344 21.230469 85.320312 19.175781 C 81.023438 18.808594 68.433594 18.820312 64.144531 19.195312 M 65.382812 23.683594 C 47.574219 25.242188 34.082031 29.730469 28.355469 35.996094 C 26.292969 38.253906 25.519531 40.449219 26.109375 42.410156 C 27.167969 45.949219 31.066406 49.128906 38.949219 52.878906 C 46.757812 56.597656 53.9375 58.058594 67.9375 58.769531 C 94.894531 60.140625 120.105469 53.03125 123.664062 43.054688 C 124.214844 41.511719 124.210938 40.886719 123.621094 39.15625 C 121.367188 32.550781 107.984375 26.589844 90.109375 24.238281 C 86.421875 23.753906 69.042969 23.363281 65.382812 23.683594 M 62.753906 28.160156 C 54.636719 28.867188 45.210938 30.820312 40.539062 32.765625 C 32.269531 36.210938 29.964844 41.351562 34.648438 45.90625 C 35.527344 46.761719 37.214844 47.859375 38.917969 48.683594 C 41.703125 50.035156 48.644531 52.238281 50.121094 52.238281 C 51.097656 52.238281 52.398438 50.941406 52.398438 49.964844 C 52.398438 48.578125 51.5 48.027344 47.3125 46.851562 C 41.132812 45.117188 36.945312 42.800781 36.945312 41.117188 C 36.945312 39.953125 39.742188 38.0625 43.625 36.601562 C 51.128906 33.777344 61.429688 32.433594 75.578125 32.429688 C 85.941406 32.429688 86.09375 32.398438 86.09375 30.332031 C 86.09375 29.523438 85.886719 28.964844 85.441406 28.558594 C 84.835938 28.011719 84.167969 27.96875 75.320312 27.929688 C 70.109375 27.910156 64.453125 28.011719 62.753906 28.160156 M 92.890625 29.671875 C 92.097656 30.46875 92.074219 32.175781 92.851562 32.878906 C 93.179688 33.179688 94.855469 33.675781 96.753906 34.042969 C 100.054688 34.675781 100.085938 34.675781 100.890625 34.078125 C 101.449219 33.660156 101.730469 33.132812 101.796875 32.375 C 101.9375 30.722656 101.144531 30.175781 97.738281 29.566406 C 94.074219 28.914062 93.640625 28.921875 92.890625 29.671875 M 109.058594 33.84375 C 108.25 34.410156 107.878906 35.902344 108.332031 36.753906 C 108.515625 37.097656 109.289062 37.742188 110.046875 38.1875 C 111.441406 39.003906 112.984375 40.574219 112.984375 41.171875 C 112.984375 41.796875 110.785156 43.566406 108.878906 44.476562 C 103.871094 46.863281 96.25 48.5625 86.554688 49.449219 C 81.535156 49.90625 69.277344 49.898438 63.40625 49.425781 C 58.179688 49.011719 57.902344 49.066406 57.300781 50.65625 C 56.902344 51.703125 57.488281 53.023438 58.53125 53.433594 C 60.804688 54.324219 78.414062 54.738281 86.246094 54.085938 C 94.953125 53.359375 104.203125 51.484375 109.035156 49.472656 C 116.070312 46.539062 118.933594 42.445312 116.828125 38.328125 C 115.921875 36.554688 111.75 33.382812 110.320312 33.382812 C 109.992188 33.382812 109.421875 33.589844 109.058594 33.84375 M 65.757812 35.539062 C 60.640625 35.816406 59.6875 36.117188 59.320312 37.582031 C 59.054688 38.632812 59.628906 39.816406 60.578125 40.175781 C 61.066406 40.363281 63.640625 40.347656 67.613281 40.136719 C 76.0625 39.6875 87.949219 40.09375 93.355469 41.015625 L 94.59375 41.226562 L 92.953125 41.445312 C 92.050781 41.566406 91.039062 41.90625 90.710938 42.207031 C 89.910156 42.929688 89.921875 44.628906 90.730469 45.4375 C 91.46875 46.179688 92.40625 46.207031 96.136719 45.597656 C 100.34375 44.914062 102.144531 44.285156 103.347656 43.078125 C 104.285156 42.144531 104.386719 41.886719 104.222656 40.867188 C 103.898438 38.835938 101.417969 37.5625 95.96875 36.636719 C 89.78125 35.582031 74.941406 35.042969 65.757812 35.539062 M 48.121094 40.960938 C 47.222656 42.105469 47.257812 43.382812 48.210938 44.132812 C 49.789062 45.371094 58.765625 46.550781 69.097656 46.875 L 75.4375 47.074219 L 76.335938 46.304688 C 77.378906 45.410156 77.542969 43.933594 76.703125 43.007812 C 76.238281 42.492188 75.507812 42.402344 70.394531 42.21875 C 63.3125 41.964844 58.082031 41.542969 54.410156 40.917969 C 49.011719 40.007812 48.871094 40.007812 48.121094 40.960938 M 25.816406 68.90625 C 25.816406 80.285156 25.691406 88.023438 25.480469 89.527344 C 24.433594 97.050781 20.652344 104.050781 13.929688 110.890625 L 10.207031 114.679688 L 13.761719 114.675781 C 18.15625 114.675781 24.082031 114 29.195312 112.917969 C 34.402344 111.820312 35.785156 111.722656 37.394531 112.335938 C 39.089844 112.980469 40.804688 114.703125 41.453125 116.40625 C 42.089844 118.066406 41.9375 120.824219 41.113281 122.535156 C 40.792969 123.199219 38.714844 125.605469 36.496094 127.878906 L 32.460938 132.015625 L 33.699219 131.828125 C 48.203125 129.628906 57.175781 126.207031 66 119.515625 C 69.253906 117.050781 71.003906 116.417969 74.65625 116.398438 C 78.089844 116.378906 79.875 116.917969 82.425781 118.738281 C 89.710938 123.941406 93.464844 125.917969 100.519531 128.269531 C 104.59375 129.628906 112.011719 131.339844 115.699219 131.773438 L 117.027344 131.929688 L 112.964844 127.746094 C 108.464844 123.113281 107.746094 121.941406 107.734375 119.226562 C 107.722656 116.097656 109.066406 113.96875 111.902344 112.628906 C 113.851562 111.710938 114.871094 111.710938 119.046875 112.648438 C 124.445312 113.855469 128.53125 114.371094 134.390625 114.578125 L 139.878906 114.769531 L 136.078125 110.9375 C 129.246094 104.042969 125.546875 97.132812 124.441406 89.195312 C 124.238281 87.722656 124.113281 79.917969 124.113281 68.75 C 124.113281 58.816406 123.996094 50.691406 123.851562 50.691406 C 123.707031 50.691406 123.347656 50.957031 123.050781 51.285156 C 121.703125 52.773438 114.738281 56.808594 112.578125 57.351562 L 111.746094 57.558594 L 111.746094 66.445312 C 111.746094 74.972656 111.722656 75.371094 111.105469 76.148438 C 110.304688 77.171875 108.648438 77.265625 107.730469 76.347656 C 107.140625 75.757812 107.109375 75.316406 107.109375 67.453125 L 107.109375 59.179688 L 102.480469 60.320312 C 99.9375 60.949219 97.085938 61.558594 96.144531 61.675781 L 94.4375 61.890625 L 94.4375 65.871094 C 94.4375 69.441406 94.375 69.917969 93.820312 70.472656 C 92.96875 71.324219 91.25 71.292969 90.429688 70.414062 C 89.875 69.816406 89.800781 69.335938 89.800781 66.195312 L 89.800781 62.65625 L 87.511719 62.847656 C 86.253906 62.953125 83.476562 63.136719 81.34375 63.25 L 77.457031 63.457031 L 77.371094 74.839844 C 77.285156 86.089844 77.273438 86.230469 76.605469 86.898438 C 75.628906 87.875 74.132812 87.800781 73.214844 86.734375 L 72.492188 85.894531 L 72.492188 63.710938 L 71.175781 63.550781 C 70.453125 63.464844 68.332031 63.3125 66.464844 63.214844 C 64.59375 63.121094 62.402344 62.957031 61.59375 62.855469 L 60.128906 62.667969 L 60.128906 66.273438 C 60.128906 69.695312 60.085938 69.921875 59.367188 70.640625 C 58.441406 71.570312 57.386719 71.609375 56.304688 70.761719 C 55.5 70.128906 55.492188 70.070312 55.492188 66.128906 C 55.492188 62.242188 55.472656 62.136719 54.796875 61.988281 C 54.414062 61.90625 52.617188 61.550781 50.804688 61.199219 C 48.992188 60.84375 46.558594 60.28125 45.398438 59.949219 C 44.234375 59.617188 43.179688 59.347656 43.050781 59.347656 C 42.921875 59.347656 42.816406 63.078125 42.816406 67.644531 C 42.816406 75.160156 42.765625 75.988281 42.277344 76.417969 C 40.980469 77.554688 39.179688 77.277344 38.523438 75.835938 C 38.296875 75.339844 38.179688 72.082031 38.179688 66.320312 L 38.179688 57.558594 L 37.351562 57.351562 C 35.191406 56.808594 28.226562 52.773438 26.878906 51.285156 C 26.582031 50.957031 26.222656 50.691406 26.078125 50.691406 C 25.933594 50.691406 25.816406 58.886719 25.816406 68.90625 M 56.839844 77.628906 C 56.476562 77.808594 56.023438 78.296875 55.835938 78.710938 C 55.359375 79.757812 55.355469 100.753906 55.832031 101.800781 C 56.492188 103.242188 58.289062 103.519531 59.585938 102.382812 C 60.082031 101.945312 60.128906 100.972656 60.128906 90.398438 C 60.128906 79.886719 60.082031 78.832031 59.585938 78.25 C 58.921875 77.464844 57.722656 77.191406 56.839844 77.628906 M 91.347656 77.492188 C 91.089844 77.585938 90.640625 77.875 90.34375 78.132812 C 89.84375 78.566406 89.800781 79.546875 89.800781 90.257812 C 89.800781 100.964844 89.84375 101.945312 90.34375 102.382812 C 91.640625 103.519531 93.4375 103.242188 94.09375 101.800781 C 94.324219 101.292969 94.4375 97.503906 94.4375 90.257812 C 94.4375 83.007812 94.324219 79.21875 94.09375 78.714844 C 93.90625 78.300781 93.414062 77.804688 93 77.617188 C 92.183594 77.246094 92.046875 77.234375 91.347656 77.492188 M 39.335938 86.234375 L 38.488281 86.902344 L 38.488281 92.550781 C 38.488281 97.542969 38.550781 98.253906 39.03125 98.671875 C 40.367188 99.847656 42.183594 99.515625 42.816406 97.984375 C 43.371094 96.648438 43.109375 87.011719 42.503906 86.410156 C 41.667969 85.574219 40.273438 85.5 39.335938 86.234375 M 108.109375 85.941406 C 107.726562 86.09375 107.273438 86.582031 107.105469 87.023438 C 106.683594 88.132812 106.714844 97.148438 107.144531 98.089844 C 107.800781 99.53125 109.601562 99.8125 110.898438 98.671875 C 111.375 98.253906 111.4375 97.542969 111.4375 92.550781 L 111.4375 86.902344 L 110.625 86.261719 C 109.746094 85.570312 109.207031 85.5 108.109375 85.941406 M 73.375 94.554688 C 72.667969 95.128906 72.644531 95.285156 72.644531 99.777344 C 72.644531 103.898438 72.710938 104.480469 73.234375 105.0625 C 74.035156 105.945312 75.894531 105.945312 76.695312 105.0625 C 77.191406 104.511719 77.296875 103.824219 77.386719 100.550781 C 77.441406 98.425781 77.402344 96.347656 77.300781 95.9375 C 76.839844 94.101562 74.816406 93.390625 73.375 94.554688 " fill-opacity="1" fill-rule="evenodd"/></svg>