<?xml version="1.0" encoding="UTF-8" standalone="no"?>
<svg
   width="200"
   zoomAndPan="magnify"
   viewBox="0 0 150 150"
   height="200"
   preserveAspectRatio="xMidYMid meet"
   version="1.0"
   id="svg127"
   sodipodi:docname="tree.svg"
   inkscape:version="1.1.2 (0a00cf5339, 2022-02-04)"
   xmlns:inkscape="http://www.inkscape.org/namespaces/inkscape"
   xmlns:sodipodi="http://sodipodi.sourceforge.net/DTD/sodipodi-0.dtd"
   xmlns="http://www.w3.org/2000/svg"
   xmlns:svg="http://www.w3.org/2000/svg">
  <sodipodi:namedview
     id="namedview129"
     pagecolor="#ffffff"
     bordercolor="#000000"
     borderopacity="0.25"
     inkscape:pageshadow="2"
     inkscape:pageopacity="0.0"
     inkscape:pagecheckerboard="0"
     showgrid="false"
     inkscape:zoom="1.564"
     inkscape:cx="41.879795"
     inkscape:cy="147.37852"
     inkscape:window-width="1853"
     inkscape:window-height="1016"
     inkscape:window-x="0"
     inkscape:window-y="0"
     inkscape:window-maximized="1"
     inkscape:current-layer="svg127" />
  <defs
     id="defs121">
    <clipPath
       id="427ee09f17">
      <path
         d="m 112.5,112.5 h 150 v 150 h -150 z m 0,0"
         clip-rule="nonzero"
         id="path118" />
    </clipPath>
  </defs>
  <g
     clip-path="url(#427ee09f17)"
     id="g125"
     transform="matrix(0.97911567,0,0,0.98476729,-108.05449,-110.04231)">
    <path
       fill="#16a34a"
       d="m 181.64062,112.92188 c -3.95312,0.82421 -8.52343,2.78515 -11.52343,4.9375 l -1.41407,1.01562 -1.51562,-1.02734 c -5.77344,-3.91016 -13.57031,-3.89063 -19.5,0.0508 -2.25781,1.5 -4.32031,3.66797 -5.36719,5.64453 -0.64844,1.22656 -0.71094,1.26172 -2.13281,1.27344 -8.875,0.0586 -16.67578,5.77343 -19.375,14.1914 -0.80469,2.50391 -1.07031,6.66016 -0.625,9.67188 l 0.21875,1.46484 -1.72266,1.375 c -2.04687,1.63281 -4.37109,4.96484 -5.30078,7.60547 -0.91406,2.60156 -1.13672,7.57422 -0.44922,10.21094 1.26563,4.875 4.81641,9.23437 9.26563,11.38281 1.35156,0.65234 3.03125,1.27734 3.73047,1.39062 1.42187,0.22266 1.44531,0.26172 2.21484,3.48438 1.94141,8.16016 8.82422,14.75391 17.3125,16.58594 2.66406,0.57422 7.47266,0.43359 10.21875,-0.29297 l 2.30469,-0.60938 0.83594,0.69922 c 4.66406,3.92578 15.79296,14.10547 15.79296,14.44531 0,0.24219 -1.0664,8.89454 -2.36718,19.23047 -1.4961,11.87891 -2.32422,19.46094 -2.25782,20.61719 0.12891,2.15625 1.10547,3.78125 3.1211,5.19531 l 1.26172,0.88672 h 26.26562 l 1.26172,-0.88672 c 2.01172,-1.41406 2.98828,-3.03906 3.12109,-5.19531 0.0742,-1.17187 -0.73828,-8.57031 -2.2539,-20.59766 -1.30469,-10.32421 -2.3711,-18.97656 -2.3711,-19.23046 0,-0.35547 10.9961,-10.42579 15.79297,-14.46485 l 0.83594,-0.69922 2.30469,0.60938 c 2.74609,0.72656 7.55469,0.86719 10.21484,0.29297 8.49219,-1.83203 15.375,-8.42578 17.31641,-16.58594 0.76953,-3.22266 0.79297,-3.26172 2.21484,-3.48438 0.69922,-0.11328 2.39063,-0.74218 3.76172,-1.40234 4.26172,-2.05078 8.04688,-6.59766 9.09766,-10.93359 0.19531,-0.80469 0.47265,-1.58985 0.60937,-1.74219 0.36719,-0.40234 0.32813,-6.39453 -0.0391,-6.16797 -0.16016,0.10156 -0.29297,-0.0625 -0.29297,-0.36328 0,-1.20703 -1.32812,-4.36328 -2.70703,-6.42188 -0.85547,-1.27734 -2.17969,-2.75781 -3.18359,-3.55859 l -1.72266,-1.37109 0.21875,-1.46485 c 0.44531,-3.01562 0.17969,-7.17187 -0.625,-9.67578 -1.84375,-5.7539 -6.4375,-10.70703 -11.8125,-12.74218 -2.02344,-0.76563 -5.52344,-1.4375 -7.5625,-1.44922 -1.44141,-0.0117 -1.47266,-0.0312 -2.19531,-1.38672 -0.40235,-0.75781 -1.58594,-2.2461 -2.63672,-3.30469 -5.77344,-5.83594 -15.25781,-6.88281 -21.9336,-2.42578 l -1.7539,1.17187 -1.41406,-1.02343 c -2.03516,-1.47657 -6.89063,-3.74219 -9.61719,-4.48828 -2.98438,-0.8125 -10.64453,-1.0625 -13.6211,-0.4375 m -0.14843,5.46484 c -3.08203,0.75 -7.09375,2.78125 -9.78907,4.95703 -2.85156,2.29688 -3.53125,2.29688 -6.07812,-0.0273 -2.67969,-2.44532 -6.64453,-3.60938 -10.10938,-2.96485 -4.125,0.76563 -7.64843,3.49219 -9.34375,7.23438 -1.17968,2.60156 -1.69531,2.89062 -4.73046,2.64062 -4.28516,-0.35156 -8.28516,1.01172 -11.39844,3.88672 -4.17578,3.85938 -5.75391,9.03906 -4.39844,14.41016 0.34375,1.35937 0.625,2.74218 0.625,3.07812 0,0.91406 -0.77734,1.85156 -2.09765,2.52344 -1.58594,0.80859 -3.53907,2.64844 -4.58985,4.32031 -1.4414,2.29297 -1.89062,4.14063 -1.75781,7.21485 0.10156,2.30859 0.25781,2.98828 1.04297,4.58593 1.89453,3.83985 5.625,6.49219 9.8164,6.98438 1.17188,0.13672 2.36328,0.34375 2.65235,0.46094 0.80078,0.32421 1.3789,1.71484 1.3789,3.3164 0,1.98828 1.15625,5.8086 2.36719,7.8086 2.07422,3.44531 6.05078,6.5664 9.93359,7.80859 2.66407,0.85156 7.30469,0.85156 9.96485,0 6.0664,-1.9375 10.42187,-6.6875 11.99609,-13.08203 0.65235,-2.64453 1.26563,-3.36719 2.85547,-3.36719 0.80859,0 1.44922,0.35547 3.11719,1.72266 3.83203,3.14843 7.80469,4.87109 12.125,5.26172 6.46875,0.58203 11.78125,-1.02735 16.75781,-5.07813 1.86719,-1.52344 2.54297,-1.90625 3.34766,-1.90625 1.57422,0 2.1914,0.73047 2.84375,3.36719 1.57422,6.39453 5.92968,11.14453 11.99609,13.08203 2.66016,0.85156 7.30078,0.85156 9.96484,0 6.67969,-2.13672 11.69141,-8.23438 12.19141,-14.83984 0.1875,-2.45704 0.57031,-3.57422 1.375,-4.00391 0.32813,-0.17578 1.59375,-0.42969 2.80859,-0.56641 4.20313,-0.47265 7.85938,-3.07812 9.77344,-6.96875 0.90235,-1.83203 0.94531,-2.08593 0.94531,-5.29687 0,-3.10547 -0.0625,-3.51172 -0.8164,-5.04297 -1.08203,-2.20703 -3.16016,-4.47656 -5.09766,-5.57031 -1.70312,-0.96094 -2.43359,-1.78125 -2.43359,-2.73438 0,-0.33594 0.28125,-1.71875 0.625,-3.07812 2.48828,-9.84375 -5.53516,-19.14063 -15.79688,-18.29688 -3.03515,0.25 -3.55078,-0.0391 -4.73047,-2.64062 -2.27734,-5.02735 -7.89062,-8.14844 -13.0625,-7.26172 -2.42187,0.41406 -4.76171,1.50391 -6.34375,2.94922 -2.60937,2.3789 -3.28125,2.38672 -6.13281,0.0586 -2.70312,-2.20312 -6.67969,-4.1914 -9.92969,-4.96484 -3.33593,-0.78906 -8.57421,-0.78125 -11.86718,0.0195 m -68.88281,46.69922 c 0,1.77343 0.0508,2.46093 0.10546,1.52734 0.0586,-0.92969 0.0586,-2.37891 0,-3.22266 -0.0586,-0.83984 -0.10546,-0.0742 -0.10546,1.69532 m 57.92578,24.35156 c -0.5,1.06641 -0.90625,2.04297 -0.90625,2.17187 0,0.12891 1.8789,1.57422 4.17578,3.20704 l 4.17187,2.97265 0.34766,-2.43359 c 0.46875,-3.32031 0.46875,-4.33985 0.004,-4.33985 -0.49609,0 -5.02734,-2.1914 -6.07421,-2.9375 L 171.44141,187.5 Z m 32.34375,-1.45703 c -0.79297,0.625 -5.71875,3.03515 -6.20313,3.03515 -0.46875,0 -0.46875,1.00782 0,4.33985 l 0.34375,2.43359 4.17578,-2.97265 c 2.29688,-1.63282 4.17578,-3.07813 4.17578,-3.20704 0,-0.22656 -1.76562,-4.11718 -1.85937,-4.10156 -0.0234,0.008 -0.3086,0.21875 -0.63281,0.47266 m -18.89454,4.63281 c 0,1.02344 -1.52734,10.86328 -1.75,11.28125 -0.17187,0.32031 -0.5664,0.71875 -0.875,0.88281 -1.3789,0.73828 -2.15625,0.37891 -7.64453,-3.54297 -2.95703,-2.11328 -5.86718,-4.16796 -6.46484,-4.5664 l -1.08984,-0.71875 -1.59375,1.30078 -1.59375,1.29687 8.33203,7.40625 c 4.58203,4.07032 8.45703,7.67969 8.61328,8.02344 0.20312,0.44531 -0.4336,6.33985 -2.21875,20.60156 -1.37891,10.99219 -2.50391,20.375 -2.50391,20.85547 0,1.82813 -0.22656,1.79297 12.30469,1.79297 12.60547,0 12.30469,0.0469 12.30469,-1.88281 0,-0.53125 -1.1211,-9.86719 -2.49219,-20.75391 -1.80078,-14.29687 -2.41797,-19.99218 -2.21875,-20.51562 0.15234,-0.39844 4.02344,-4.05469 8.60547,-8.125 l 8.32812,-7.40235 -1.58984,-1.29296 c -1.47656,-1.20313 -1.64063,-1.26954 -2.23047,-0.87891 -0.35156,0.23047 -3.25391,2.28125 -6.45312,4.55859 -5.94922,4.24219 -6.70313,4.60157 -8.11329,3.84375 -0.30859,-0.16406 -0.70312,-0.5625 -0.875,-0.88281 -0.22265,-0.41797 -1.75,-10.25781 -1.75,-11.28125 0,-0.0547 -1.58203,-0.10156 -3.51562,-0.10156 -1.93359,0 -3.51563,0.0469 -3.51563,0.10156"
       fill-opacity="1"
       fill-rule="evenodd"
       id="path123" />
  </g>
</svg>
