<?xml version="1.0" encoding="UTF-8" standalone="no"?>
<svg
   width="200"
   zoomAndPan="magnify"
   viewBox="0 0 150 150"
   height="200"
   preserveAspectRatio="xMidYMid meet"
   version="1.0"
   id="svg127"
   sodipodi:docname="worms.svg"
   inkscape:version="1.1.2 (0a00cf5339, 2022-02-04)"
   xmlns:inkscape="http://www.inkscape.org/namespaces/inkscape"
   xmlns:sodipodi="http://sodipodi.sourceforge.net/DTD/sodipodi-0.dtd"
   xmlns="http://www.w3.org/2000/svg"
   xmlns:svg="http://www.w3.org/2000/svg">
  <sodipodi:namedview
     id="namedview129"
     pagecolor="#ffffff"
     bordercolor="#000000"
     borderopacity="0.25"
     inkscape:pageshadow="2"
     inkscape:pageopacity="0.0"
     inkscape:pagecheckerboard="0"
     showgrid="false"
     inkscape:zoom="1.564"
     inkscape:cx="41.879795"
     inkscape:cy="147.05882"
     inkscape:window-width="1473"
     inkscape:window-height="991"
     inkscape:window-x="26"
     inkscape:window-y="23"
     inkscape:window-maximized="0"
     inkscape:current-layer="svg127" />
  <defs
     id="defs121">
    <clipPath
       id="427ee09f17">
      <path
         d="m 112.5,112.5 h 150 v 150 h -150 z m 0,0"
         clip-rule="nonzero"
         id="path118" />
    </clipPath>
    <clipPath
       id="2b00341dff">
      <path
         d="m 102.36328,115 h 150 v 134 h -150 z m 0,0"
         clip-rule="nonzero"
         id="path152" />
    </clipPath>
  </defs>
  <g
     clip-path="url(#2b00341dff)"
     id="g159"
     transform="matrix(0.98272718,0,0,0.98272718,-99.086527,-107.39867)">
    <path
       fill="#16a34a"
       d="m 209.88281,115.37109 c -3.18359,0.5586 -13.72265,5.25782 -14.32812,6.39063 -0.17578,0.32812 -0.32032,0.94141 -0.32032,1.36328 0,0.89063 1.1875,2.20313 1.9961,2.20313 0.30469,0 2.05859,-0.70704 3.89453,-1.57032 6.17969,-2.90625 8.70312,-3.79687 10.80859,-3.80859 4.78125,-0.0312 8.64453,3.82031 8.625,8.60156 -0.0156,4.07031 -2.20703,6.76953 -7,8.62891 -6.3164,2.44531 -11.39062,5.50781 -14.80859,8.9375 -3.58203,3.59375 -5.27344,7.76953 -4.83203,11.94922 0.23828,2.2539 0.14844,2.27343 -2.78906,0.53906 -5.34766,-3.15625 -8.98829,-7.98828 -10.50391,-13.94922 -0.53906,-2.12109 -0.54297,-2.22266 -0.0273,-3.23438 1.09375,-2.14843 4.09765,-5.79296 7.26562,-8.8164 2.95703,-2.82031 3.26953,-3.21875 3.26953,-4.15235 0,-0.76562 -0.19531,-1.1914 -0.76953,-1.64062 -1.53125,-1.20703 -2.50781,-0.74609 -6.51953,3.07031 -5.99609,5.70703 -9.85156,12.58203 -11.35547,20.26563 -0.65234,3.32422 -0.65234,9.75 0,13.61328 0.26172,1.5625 1.15625,5.45312 1.98828,8.64453 1.70703,6.5625 1.98828,9.76562 1.04297,11.91797 l -0.5,1.13672 -1.39062,-0.1836 c -0.76563,-0.10156 -2.86329,-0.26953 -4.66797,-0.375 l -3.27344,-0.1875 -1.36328,-3.83984 c -1.64453,-4.625 -4.02344,-9.70703 -5.71094,-12.19531 -1.62891,-2.39453 -4.89453,-5.8125 -7.30078,-7.63672 -2.51953,-1.91406 -7.71875,-4.47266 -10.91797,-5.37891 -7.35547,-2.07812 -15.6289,-2.16797 -25.57812,-0.27734 -6.28907,1.19531 -9.40235,3.21094 -11.3711,7.36719 -0.875,1.85156 -0.93359,2.18359 -0.93359,5.19921 0,3.47657 0.36719,4.73047 2.13672,7.30469 1.8125,2.63281 6.17969,4.85547 9.53906,4.85156 0.82813,0 3.22266,-0.34375 5.31641,-0.76562 5.26562,-1.05859 11.07031,-1.14063 14.07031,-0.19531 3.73437,1.17578 5.28125,3.21875 7.86719,10.39062 l 1.01953,2.83594 -1.52344,1.15234 c -5.66016,4.27344 -10.61719,11.58594 -12.64063,18.64063 -0.41015,1.4375 -0.89062,2.78906 -1.07031,3.0039 -0.20703,0.2461 -0.98828,0.39063 -2.16797,0.39063 -2.09375,0 -4.78125,0.74609 -6.68359,1.85937 -3.38281,1.98438 -6.34375,7.08594 -6.34375,10.9375 v 1.26563 h -2.94141 c -3.36718,0 -4.73437,0.48828 -5.89453,2.11719 -0.66797,0.93359 -0.68359,1.125 -0.68359,7.30859 0,5.98438 0.0352,6.39844 0.61328,7.17578 0.95703,1.29688 2.35938,2.09375 4.01563,2.28906 0.83593,0.0977 33.03124,0.14063 71.54296,0.0898 64.50391,-0.0781 70.08985,-0.125 70.89844,-0.57031 1.09766,-0.60547 1.97266,-1.56641 2.59375,-2.85547 0.39844,-0.82032 0.48047,-2.00782 0.48047,-6.6836 0,-3.71484 -0.10156,-5.62109 -0.29297,-5.5039 -0.16016,0.10156 -0.29297,0.0273 -0.29297,-0.15625 0,-0.67578 -1.24609,-2.06641 -2.35547,-2.63282 -0.90625,-0.46484 -1.72265,-0.57812 -4.07031,-0.57812 h -2.9375 l -0.17578,-0.80859 c -1.23047,-5.56641 -4.55859,-10.08594 -8.95703,-12.17579 -2.69141,-1.27734 -4.53516,-1.66406 -7.91016,-1.66406 -2.5,0 -2.66015,-0.0391 -2.82422,-0.66015 -0.45703,-1.75 -2.49609,-5.17579 -3.92968,-6.59766 -3.35157,-3.33203 -6.35938,-4.60938 -10.78516,-4.58203 -1.52734,0.0117 -3.37109,0.1875 -4.08984,0.39062 -1.28516,0.36328 -1.32422,0.35547 -2.05079,-0.49218 -0.76171,-0.88672 -1.52734,-1.76954 -2.28906,-2.65625 l -1.54687,-1.79297 0.91406,-1.8125 c 1.25391,-2.48438 2.77734,-7.2461 3.21875,-10.07032 0.50391,-3.24218 0.44141,-9.11328 -0.14063,-12.44531 -0.26562,-1.52734 -1.12109,-5.35156 -1.90234,-8.49609 -1.77344,-7.13672 -1.97266,-8.75391 -1.37109,-11.10156 0.57812,-2.25782 1.41406,-3.56641 3.60547,-5.65235 2.91406,-2.76172 6.85937,-5.07812 12.68359,-7.42969 4.90234,-1.98437 7.125,-3.83203 8.79297,-7.32421 3.83594,-8.03125 -1.14453,-17.46875 -9.96485,-18.875 -2.10937,-0.33594 -2.22265,-0.33594 -4.10156,-0.008 m 0.44141,11.46485 c -1.4961,0.82031 -1.76563,2.46093 -0.59766,3.6289 1.35547,1.35938 3.48438,0.67188 3.85156,-1.24609 0.15235,-0.78516 0.0391,-1.08594 -0.70703,-1.82812 -0.9414,-0.94141 -1.58203,-1.08204 -2.54687,-0.55469 M 176.875,152.20703 c -0.33203,2.69141 -0.25391,7.66016 0.16406,10.32813 0.1875,1.20703 1.00781,4.96484 1.82422,8.34765 1.40234,5.8086 1.54688,6.21485 2.55859,7.27344 3.36719,3.52344 8.66797,5.93359 14.28516,6.48828 l 2.07813,0.20703 0.1914,-1.85937 c 0.19531,-1.91016 -0.14062,-6.48438 -0.68359,-9.32422 -0.6836,-3.5625 -1.82422,-7.89063 -2.15235,-8.14844 -0.1875,-0.14844 -0.87109,-0.44141 -1.51562,-0.64453 -1.69141,-0.53516 -5,-2.23438 -7.01172,-3.60156 -3.16406,-2.14453 -6.90625,-6.50391 -8.54297,-9.94532 -0.28515,-0.60546 -0.61719,-1.09765 -0.73828,-1.09765 -0.11719,0 -0.32422,0.88672 -0.45703,1.97656 m -56.64062,6.96484 c -3.98438,0.55079 -7.96875,1.47266 -9.30469,2.15235 -2.4336,1.24219 -3.90625,3.73828 -3.92969,6.64844 -0.0234,2.99218 1.66016,5.57812 4.44531,6.83984 1.67188,0.75781 3.125,0.76172 7.00782,0.0195 1.70312,-0.32812 4.15625,-0.69141 5.44531,-0.80859 l 2.34375,-0.21094 0.66406,-1.33594 c 1.57422,-3.17578 1.89844,-8 0.79297,-11.93359 l -0.50781,-1.81641 -2.08594,0.0273 c -1.14844,0.0195 -3.33984,0.20312 -4.87109,0.41796 m 12.21093,1.10938 c 0.94141,3.63672 0.7461,8.46875 -0.48828,12.05859 l -0.53906,1.5625 1.88672,0.35547 c 2.39453,0.45313 5.46875,1.92969 7.07031,3.39453 0.68359,0.62891 1.6875,1.89844 2.23437,2.82422 1.13672,1.92578 1.14844,1.92188 2.50391,-0.94531 1.375,-2.91406 1.88281,-5.67188 1.70703,-9.33984 -0.14453,-3.06641 -0.90625,-6.3086 -1.74609,-7.44141 -0.83985,-1.13672 -7.5586,-3.30078 -11.82422,-3.8125 l -1.19141,-0.14453 z m -17.29687,5.20312 c -0.59375,0.46875 -0.77344,0.86719 -0.77344,1.73829 0,0.87109 0.17969,1.26562 0.77344,1.73437 0.42578,0.33594 1.0664,0.60938 1.42578,0.60938 0.35937,0 1,-0.27344 1.42578,-0.60938 0.59375,-0.46875 0.76953,-0.86328 0.76953,-1.73437 0,-0.8711 -0.17578,-1.26954 -0.76953,-1.73829 -0.42578,-0.33203 -1.06641,-0.60546 -1.42578,-0.60546 -0.35938,0 -1,0.27343 -1.42578,0.60546 m 36.26562,6.05079 c -0.0195,3.91015 -0.10156,4.57031 -0.83984,6.82031 -1.00391,3.05859 -1.58985,4.24219 -3.44141,6.92969 -1.42969,2.07812 -1.4414,2.11328 -1.08984,3.29687 0.19922,0.66016 0.47656,1.19922 0.61719,1.19922 0.14453,0 0.7539,-0.25391 1.35546,-0.5625 1.85157,-0.94531 6.83594,-2.57813 9.88282,-3.23828 1.59375,-0.34375 2.92187,-0.65235 2.95312,-0.6875 0.0352,-0.0312 -0.5625,-1.77344 -1.32812,-3.86328 -2.16016,-5.91797 -4.21875,-9.67188 -7.26953,-13.26563 l -0.81641,-0.95703 z m 28.87891,12.90625 c 0,1.27343 -2.11328,4.875 -4.03125,6.86328 -1.91016,1.98437 -5.50391,4.61328 -7.75781,5.67968 -0.60547,0.28516 -1.09766,0.59375 -1.09766,0.6875 0.004,0.0898 1.11328,0.74219 2.46484,1.44532 4.10938,2.14062 8.63282,5.85156 11.22266,9.21093 0.78516,1.01954 0.88672,0.97266 4.46875,-2.0039 4.74219,-3.94922 8.10937,-8.5 10.28906,-13.90625 1.2461,-3.10156 1.23047,-3.16016 -0.96094,-3.20313 -3.51562,-0.0664 -9.28515,-2.08593 -12.74609,-4.45703 -1.41406,-0.96875 -1.85156,-1.04297 -1.85156,-0.3164 m -16.55078,5.34375 c -15.44922,1.64062 -26.89844,10.3125 -30.75,23.28515 -1.08594,3.65625 -1.72657,4.95313 -2.85157,5.78906 -1.37109,1.01954 -2.66796,1.38672 -4.89453,1.39063 -2.44531,0.004 -4.40234,0.87109 -6.07031,2.6875 -1.3125,1.43359 -2.45703,4.07031 -2.45703,5.67187 v 1.01563 h 85.50781 l 0.60547,0.76953 c 0.79688,1.01563 0.76563,1.94141 -0.10156,2.94922 l -0.70703,0.82031 -47.5586,0.14844 -47.55859,0.14453 -0.082,4.35547 c -0.0547,2.96094 0.0273,4.48437 0.25781,4.76172 0.28516,0.34375 11.03125,0.40625 70.26172,0.40625 53.99219,0 70.00391,-0.082 70.27344,-0.35156 0.40234,-0.40235 0.5039,-8.33594 0.11718,-8.94532 -0.17578,-0.27734 -4.50781,-0.3789 -18.77343,-0.4414 l -18.54297,-0.0781 -0.70703,-0.82031 c -0.86719,-1.00781 -0.89844,-1.93359 -0.0977,-2.94922 l 0.60547,-0.76953 h 13.75 c 15.8125,0 14.43359,0.32812 12.89453,-3.07031 -1.13672,-2.50782 -3.15234,-4.61328 -5.53125,-5.78516 -1.76953,-0.87109 -2.17969,-0.94922 -5.75781,-1.09766 -4.11719,-0.16796 -4.625,-0.33203 -6.15235,-1.98046 -0.41015,-0.44532 -0.96093,-1.46485 -1.22265,-2.27344 -1.00391,-3.10938 -3.07031,-5.51953 -5.8125,-6.77344 -2.17578,-0.99609 -4.30469,-1.16016 -7.13281,-0.54687 -3.82813,0.82421 -4.97657,0.30859 -8.46094,-3.82813 l -1.22266,-1.45312 -1.70312,1.90625 c -2.70313,3.02343 -6.59375,6.48046 -9.39844,8.35156 -0.043,0.0234 0.13672,0.46875 0.39453,0.98828 0.82422,1.65625 -0.21094,3.55078 -1.94531,3.55078 -1.08594,0 -1.73438,-0.65234 -3.50391,-3.51953 -1.57422,-2.55859 -5.01172,-6.29688 -7.55469,-8.22266 -3.51171,-2.66015 -8.19921,-4.71875 -12.95312,-5.6875 -2.43359,-0.5 -3.22266,-1.11718 -3.22266,-2.53906 0,-0.53516 0.28907,-1.14844 0.75782,-1.61719 0.6875,-0.68359 0.90625,-0.73828 2.32031,-0.57422 1.36719,0.16407 1.86328,0.0547 4.0039,-0.85937 3.72657,-1.58984 8.28907,-4.35547 7.98829,-4.84375 -0.1875,-0.30469 -4.00391,-0.28516 -7.01172,0.0352 M 102.48828,239 c 0,3.30078 0.043,4.65234 0.0937,3 0.0547,-1.64844 0.0547,-4.35156 0,-6.00391 -0.0508,-1.65234 -0.0937,-0.30078 -0.0937,3.00391"
       fill-opacity="1"
       fill-rule="evenodd"
       id="path157" />
  </g>
</svg>
